<svg width="41" height="40" viewBox="0 0 41 40" fill="none" xmlns="http://www.w3.org/2000/svg">
<path fill-rule="evenodd" clip-rule="evenodd" d="M20.5992 39.5518C31.5211 39.5518 40.3751 30.6978 40.3751 19.7759C40.3751 8.85399 31.5211 0 20.5992 0C9.6773 0 0.823311 8.85399 0.823311 19.7759C0.823311 30.6978 9.6773 39.5518 20.5992 39.5518ZM24.6012 11.7276C23.5615 11.6812 23.2485 11.6696 20.605 11.6696C17.9615 11.6696 17.6485 11.6812 16.6088 11.7276C15.6465 11.7701 15.1209 11.9324 14.7731 12.0677C14.3132 12.2455 13.9847 12.458 13.6368 12.8058C13.2929 13.1498 13.0764 13.4821 12.8987 13.9421C12.7634 14.2899 12.6011 14.8116 12.5586 15.7778C12.5123 16.8174 12.5006 17.1304 12.5006 19.774C12.5006 22.4136 12.5123 22.7266 12.5586 23.7701C12.6011 24.7324 12.7634 25.258 12.8987 25.6058C13.0764 26.0658 13.289 26.3943 13.6368 26.7421C13.9808 27.086 14.3132 27.3025 14.7731 27.4802C15.1209 27.6155 15.6427 27.7779 16.6088 27.8204C17.6485 27.8667 17.9615 27.8783 20.605 27.8783C23.2446 27.8783 23.5577 27.8667 24.6012 27.8204C25.5634 27.7779 26.0891 27.6155 26.4369 27.4802C26.8968 27.3025 27.2253 27.0899 27.5732 26.7421C27.9171 26.3981 28.1335 26.0658 28.3113 25.6058C28.4465 25.258 28.6088 24.7362 28.6513 23.7701C28.6977 22.7305 28.7094 22.4174 28.7094 19.774C28.7094 17.1343 28.6977 16.8213 28.6513 15.7778C28.6088 14.8155 28.4465 14.2899 28.3113 13.9421C28.1335 13.4821 27.921 13.1537 27.5732 12.8058C27.2291 12.4619 26.8968 12.2455 26.4369 12.0677C26.0891 11.9324 25.5673 11.7701 24.6012 11.7276ZM16.5277 9.94595C17.5828 9.89956 17.919 9.88794 20.605 9.88794C23.291 9.88794 23.6272 9.89956 24.6861 9.94974C25.7374 9.99613 26.4562 10.1662 27.0862 10.4097C27.7354 10.6608 28.288 11.001 28.8369 11.5498C29.3896 12.0986 29.7258 12.6512 29.9692 13.3083C30.2127 13.9343 30.3828 14.6571 30.4291 15.7082C30.4755 16.7634 30.4871 17.0995 30.4871 19.7855C30.4871 22.4715 30.4755 22.8078 30.4291 23.8628C30.3828 24.9141 30.2127 25.6329 29.9692 26.2629C29.718 26.9121 29.3779 27.4647 28.8292 28.0136C28.2804 28.5624 27.7277 28.9024 27.0784 29.1537C26.4524 29.3972 25.7296 29.5672 24.6785 29.6136C23.6233 29.6599 23.2871 29.6716 20.6011 29.6716C17.9151 29.6716 17.5789 29.6599 16.5238 29.6136C15.4726 29.5672 14.7538 29.3972 14.1238 29.1537C13.4745 28.9024 12.9219 28.5624 12.3731 28.0136C11.8204 27.4647 11.4842 26.9121 11.2291 26.259C10.9856 25.6329 10.8156 24.9102 10.7693 23.8589C10.7229 22.8039 10.7113 22.4677 10.7113 19.7816C10.7113 17.0957 10.7229 16.7595 10.7693 15.7005C10.8156 14.6493 10.9856 13.9305 11.2291 13.3005C11.4842 12.6512 11.8204 12.0986 12.3731 11.5498C12.9219 10.9971 13.4745 10.6608 14.1277 10.4058C14.7538 10.1623 15.4765 9.99226 16.5277 9.94595ZM20.605 14.6995C17.7991 14.6995 15.5228 16.9758 15.5228 19.7816C15.5228 22.5874 17.7991 24.8637 20.605 24.8637C23.4107 24.8637 25.687 22.5874 25.687 19.7816C25.687 16.9758 23.4107 14.6995 20.605 14.6995ZM20.605 23.0782C18.7846 23.0782 17.3083 21.6019 17.3083 19.7816C17.3083 17.9613 18.7846 16.485 20.605 16.485C22.4252 16.485 23.9015 17.9613 23.9015 19.7816C23.9015 21.6019 22.4252 23.0782 20.605 23.0782ZM25.888 15.6851C26.5412 15.6851 27.0745 15.1556 27.0745 14.4986C27.0745 13.8454 26.5412 13.3121 25.888 13.3121C25.2348 13.3121 24.7015 13.8416 24.7015 14.4986C24.7015 15.1518 25.231 15.6851 25.888 15.6851Z" fill="white"/>
</svg>
