<svg width="91" height="35" viewBox="0 0 91 35" fill="none" xmlns="http://www.w3.org/2000/svg">
<path fill-rule="evenodd" clip-rule="evenodd" d="M80.1593 29.1509L80.1575 29.151C68.902 29.6129 48.8645 30.4352 44.9159 30.4352C41.1953 30.4352 40.8158 28.3348 39.8931 23.2279L39.8931 23.2277C39.8434 22.9528 39.7921 22.6691 39.7387 22.3765C39.6282 21.7666 39.5223 21.0881 39.4102 20.3699L39.4102 20.3696C38.6742 15.6546 37.6708 9.22596 33.3541 9.22596C30.4303 9.22596 27.452 11.6158 24.7874 14.5292C24.7874 14.5292 24.1095 9.39924 23.2701 6.15064C22.2748 2.30411 20.6562 0 17.6742 0C7.21651 0 0 27.7312 0 32.7146C0 34.1465 1.09853 34.9996 2.77168 34.9996C3.41982 35.0051 4.06714 34.9516 4.70585 34.8397C4.70585 34.8397 5.7518 25.031 8.88966 15.6984C12.1834 5.94308 15.1635 3.71514 16.7766 3.71514C18.6074 3.71514 19.1708 6.50483 19.9144 10.7608C20.183 12.2998 20.3985 13.5991 20.5801 14.6941C21.3493 19.3326 21.5105 20.3047 22.5284 20.3047C23.2146 20.3047 24.2225 19.2626 25.5663 17.8731C25.8624 17.5669 26.1748 17.2439 26.5037 16.9114C29.0557 14.3293 30.3589 13.2515 31.7804 13.2515C33.3165 13.2515 33.8761 15.5842 35.0253 22.2661C36.9614 33.6133 39.1566 33.72 44.0727 33.72L86.324 33.3487C86.6939 33.3525 88.4722 28.8452 87.845 28.8452C87.6098 28.8452 84.5542 28.9706 80.1593 29.1509ZM45.1769 25.5592C47.6181 25.5592 49.4809 24.3538 50.6658 23.1066C50.6395 24.5062 51.3268 25.3916 52.6544 25.3916C54.1717 25.3916 55.3209 24.4395 55.8974 23.9063C56.211 25.3383 57.9349 25.5497 58.7724 25.2393C58.9154 24.6001 59.1257 23.9783 59.3996 23.3846C59.9629 22.1278 61.2774 20.7739 63.5308 20.4216C63.1535 21.3442 62.8618 22.3005 62.6595 23.2779C62.1863 25.7534 65.711 25.5097 65.6753 25.1384C65.5185 23.5438 66.5874 20.5221 67.5395 17.8308C67.8756 16.8806 68.1972 15.9717 68.4451 15.1812C68.5127 14.9641 68.1615 14.7508 66.4677 14.8803C65.341 14.9679 64.9974 15.164 64.9974 15.164C65.0293 15.7353 64.9317 16.3732 64.5129 17.7233C64.4678 17.8661 64.4228 18.0051 64.3777 18.1423C62.9938 18.2279 61.3469 18.8144 60.1864 20.0941C61.7544 16.7541 61.3882 14.5718 59.6625 14.5718C59.117 14.5674 58.5788 14.6981 58.0945 14.9527C58.0945 14.9527 58.2522 15.802 58.0419 17.4986C57.518 20.8405 55.3209 22.8533 54.0665 22.8533C52.968 22.8533 54.275 19.7247 55.6345 16.9159C55.8974 16.3847 51.9221 16.7027 51.9221 17.2339C51.3474 20.2026 48.9945 23.0666 46.9026 23.0666C46.1703 23.0666 45.5881 22.6419 45.5881 21.6346C45.5881 19.4067 48.1495 16.9159 50.7127 16.9159C51.1127 16.9159 51.3888 14.4766 48.6978 14.4766C45.2539 14.4766 41.9282 17.4796 41.9282 21.9526C41.9357 23.9692 42.9817 25.5592 45.1769 25.5592ZM50.7202 22.4839C50.7202 22.5086 50.7202 22.5315 50.7109 22.5543C50.6902 22.5391 50.6864 22.5182 50.7202 22.4839ZM85.7533 16.3859C85.4397 16.2792 86.0144 14.3179 88.0537 14.3179C89.832 14.3179 90.9831 15.6965 91 17.8254C91 21.5368 87.4434 25.4614 83.3122 25.4614C80.7057 25.4614 79.8626 23.8276 79.7668 22.0928C77.8289 23.8238 74.8262 25.4081 71.8086 25.4081C69.666 25.4081 68.4679 24.5131 68.4679 23.0811C68.4679 21.0245 70.7344 20.0191 72.9597 19.2574C75.6844 18.311 76.075 18.0559 76.075 17.5798C76.075 17.2618 75.7595 17.1037 75.3539 17.1037C73.1061 17.1037 70.7119 18.9927 70.7119 18.9927C69.8312 18.7795 69.3148 17.8769 69.4556 16.9248C69.6171 15.8451 71.6133 14.4245 75.168 14.4245C77.6261 14.4245 79.2335 15.4395 79.2335 17.1894C79.2335 19.1231 76.979 20.0083 75.0741 20.7562C75.0206 20.7772 74.9674 20.7981 74.9145 20.8189C74.7569 20.8808 74.607 20.9391 74.4648 20.9944C73.0629 21.5398 72.402 21.7969 72.402 22.3899C72.402 22.7022 72.6104 22.8926 73.1324 22.8926C73.7052 22.8926 76.0318 22.5346 78.3584 20.6589C79.5819 19.6724 80.2033 18.9325 80.6869 18.3565C81.149 17.8062 81.4853 17.4056 82.101 17.0828C83.2934 16.4373 84.8257 16.6486 84.9177 17.0295C84.9248 17.0526 84.8338 17.1569 84.6835 17.3291C84.0784 18.0224 82.5122 19.817 82.5122 21.8548C82.5122 22.6507 82.7751 23.2334 83.714 23.2334C85.4416 23.2334 87.2706 21.4758 87.3739 19.1432C87.4716 17.0752 86.3052 16.6079 85.8455 16.4237C85.8104 16.4096 85.7793 16.3972 85.7533 16.3859Z" fill="url(#paint0_linear_301_244)"/>
<defs>
<linearGradient id="paint0_linear_301_244" x1="0" y1="35" x2="90.9389" y2="35" gradientUnits="userSpaceOnUse">
<stop stop-color="#FF994E"/>
<stop offset="1" stop-color="#FF8060"/>
</linearGradient>
</defs>
</svg>
