<svg width="74" height="14" viewBox="0 0 74 14" fill="none" xmlns="http://www.w3.org/2000/svg">
<path fill-rule="evenodd" clip-rule="evenodd" d="M67.0017 0C62.9717 0 59.9843 2.88235 59.9843 7.00002C59.9843 11.1378 62.9621 14 67.0017 14C71.0222 14 74 11.1378 74 7.00002C74 2.88235 71.0222 0 67.0017 0ZM67.0017 11.0373C64.9073 11.0373 63.2994 9.44045 63.2994 7.00002C63.2994 4.5696 64.9073 2.96269 67.0017 2.96269C69.0866 2.96269 70.6844 4.5696 70.6844 7.00002C70.6844 9.4505 69.0866 11.0373 67.0017 11.0373ZM50.6433 0.27028V13.7882H53.7502V3.23297H59.6165V0.27028H50.6433ZM17.8172 7.3908C17.8172 3.16267 20.6561 0.27028 25.2221 0.27028H31.4759V13.7782H28.3786V12.0708C27.2968 13.3564 25.8277 13.9991 24.0608 13.9991C20.2392 13.9991 17.8172 11.4181 17.8172 7.3908ZM21.0929 7.3406C21.0929 9.62037 22.6513 11.0967 24.7259 11.0967C26.7905 11.0967 28.3786 9.69067 28.3786 6.82838V3.23297H25.4703C22.8895 3.23297 21.0929 4.5687 21.0929 7.3406ZM43.9934 0.27028V5.61319H38.127V0.27028H35.0298V13.7882H38.127V8.57589H43.9934V13.7882H47.0902V0.27028H43.9934ZM7.55381 6.71795L11.157 0.270298H15.0977V13.7882H11.9214V4.65911L9.19164 9.48981H5.90605L3.17638 4.65911V13.7882H0V0.270298H3.94069L7.55381 6.71795Z" fill="#FF644B"/>
</svg>
