<svg width="57" height="62" viewBox="0 0 57 62" fill="none" xmlns="http://www.w3.org/2000/svg">
<path d="M35.9901 38.1004L35.3403 37.7952C35.3486 37.775 35.3578 37.7553 35.3678 37.736L35.9901 38.1004ZM10.5982 27.2539L10.1025 26.7168L10.5982 27.2539ZM31.729 45.486L31.131 45.0787C31.2569 44.8735 31.4747 44.7503 31.7111 44.7503L31.729 45.486ZM35.9857 38.1111L36.0036 38.8468C35.7634 38.8468 35.5365 38.7196 35.4015 38.509C35.2664 38.2985 35.2416 38.0336 35.3358 37.8058L35.9857 38.1111ZM35.3678 37.736C37.8224 33.0408 35.2571 27.2877 30.1557 24.2672C25.1335 21.2936 17.7693 21.1209 11.0938 27.7909L10.1025 26.7168C17.2109 19.6142 25.2491 19.688 30.8301 22.9924C36.3319 26.25 39.5706 32.8065 36.6125 38.4647L35.3678 37.736ZM31.7111 44.7503C32.1805 44.7503 32.7475 44.8022 33.5085 44.5946C34.2563 44.3905 35.2144 43.9221 36.32 42.8175L37.3113 43.8917C36.0515 45.1504 34.8908 45.7479 33.8988 46.0187C32.9199 46.2858 32.1263 46.2217 31.7468 46.2217L31.7111 44.7503ZM36.32 42.8175C37.3555 41.7828 37.5194 40.7317 37.3374 40.0186C37.1509 39.2878 36.6101 38.8468 36.0036 38.8468L35.9679 37.3754C37.3138 37.3754 38.3705 38.3744 38.7022 39.6745C39.0385 40.9923 38.6411 42.563 37.3113 43.8917L36.32 42.8175ZM35.3358 37.8058L35.3403 37.7952L36.6401 38.4056L36.6357 38.4164L35.3358 37.8058ZM11.0938 27.7909C6.84442 32.0369 5.29778 36.4547 5.46162 40.3467C5.62591 44.2494 7.51295 47.7206 10.3079 50.0746C13.1036 52.4291 16.7855 53.6466 20.5115 53.0602C24.2251 52.4757 28.0577 50.0861 31.131 45.0787L32.3269 45.8934C29.0735 51.1943 24.9193 53.8601 20.757 54.5153C16.607 55.1684 12.524 53.8098 9.43659 51.2095C6.34846 48.6087 4.23426 44.7464 4.0502 40.374C3.86569 35.9908 5.62356 31.192 10.1025 26.7168L11.0938 27.7909Z" fill="#0E0C1E"/>
<path d="M21.688 15.5344C21.688 17.675 25.646 18.2341 29.9166 22.1799C29.3958 23.2184 27.7293 25.6273 25.2294 26.9564C22.1046 28.6179 15.0217 26.3483 12.2094 21.7794C9.39707 17.2106 16.7117 8.40251 21.688 10.7579C25.2294 12.434 21.688 13.3686 21.688 15.5344Z" fill="#FFB800"/>
<path d="M30.9465 29.6404C32.3853 31.2266 29.8281 34.2967 29.3156 40.0859C29.3156 42.0744 33.2533 41.1727 35.9989 40.4802C39.4309 39.6146 43.1539 33.1804 42.1671 27.9079C41.1804 22.6355 33.051 17.7873 30.9465 22.8715C29.449 26.4898 29.491 28.0355 30.9465 29.6404Z" fill="#FFB800"/>
<path d="M19.8915 19.2856C15.4578 14.3326 16.9075 10.1025 18.1866 8.60662C19.4657 7.11068 31.6234 20.6922 30.0759 21.8884C28.5285 23.0846 24.3252 24.2386 19.8915 19.2856Z" fill="#DA5763" stroke="#231F20" stroke-width="2" stroke-linecap="round" stroke-linejoin="round"/>
<path d="M41.5634 17.2743C49.3756 25.9013 46.2391 33.9012 43.6944 36.8227C41.1496 39.7443 19.7278 16.0881 22.7454 13.6887C25.763 11.2893 33.7512 8.64721 41.5634 17.2743Z" fill="#FF7682" stroke="#231F20" stroke-width="2" stroke-linecap="round" stroke-linejoin="round"/>
<path d="M40.9525 24.0407C40.3284 22.9595 38.6677 24.0646 38.0386 24.8233C38.1514 22.9198 36.6423 23.1172 36.0219 23.9082C35.0915 25.0945 36.3153 28.0959 37.436 28.003C38.5566 27.9102 41.7327 25.3921 40.9525 24.0407Z" fill="#DA5763" stroke="#231F20" stroke-width="2" stroke-linecap="round" stroke-linejoin="round"/>
<path d="M9.57123 26.1423C10.8651 25.6304 15.8545 27.6046 13.9813 30.9629" stroke="#231F20" stroke-width="2" stroke-linecap="round" stroke-linejoin="round"/>
<path d="M25.8618 35.1852C25.1726 33.9878 22.8011 30.5336 19.1402 33.3442" stroke="#231F20" stroke-width="2" stroke-linecap="round" stroke-linejoin="round"/>
<path d="M14.9732 42.0865C13.4607 43.5714 11.7618 44.7169 10.0377 43.7916C8.31356 42.8662 8.05265 40.7459 8.7285 38.7384C10.0992 34.6598 17.8888 39.2292 14.9732 42.0865Z" fill="#231F20"/>
<path d="M14.3043 40.6915C12.4082 44.5502 7.9691 42.955 10.1021 38.6154C10.5014 37.804 14.7036 39.8801 14.3043 40.6915Z" fill="#FFA8A8"/>
</svg>
