<svg width="42" height="43" viewBox="0 0 42 43" fill="none" xmlns="http://www.w3.org/2000/svg">
<g clip-path="url(#clip0_77_807)">
<g style="mix-blend-mode:multiply">
<g style="mix-blend-mode:multiply">
<path d="M22.545 43C33.2273 43 41.8869 41.8825 41.8869 40.5042C41.8869 39.1257 33.2273 38.0083 22.545 38.0083C11.8628 38.0083 3.20309 39.1257 3.20309 40.5042C3.20309 41.8825 11.8628 43 22.545 43Z" fill="#BCBCBC"/>
</g>
</g>
<path d="M32.4864 41.2674L16.39 39.0318C15.8082 39.0327 15.232 38.9181 14.6942 38.6944C14.1564 38.4708 13.6676 38.1425 13.2556 37.7283C12.8435 37.3141 12.5164 36.8221 12.293 36.2805C12.0695 35.7388 11.954 35.158 11.9531 34.5713V9.86236C11.9531 8.67748 12.4198 7.54113 13.2505 6.70333C14.0813 5.86549 15.2081 5.3948 16.3829 5.3948L32.4864 4.3501C33.6613 4.3501 34.788 4.82079 35.6188 5.65862C36.4495 6.49648 36.9162 7.63278 36.9162 8.81765V36.7997C36.9162 37.9846 36.4495 39.121 35.6188 39.9588C34.788 40.7967 33.6613 41.2674 32.4864 41.2674Z" fill="#FFEAC8" stroke="#231F20" stroke-width="2.14765" stroke-miterlimit="10"/>
<path d="M31.5036 28.1532C29.4566 18.8615 21.4808 13.2244 12.6601 14.1265V34.5711C12.6611 35.5666 13.0536 36.521 13.7516 37.2249C14.4495 37.9288 15.3959 38.3247 16.3829 38.3256H16.4819L31.995 40.4649C32.6136 36.3671 32.4468 32.1876 31.5036 28.1532Z" fill="#FFEAC8"/>
<path d="M32.4864 5.06299L16.3687 6.10769C15.3816 6.10863 14.4353 6.50448 13.7373 7.20839C13.0394 7.91231 12.6469 8.86672 12.6459 9.8622V14.1408C21.4666 13.2387 29.4424 18.8758 31.4894 28.1675C32.4331 32.203 32.5999 36.3838 31.9808 40.4827L32.5111 40.5576C33.4898 40.5436 34.4239 40.142 35.1117 39.4397C35.7996 38.7373 36.1861 37.7903 36.1878 36.8031V8.81749C36.1869 7.82567 35.7973 6.87447 35.104 6.17121C34.4106 5.46793 33.4697 5.06957 32.4864 5.06299Z" fill="#F4DAB5"/>
<path d="M27.4557 11.8841H8.98693C8.57603 11.8865 8.17289 11.7713 7.82429 11.552C7.47563 11.3327 7.19569 11.0183 7.017 10.6451C6.83831 10.272 6.76812 9.85538 6.81451 9.44361C6.86096 9.03183 7.02215 8.64182 7.27937 8.31867L12.1369 2.12538C12.3402 1.8648 12.5996 1.65428 12.8954 1.50973C13.1913 1.36518 13.5158 1.2904 13.8445 1.29105H32.3132C32.7241 1.28875 33.1273 1.40391 33.4759 1.62321C33.8245 1.8425 34.1045 2.15694 34.2831 2.5301C34.4618 2.90325 34.5321 3.31986 34.4856 3.73161C34.4392 4.14336 34.278 4.5334 34.0208 4.85656L29.1632 11.0392C28.9605 11.3011 28.7015 11.5133 28.4058 11.6596C28.11 11.806 27.7851 11.8827 27.4557 11.8841Z" fill="#D6AB94" stroke="#231F20" stroke-width="2.14765" stroke-miterlimit="10"/>
<path d="M18.002 14.7544H16.2379C15.3905 14.7544 14.7036 15.4471 14.7036 16.3018V21.8747C14.7036 22.7293 15.3905 23.4221 16.2379 23.4221H18.002C18.8494 23.4221 19.5364 22.7293 19.5364 21.8747V16.3018C19.5364 15.4471 18.8494 14.7544 18.002 14.7544Z" fill="#A0ECFF" stroke="#231F20" stroke-width="2.14765" stroke-miterlimit="10"/>
<path d="M26.2253 14.7544H24.4611C23.6137 14.7544 22.9268 15.4471 22.9268 16.3018V21.8747C22.9268 22.7293 23.6137 23.4221 24.4611 23.4221H26.2253C27.0727 23.4221 27.7597 22.7293 27.7597 21.8747V16.3018C27.7597 15.4471 27.0727 14.7544 26.2253 14.7544Z" fill="#A0ECFF" stroke="#231F20" stroke-width="2.14765" stroke-miterlimit="10"/>
<path d="M18.002 26.7559H16.2379C15.3905 26.7559 14.7036 27.4487 14.7036 28.3033V33.8762C14.7036 34.7308 15.3905 35.4236 16.2379 35.4236H18.002C18.8494 35.4236 19.5364 34.7308 19.5364 33.8762V28.3033C19.5364 27.4487 18.8494 26.7559 18.002 26.7559Z" fill="#A0ECFF" stroke="#231F20" stroke-width="2.14765" stroke-miterlimit="10"/>
<path d="M9.19546 23.3754C9.19546 22.4834 8.47923 21.7603 7.5957 21.7603C6.71217 21.7603 5.99597 22.4834 5.99597 23.3754V38.7855C5.99597 39.6776 6.71217 40.4007 7.5957 40.4007C8.47923 40.4007 9.19546 39.6776 9.19546 38.7855V23.3754Z" fill="#8E5400" stroke="#231F20" stroke-width="2.14765" stroke-linejoin="round"/>
<path d="M26.2253 26.7559H24.4611C23.6137 26.7559 22.9268 27.4487 22.9268 28.3033V33.8762C22.9268 34.7308 23.6137 35.4236 24.4611 35.4236H26.2253C27.0727 35.4236 27.7597 34.7308 27.7597 33.8762V28.3033C27.7597 27.4487 27.0727 26.7559 26.2253 26.7559Z" fill="#A0ECFF" stroke="#231F20" stroke-width="2.14765" stroke-miterlimit="10"/>
<path d="M15.3081 15.0036C23.1566 28.1675 8.41769 33.1306 1.27276 17.7597C-0.682293 13.5489 4.57124 6.58545 8.38943 6.58545C12.2076 6.58545 12.9324 11.0174 15.3081 15.0036Z" fill="#95EA00" stroke="#231F20" stroke-width="2.14765" stroke-linecap="round" stroke-linejoin="round"/>
</g>
<defs>
<clipPath id="clip0_77_807">
<rect width="42" height="43" fill="white"/>
</clipPath>
</defs>
</svg>
