<svg width="44" height="45" viewBox="0 0 44 45" fill="none" xmlns="http://www.w3.org/2000/svg">
<g clip-path="url(#clip0_77_788)">
<path d="M19.0938 14.2345C19.831 18.4191 11.5393 17.7383 8.45466 16.2152C5.37 14.6921 5.00527 10.6114 6.33613 6.57295C10.0765 -4.77705 16.9365 1.98832 19.0938 14.2345Z" fill="#FFA8A8" stroke="#231F20" stroke-width="2.14765" stroke-miterlimit="10"/>
<path d="M26.8501 18.0693C23.036 19.9924 28.5729 26.1463 31.6536 27.6847C34.7344 29.2232 38.2498 27.0463 40.6981 23.5617C47.5968 13.7693 38.0208 12.4078 26.8501 18.0693Z" fill="#FFA8A8" stroke="#231F20" stroke-width="2.14765" stroke-miterlimit="10"/>
<path d="M33.1824 36.9308C28.6272 45.9846 -3.08855 30.3039 1.46277 21.25C6.01409 12.1962 8.67967 0.269254 27.2148 9.43081C46.0564 18.75 37.7298 27.8769 33.1824 36.9308Z" fill="#FFEAC8" stroke="#231F20" stroke-width="2.14765" stroke-miterlimit="10"/>
<path d="M12.1718 22.7382C14.0532 22.7382 15.5784 21.2263 15.5784 19.3612C15.5784 17.4962 14.0532 15.9844 12.1718 15.9844C10.2903 15.9844 8.76508 17.4962 8.76508 19.3612C8.76508 21.2263 10.2903 22.7382 12.1718 22.7382Z" fill="#231F20"/>
<path d="M14.6885 19.0538C14.918 18.5506 14.3664 17.8121 13.4565 17.4043C12.5466 16.9964 11.6229 17.0738 11.3933 17.577C11.1638 18.0803 11.7154 18.8188 12.6253 19.2266C13.5352 19.6344 14.4589 19.5571 14.6885 19.0538Z" fill="white"/>
<path d="M28.084 30.6535C29.9783 30.6535 31.5139 29.1313 31.5139 27.2535C31.5139 25.3757 29.9783 23.8535 28.084 23.8535C26.1897 23.8535 24.654 25.3757 24.654 27.2535C24.654 29.1313 26.1897 30.6535 28.084 30.6535Z" fill="#231F20"/>
<path d="M30.0082 26.7997C30.2777 26.3115 29.7815 25.528 28.8999 25.0498C28.0182 24.5715 27.0851 24.5796 26.8155 25.0678C26.546 25.556 27.0422 26.3395 27.9238 26.8177C28.8055 27.296 29.7387 27.288 30.0082 26.7997Z" fill="white"/>
<path d="M27.2497 39.3848C24.2582 45.3194 -0.0194054 33.3155 2.96825 27.3733C5.9559 21.431 13.8092 19.3156 20.5178 22.631C27.2264 25.9463 30.2374 33.4502 27.2497 39.3848Z" fill="#FFEAC8" stroke="#231F20" stroke-width="2.14765" stroke-miterlimit="10"/>
<path d="M6.6427 31.6541C11.423 36.8425 15.9743 32.0618 19.0163 25.2964C15.3729 32.4348 15.1982 37.6809 22.551 38.7579" stroke="#231F20" stroke-width="2.14765" stroke-miterlimit="10" stroke-linecap="round"/>
<path d="M24.7703 25.2656C24.1302 26.5387 19.2025 25.3887 19.2025 25.3887C19.2025 25.3887 15.3224 22.1772 15.951 20.9041C16.5796 19.631 19.0822 19.581 21.5189 20.7848C23.9556 21.9887 25.4222 23.9964 24.7703 25.2656Z" fill="#965B42" stroke="#231F20" stroke-width="2.14765" stroke-miterlimit="10"/>
<path d="M11.5665 9.96143L15.1129 9.98829" stroke="#231F20" stroke-width="2.14765" stroke-miterlimit="10" stroke-linecap="round"/>
<path d="M34.6879 21.7384L31.9407 18.1846" stroke="#231F20" stroke-width="2.14765" stroke-miterlimit="10" stroke-linecap="round"/>
<path d="M8.28786 33.0656C12.455 35.7117 16.3274 31.281 19.0162 25.2964C15.9122 31.4117 15.3185 36.1348 19.8349 38.0387C20.223 38.1964 17.5728 46.7964 10.3947 43.2463C3.21659 39.6964 8.01625 32.8925 8.28786 33.0656Z" fill="#FFA8A8" stroke="#231F20" stroke-width="2.14765" stroke-miterlimit="10"/>
<path opacity="0.5" d="M31.7429 15.6037C31.3548 16.3921 18.1626 9.86903 18.5506 9.06519C18.9386 8.26135 22.2211 9.0998 25.8645 10.8998C29.508 12.6998 32.1387 14.8152 31.7429 15.6037Z" fill="white"/>
<path opacity="0.2" d="M15.5397 41.6461C15.1517 42.4153 13.2117 42.2768 11.2367 41.2999C9.26172 40.323 7.97357 38.8884 8.3732 38.0999C8.77283 37.3115 15.9355 40.8576 15.5397 41.6461Z" fill="white"/>
</g>
<defs>
<clipPath id="clip0_77_788">
<rect width="44" height="45" fill="white"/>
</clipPath>
</defs>
</svg>
