<svg width="32" height="32" viewBox="0 0 32 32" fill="none" xmlns="http://www.w3.org/2000/svg">
<path fill-rule="evenodd" clip-rule="evenodd" d="M16 32C24.8365 32 32 24.8365 32 16C32 7.16347 24.8365 0 16 0C7.16347 0 0 7.16347 0 16C0 24.8365 7.16347 32 16 32ZM19.2379 9.4884C18.3967 9.45087 18.1435 9.44147 16.0047 9.44147C13.8659 9.44147 13.6127 9.45087 12.7715 9.4884C11.9929 9.5228 11.5677 9.65407 11.2863 9.76353C10.9142 9.9074 10.6484 10.0793 10.367 10.3607C10.0887 10.6391 9.9136 10.9079 9.7698 11.2801C9.66033 11.5615 9.529 11.9836 9.4946 12.7653C9.45713 13.6064 9.44773 13.8597 9.44773 15.9985C9.44773 18.1341 9.45713 18.3873 9.4946 19.2316C9.529 20.0101 9.66033 20.4354 9.7698 20.7168C9.9136 21.0889 10.0856 21.3547 10.367 21.6361C10.6453 21.9144 10.9142 22.0895 11.2863 22.2333C11.5677 22.3428 11.9899 22.4741 12.7715 22.5085C13.6127 22.546 13.8659 22.5554 16.0047 22.5554C18.1403 22.5554 18.3936 22.546 19.2379 22.5085C20.0164 22.4741 20.4417 22.3428 20.7231 22.2333C21.0952 22.0895 21.3609 21.9175 21.6424 21.6361C21.9207 21.3578 22.0957 21.0889 22.2396 20.7168C22.349 20.4354 22.4803 20.0133 22.5147 19.2316C22.5523 18.3905 22.5617 18.1372 22.5617 15.9985C22.5617 13.8628 22.5523 13.6095 22.5147 12.7653C22.4803 11.9867 22.349 11.5615 22.2396 11.2801C22.0957 10.9079 21.9238 10.6422 21.6424 10.3607C21.3641 10.0825 21.0952 9.9074 20.7231 9.76353C20.4417 9.65407 20.0195 9.5228 19.2379 9.4884ZM12.7059 8.04693C13.5595 8.0094 13.8315 8 16.0047 8C18.1779 8 18.4499 8.0094 19.3066 8.05C20.1571 8.08753 20.7387 8.22513 21.2484 8.42213C21.7737 8.62533 22.2208 8.90053 22.6649 9.34453C23.112 9.78853 23.384 10.2357 23.581 10.7673C23.778 11.2738 23.9156 11.8585 23.9531 12.709C23.9906 13.5627 24 13.8347 24 16.0078C24 18.1809 23.9906 18.453 23.9531 19.3066C23.9156 20.1571 23.778 20.7387 23.581 21.2484C23.3777 21.7737 23.1026 22.2208 22.6586 22.6649C22.2146 23.1089 21.7675 23.384 21.2421 23.5873C20.7356 23.7843 20.1509 23.9218 19.3004 23.9593C18.4467 23.9969 18.1747 24.0063 16.0015 24.0063C13.8284 24.0063 13.5564 23.9969 12.7027 23.9593C11.8523 23.9218 11.2707 23.7843 10.761 23.5873C10.2357 23.384 9.78853 23.1089 9.34453 22.6649C8.8974 22.2208 8.62533 21.7737 8.419 21.2453C8.222 20.7387 8.0844 20.154 8.04693 19.3035C8.0094 18.4499 8 18.1779 8 16.0047C8 13.8315 8.0094 13.5595 8.04693 12.7027C8.0844 11.8523 8.222 11.2707 8.419 10.761C8.62533 10.2357 8.8974 9.78853 9.34453 9.34453C9.78853 8.8974 10.2357 8.62533 10.7641 8.419C11.2707 8.222 11.8554 8.0844 12.7059 8.04693ZM16.0047 11.8929C13.7345 11.8929 11.8929 13.7345 11.8929 16.0047C11.8929 18.2747 13.7345 20.1164 16.0047 20.1164C18.2747 20.1164 20.1164 18.2747 20.1164 16.0047C20.1164 13.7345 18.2747 11.8929 16.0047 11.8929ZM16.0047 18.6718C14.5319 18.6718 13.3375 17.4774 13.3375 16.0047C13.3375 14.5319 14.5319 13.3375 16.0047 13.3375C17.4774 13.3375 18.6718 14.5319 18.6718 16.0047C18.6718 17.4774 17.4774 18.6718 16.0047 18.6718ZM20.279 12.6903C20.8075 12.6903 21.2389 12.2619 21.2389 11.7303C21.2389 11.2019 20.8075 10.7704 20.279 10.7704C19.7505 10.7704 19.3191 11.1988 19.3191 11.7303C19.3191 12.2588 19.7475 12.6903 20.279 12.6903Z" fill="#A8B0C2"/>
</svg>
