<svg width="32" height="32" viewBox="0 0 32 32" fill="none" xmlns="http://www.w3.org/2000/svg">
<path fill-rule="evenodd" clip-rule="evenodd" d="M16 32C24.8365 32 32 24.8365 32 16C32 7.16347 24.8365 0 16 0C7.16347 0 0 7.16347 0 16C0 24.8365 7.16347 32 16 32ZM24.4997 10.0009C25.2 10.0009 25.3001 10.3011 25.2 10.8015C25.0819 11.493 24.0881 13.1127 23.3353 14.3398C22.8133 15.1906 22.4071 15.8526 22.4891 15.8854C22.289 16.2857 22.289 16.5859 22.4891 16.8861C22.5891 17.0363 22.8392 17.2865 23.1268 17.5741C23.4144 17.8619 23.7395 18.1871 23.9896 18.4873C24.7149 19.2669 25.3247 20.1465 25.8002 21.0993C25.9003 21.6998 25.6001 22 24.9999 22H22.7892C22.1657 22 21.8755 21.6667 21.2725 20.9745C20.9949 20.656 20.6512 20.2614 20.1783 19.7883C18.8679 18.5874 18.2677 18.3873 17.9675 18.3873C17.4674 18.3873 17.3673 18.5874 17.3673 19.1879V21.1894C17.3673 21.6897 17.1673 21.99 15.7668 21.99C14.4096 21.9025 13.0925 21.4941 11.9239 20.7982C10.7553 20.1023 9.7684 19.1388 9.04453 17.987C6.23357 14.1741 5.53333 11.2619 5.53333 10.6615C5.53333 10.3612 5.7334 10.061 6.33361 10.061H8.54433C9.14453 10.061 9.3446 10.2611 9.54467 10.8616C10.6451 13.9739 12.4557 16.686 13.1559 16.686C13.456 16.686 13.5561 16.5859 13.5561 15.8854V12.6729C13.4945 11.804 13.1673 11.3943 12.925 11.0908C12.7739 10.9015 12.6557 10.7536 12.6557 10.5613C12.6881 10.4241 12.7641 10.3012 12.8723 10.2109C12.9806 10.1207 13.1152 10.0681 13.2559 10.061H16.6771C17.0773 10.061 17.2773 10.2611 17.2773 10.8616V15.2149C17.2773 15.6152 17.4774 15.8153 17.5774 15.8153C17.8775 15.8153 18.0776 15.6152 18.5777 15.1148C19.6929 13.7481 20.6059 12.2281 21.2887 10.6014C21.3785 10.4144 21.5211 10.2579 21.6989 10.1512C21.8767 10.0445 22.0819 9.9922 22.289 10.0009H24.4997Z" fill="#A8B0C2"/>
</svg>
