<svg width="64" height="36" viewBox="0 0 64 36" fill="none" xmlns="http://www.w3.org/2000/svg">
<path d="M24 27H7" stroke="#231F20" stroke-width="2.14765" stroke-miterlimit="10" stroke-linecap="round"/>
<path d="M14 16L2 16" stroke="#231F20" stroke-width="2.14765" stroke-miterlimit="10" stroke-linecap="round"/>
<path d="M29 6L5 6" stroke="#231F20" stroke-width="2.14765" stroke-miterlimit="10" stroke-linecap="round"/>
<path d="M26.7833 20.4726C25.8701 18.3878 26.5787 15.9738 28.4446 14.6704C31.1718 12.7653 35.159 10.0574 38.2894 8.25C41.4199 6.44264 45.7586 4.34366 48.7721 2.93433C50.8338 1.97009 53.2786 2.56343 54.6276 4.39674C55.7923 5.97976 57.1465 7.91148 58.0788 9.52628C59.0111 11.1411 60.007 13.2797 60.7955 15.0799C61.7087 17.1648 61.0002 19.5787 59.1342 20.8822C56.407 22.7873 52.4199 25.4952 49.2894 27.3026C46.159 29.1099 41.8203 31.2089 38.8068 32.6182C36.745 33.5825 34.3002 32.9891 32.9513 31.1558C31.7865 29.5728 30.4323 27.6411 29.5 26.0263C28.5677 24.4115 27.5719 22.2729 26.7833 20.4726Z" fill="#FFEAC8" stroke="#231F20" stroke-width="2.14765" stroke-miterlimit="10"/>
<path d="M52.2798 2.48205L46.3252 16.0173C45.4182 18.079 43.2447 19.2797 41.0166 18.95L26.4821 16.799" stroke="#231F20" stroke-width="2.14765" stroke-miterlimit="10"/>
<path d="M33.866 31.5885L36.6603 18.4282" stroke="#231F20" stroke-width="2.14765" stroke-miterlimit="10"/>
<path d="M60.7128 16.0885L47.9186 11.9282" stroke="#231F20" stroke-width="2.14765" stroke-miterlimit="10"/>
</svg>
