<svg width="21" height="12" viewBox="0 0 21 12" fill="none" xmlns="http://www.w3.org/2000/svg">
<path d="M13.3109 10.1611L17.4355 5.99463L13.3109 1.82819C13.1119 1.62756 13 1.35519 13 1.07114C13 0.787095 13.1119 0.514718 13.3109 0.314094C13.7255 -0.104698 14.3952 -0.104698 14.8098 0.314094L19.6891 5.24295C20.1036 5.66175 20.1036 6.33825 19.6891 6.75705L14.8098 11.6859C14.3952 12.1047 13.7255 12.1047 13.3109 11.6859C12.907 11.2671 12.8963 10.5799 13.3109 10.1611Z" fill="#7E8597"/>
<rect x="9" y="5" width="9" height="2" rx="1" fill="#7E8597"/>
<rect x="19" y="12" width="12" height="2" rx="1" transform="rotate(-90 19 12)" fill="#7E8597"/>
<rect x="4" y="5" width="4" height="2" rx="1" fill="#7E8597"/>
<rect y="5" width="3" height="2" rx="1" fill="#7E8597"/>
</svg>
