<svg width="366" height="178" viewBox="0 0 366 178" fill="none" xmlns="http://www.w3.org/2000/svg">
<path d="M54.72 110.88C50 110.88 46.56 109.6 44.4 107.04C42.24 104.4 41.16 99.84 41.16 93.36H18.96C13.76 93.36 9.88 92.12 7.32 89.64C4.84 87.16 3.6 83.96 3.6 80.04C3.6 75.8 4.68 72.04 6.84 68.76C12.52 59.88 18.92 50.28 26.04 39.96C30.2 33.88 35.92 30.84 43.2 30.84L53.64 30.96C59.48 30.96 63.44 31.96 65.52 33.96C67.6 35.88 68.64 39.28 68.64 44.16V75.84C72.08 76.16 74.44 77 75.72 78.36C77 79.72 77.64 81.88 77.64 84.84C77.64 87.88 76.96 90 75.6 91.2C74.24 92.32 71.92 93 68.64 93.24C68.64 99.56 67.48 104.08 65.16 106.8C62.84 109.52 59.36 110.88 54.72 110.88ZM41.04 76.32L41.4 50.76L25.32 76.32H41.04Z" fill="#B4EEFF"/>
<path d="M44.4 107.04L43.2391 107.99C43.2439 107.996 43.2487 108.002 43.2536 108.007L44.4 107.04ZM41.16 93.36H42.66C42.66 92.5316 41.9884 91.86 41.16 91.86V93.36ZM7.32 89.64L6.25934 90.7007C6.26495 90.7063 6.27061 90.7118 6.27631 90.7174L7.32 89.64ZM6.84 68.76L8.09276 69.585C8.09641 69.5794 8.10003 69.5739 8.10361 69.5683L6.84 68.76ZM26.04 39.96L27.2747 40.8118L27.278 40.807L26.04 39.96ZM43.2 30.84L43.2172 29.3401C43.2115 29.34 43.2057 29.34 43.2 29.34V30.84ZM53.64 30.96L53.6228 32.4599C53.6285 32.46 53.6343 32.46 53.64 32.46V30.96ZM65.52 33.96L64.4803 35.0412C64.4877 35.0483 64.4951 35.0553 64.5026 35.0622L65.52 33.96ZM68.64 75.84H67.14C67.14 76.6146 67.7298 77.2618 68.5011 77.3335L68.64 75.84ZM75.72 78.36L76.8123 77.332L76.8123 77.3319L75.72 78.36ZM75.6 91.2L76.5536 92.3579C76.5667 92.3471 76.5797 92.336 76.5924 92.3248L75.6 91.2ZM68.64 93.24L68.5305 91.744C67.7467 91.8014 67.14 92.454 67.14 93.24H68.64ZM65.16 106.8L66.3013 107.773L65.16 106.8ZM41.04 76.32V77.82C41.8602 77.82 42.5283 77.1612 42.5399 76.3411L41.04 76.32ZM41.4 50.76L42.8999 50.7811C42.9093 50.1089 42.4704 49.5125 41.8258 49.3217C41.1812 49.1309 40.4883 49.3922 40.1304 49.9613L41.4 50.76ZM25.32 76.32L24.0504 75.5213C23.7596 75.9835 23.7429 76.5672 24.007 77.0452C24.271 77.5232 24.7739 77.82 25.32 77.82V76.32ZM54.72 109.38C50.2538 109.38 47.319 108.174 45.5464 106.073L43.2536 108.007C45.801 111.026 49.7462 112.38 54.72 112.38V109.38ZM45.5609 106.09C43.7453 103.871 42.66 99.7637 42.66 93.36H39.66C39.66 99.9163 40.7347 104.929 43.2391 107.99L45.5609 106.09ZM41.16 91.86H18.96V94.86H41.16V91.86ZM18.96 91.86C13.9718 91.86 10.538 90.669 8.36369 88.5626L6.27631 90.7174C9.22203 93.571 13.5482 94.86 18.96 94.86V91.86ZM8.38066 88.5793C6.21621 86.4149 5.1 83.6134 5.1 80.04H2.1C2.1 84.3066 3.46379 87.9051 6.25934 90.7007L8.38066 88.5793ZM5.1 80.04C5.1 76.0688 6.10696 72.6004 8.09276 69.585L5.58724 67.935C3.25304 71.4795 2.1 75.5312 2.1 80.04H5.1ZM8.10361 69.5683C13.7727 60.7054 20.1628 51.1201 27.2747 40.8118L24.8053 39.1082C17.6772 49.4399 11.2673 59.0546 5.57639 67.9517L8.10361 69.5683ZM27.278 40.807C31.1624 35.1298 36.4222 32.34 43.2 32.34V29.34C35.4178 29.34 29.2376 32.6302 24.802 39.113L27.278 40.807ZM43.1828 32.3399L53.6228 32.4599L53.6572 29.4601L43.2172 29.3401L43.1828 32.3399ZM53.64 32.46C59.4328 32.46 62.8544 33.4778 64.4803 35.0412L66.5597 32.8787C64.0256 30.4422 59.5272 29.46 53.64 29.46V32.46ZM64.5026 35.0622C66.1141 36.5497 67.14 39.4129 67.14 44.16H70.14C70.14 39.1471 69.0859 35.2103 66.5374 32.8578L64.5026 35.0622ZM67.14 44.16V75.84H70.14V44.16H67.14ZM68.5011 77.3335C71.8512 77.6452 73.738 78.4427 74.6277 79.388L76.8123 77.3319C75.1421 75.5573 72.3088 74.6748 68.7789 74.3464L68.5011 77.3335ZM74.6277 79.388C75.5289 80.3456 76.14 82.0481 76.14 84.84H79.14C79.14 81.7119 78.4711 79.0944 76.8123 77.332L74.6277 79.388ZM76.14 84.84C76.14 87.7295 75.4819 89.3037 74.6076 90.0752L76.5924 92.3248C78.4381 90.6963 79.14 88.0305 79.14 84.84H76.14ZM74.6464 90.0421C73.6577 90.8563 71.7315 91.5098 68.5305 91.744L68.7495 94.736C72.1085 94.4902 74.8223 93.7837 76.5536 92.3579L74.6464 90.0421ZM67.14 93.24C67.14 99.45 65.986 103.52 64.0188 105.827L66.3013 107.773C68.974 104.64 70.14 99.67 70.14 93.24H67.14ZM64.0188 105.827C62.0636 108.119 59.0609 109.38 54.72 109.38V112.38C59.6591 112.38 63.6164 110.921 66.3013 107.773L64.0188 105.827ZM42.5399 76.3411L42.8999 50.7811L39.9002 50.7389L39.5401 76.2989L42.5399 76.3411ZM40.1304 49.9613L24.0504 75.5213L26.5896 77.1187L42.6697 51.5587L40.1304 49.9613ZM25.32 77.82H41.04V74.82H25.32V77.82Z" fill="#231F20"/>
<path d="M60 38.5C56.4 35.3 45.8333 33.1667 41 32.5H55C67 32.5 67 38.5 67 43V67.5C67 54 64.5 42.5 60 38.5Z" fill="#86E3FF"/>
<path d="M136.6 113.72C131.48 113.72 126.84 113.04 122.68 111.68C118.6 110.24 114.88 108 111.52 104.96C108.24 101.92 105.68 97.76 103.84 92.48C102.08 87.2 101.2 81 101.2 73.88C101.2 66.2 102.08 59.64 103.84 54.2C105.6 48.76 108.12 44.52 111.4 41.48C114.68 38.44 118.36 36.24 122.44 34.88C126.52 33.52 131.24 32.84 136.6 32.84C141.8 32.84 146.48 33.64 150.64 35.24C154.8 36.76 158.44 39.12 161.56 42.32C164.76 45.52 167.2 49.8 168.88 55.16C170.64 60.44 171.52 66.68 171.52 73.88C171.52 81.08 170.64 87.32 168.88 92.6C167.12 97.8 164.6 101.92 161.32 104.96C158.12 108 154.44 110.24 150.28 111.68C146.2 113.04 141.64 113.72 136.6 113.72ZM143.08 89.6C144.52 85.2 145.24 79.96 145.24 73.88C145.24 67.72 144.48 62.28 142.96 57.56C141.44 52.84 139.32 50.48 136.6 50.48C134.68 50.48 133 51.68 131.56 54.08C130.2 56.48 129.2 59.44 128.56 62.96C127.92 66.4 127.6 70.04 127.6 73.88C127.6 79.8 128.36 85 129.88 89.48C131.48 93.96 133.72 96.2 136.6 96.2C139.48 96.2 141.64 94 143.08 89.6Z" fill="#B4EEFF"/>
<path d="M122.68 111.68L122.181 113.094C122.192 113.098 122.203 113.102 122.214 113.106L122.68 111.68ZM111.52 104.96L110.5 106.06C110.505 106.064 110.509 106.068 110.514 106.072L111.52 104.96ZM103.84 92.48L102.417 92.9543C102.419 92.9608 102.421 92.9672 102.424 92.9736L103.84 92.48ZM103.84 54.2L105.267 54.6617L103.84 54.2ZM111.4 41.48L110.38 40.3799L111.4 41.48ZM150.64 35.24L150.102 36.64C150.109 36.643 150.117 36.646 150.125 36.6489L150.64 35.24ZM161.56 42.32L160.486 43.3671C160.49 43.3717 160.495 43.3762 160.499 43.3807L161.56 42.32ZM168.88 55.16L167.449 55.6086C167.451 55.6172 167.454 55.6258 167.457 55.6343L168.88 55.16ZM168.88 92.6L170.301 93.0809L170.303 93.0743L168.88 92.6ZM161.32 104.96L160.3 103.86C160.296 103.864 160.291 103.868 160.287 103.872L161.32 104.96ZM150.28 111.68L150.754 113.103C150.76 113.101 150.765 113.099 150.771 113.097L150.28 111.68ZM143.08 89.6L141.654 89.1334L143.08 89.6ZM142.96 57.56L141.532 58.0198L142.96 57.56ZM131.56 54.08L130.274 53.3083C130.267 53.3189 130.261 53.3297 130.255 53.3405L131.56 54.08ZM128.56 62.96L130.035 63.2344L130.036 63.2283L128.56 62.96ZM129.88 89.48L128.46 89.9619C128.462 89.9695 128.465 89.977 128.467 89.9845L129.88 89.48ZM136.6 112.22C131.612 112.22 127.133 111.558 123.146 110.254L122.214 113.106C126.547 114.522 131.348 115.22 136.6 115.22V112.22ZM123.179 110.266C119.295 108.895 115.746 106.761 112.526 103.848L110.514 106.072C114.014 109.239 117.905 111.585 122.181 113.094L123.179 110.266ZM112.54 103.86C109.479 101.023 107.036 97.0917 105.256 91.9864L102.424 92.9736C104.324 98.4283 107.001 102.817 110.5 106.06L112.54 103.86ZM105.263 92.0057C103.566 86.9145 102.7 80.8815 102.7 73.88H99.7C99.7 81.1185 100.594 87.4855 102.417 92.9543L105.263 92.0057ZM102.7 73.88C102.7 66.3066 103.569 59.9113 105.267 54.6617L102.413 53.7383C100.591 59.3687 99.7 66.0934 99.7 73.88H102.7ZM105.267 54.6617C106.97 49.3994 109.373 45.4037 112.42 42.5801L110.38 40.3799C106.867 43.6363 104.23 48.1206 102.413 53.7383L105.267 54.6617ZM112.42 42.5801C115.549 39.6794 119.045 37.5928 122.914 36.303L121.966 33.457C117.675 34.8872 113.811 37.2006 110.38 40.3799L112.42 42.5801ZM122.914 36.303C126.809 35.0048 131.363 34.34 136.6 34.34V31.34C131.117 31.34 126.231 32.0352 121.966 33.457L122.914 36.303ZM136.6 34.34C141.646 34.34 146.139 35.1161 150.102 36.64L151.178 33.84C146.821 32.1639 141.954 31.34 136.6 31.34V34.34ZM150.125 36.6489C154.072 38.091 157.521 40.3266 160.486 43.3671L162.634 41.2728C159.359 37.9134 155.528 35.429 151.155 33.8311L150.125 36.6489ZM160.499 43.3807C163.492 46.3731 165.824 50.4248 167.449 55.6086L170.311 54.7114C168.576 49.1752 166.028 44.6669 162.621 41.2593L160.499 43.3807ZM167.457 55.6343C169.154 60.724 170.02 66.7964 170.02 73.88H173.02C173.02 66.5636 172.126 60.156 170.303 54.6857L167.457 55.6343ZM170.02 73.88C170.02 80.9636 169.154 87.036 167.457 92.1257L170.303 93.0743C172.126 87.604 173.02 81.1964 173.02 73.88H170.02ZM167.459 92.1191C165.761 97.1357 163.36 101.024 160.3 103.86L162.34 106.06C165.84 102.816 168.479 98.4643 170.301 93.0809L167.459 92.1191ZM160.287 103.872C157.242 106.765 153.746 108.893 149.789 110.263L150.771 113.097C155.134 111.587 158.998 109.235 162.353 106.048L160.287 103.872ZM149.806 110.257C145.902 111.558 141.506 112.22 136.6 112.22V115.22C141.774 115.22 146.498 114.522 150.754 113.103L149.806 110.257ZM144.506 90.0666C146.008 85.4772 146.74 80.0718 146.74 73.88H143.74C143.74 79.8482 143.032 84.9228 141.654 89.1334L144.506 90.0666ZM146.74 73.88C146.74 67.6001 145.966 61.9997 144.388 57.1002L141.532 58.0198C142.994 62.5603 143.74 67.8399 143.74 73.88H146.74ZM144.388 57.1002C143.596 54.6405 142.604 52.6479 141.346 51.2476C140.053 49.8088 138.458 48.98 136.6 48.98V51.98C137.462 51.98 138.287 52.3312 139.114 53.2524C139.976 54.2121 140.804 55.7595 141.532 58.0198L144.388 57.1002ZM136.6 48.98C133.934 48.98 131.849 50.6823 130.274 53.3083L132.846 54.8517C134.151 52.6777 135.426 51.98 136.6 51.98V48.98ZM130.255 53.3405C128.792 55.923 127.746 59.0527 127.084 62.6917L130.036 63.2283C130.654 59.8273 131.608 57.037 132.865 54.8195L130.255 53.3405ZM127.085 62.6856C126.427 66.2244 126.1 69.9568 126.1 73.88H129.1C129.1 70.1232 129.413 66.5756 130.035 63.2344L127.085 62.6856ZM126.1 73.88C126.1 79.9245 126.876 85.2933 128.46 89.9619L131.3 88.9981C129.844 84.7067 129.1 79.6755 129.1 73.88H126.1ZM128.467 89.9845C130.123 94.6203 132.719 97.7 136.6 97.7V94.7C134.721 94.7 132.837 93.2997 131.293 88.9755L128.467 89.9845ZM136.6 97.7C140.492 97.7 143.007 94.6468 144.506 90.0666L141.654 89.1334C140.273 93.3532 138.468 94.7 136.6 94.7V97.7Z" fill="#231F20"/>
<path d="M133.5 34.5C144 36.3333 166.5 53 169.5 78C171.5 69 171.5 32 133.5 34.5Z" fill="#86E4FF"/>
<path d="M262.718 155.962C258.447 157.972 254.79 158.278 251.745 156.881C248.667 155.412 245.748 151.746 242.99 145.882L222.902 155.333C218.197 157.547 214.158 158.077 210.786 156.923C207.486 155.735 205.002 153.367 203.333 149.82C201.528 145.983 200.904 142.121 201.462 138.234C202.821 127.781 204.525 116.369 206.574 104C207.75 96.7277 211.632 91.5418 218.219 88.4425L227.717 84.1064C233.001 81.6202 237.01 80.8391 239.744 81.7633C242.443 82.6151 244.832 85.2489 246.909 89.6645L260.396 118.33C263.645 117.155 266.138 116.911 267.875 117.596C269.613 118.282 271.111 119.964 272.371 122.642C273.666 125.393 273.953 127.601 273.233 129.266C272.479 130.858 270.67 132.461 267.804 134.075C270.495 139.793 271.369 144.377 270.428 147.826C269.487 151.275 266.917 153.987 262.718 155.962ZM235.627 130.515L225.071 107.233L221.402 137.207L235.627 130.515Z" fill="#B4EEFF"/>
<path d="M251.745 156.881L251.099 158.235C251.106 158.238 251.113 158.241 251.12 158.245L251.745 156.881ZM242.99 145.882L244.347 145.244C243.994 144.494 243.101 144.172 242.351 144.525L242.99 145.882ZM210.786 156.923L210.278 158.334C210.285 158.337 210.293 158.339 210.3 158.342L210.786 156.923ZM201.462 138.234L202.947 138.447C202.948 138.441 202.949 138.434 202.95 138.427L201.462 138.234ZM206.574 104L208.054 104.245L208.055 104.24L206.574 104ZM218.219 88.4425L217.596 87.0779C217.591 87.0803 217.586 87.0827 217.58 87.0852L218.219 88.4425ZM227.717 84.1064L228.34 85.471C228.345 85.4686 228.35 85.4662 228.355 85.4637L227.717 84.1064ZM239.744 81.7633L239.263 83.1843C239.273 83.1876 239.282 83.1907 239.292 83.1938L239.744 81.7633ZM260.396 118.33L259.039 118.969C259.369 119.67 260.178 120.004 260.906 119.741L260.396 118.33ZM267.875 117.596L268.426 116.201L268.426 116.201L267.875 117.596ZM273.233 129.266L274.589 129.907C274.596 129.892 274.603 129.876 274.61 129.861L273.233 129.266ZM267.804 134.075L267.068 132.768C266.383 133.153 266.112 134.002 266.447 134.713L267.804 134.075ZM270.428 147.826L271.875 148.221L270.428 147.826ZM235.627 130.515L236.265 131.872C237.007 131.523 237.332 130.642 236.993 129.895L235.627 130.515ZM225.071 107.233L226.437 106.614C226.159 106.002 225.508 105.649 224.844 105.751C224.179 105.852 223.664 106.384 223.582 107.051L225.071 107.233ZM221.402 137.207L219.914 137.025C219.847 137.567 220.081 138.102 220.523 138.422C220.966 138.742 221.547 138.797 222.041 138.564L221.402 137.207ZM262.08 154.605C258.038 156.506 254.869 156.664 252.371 155.518L251.12 158.245C254.71 159.892 258.856 159.437 263.357 157.32L262.08 154.605ZM252.392 155.527C249.804 154.293 247.073 151.038 244.347 145.244L241.632 146.521C244.424 152.453 247.53 156.531 251.099 158.235L252.392 155.527ZM242.351 144.525L222.263 153.976L223.541 156.691L243.628 147.239L242.351 144.525ZM222.263 153.976C217.75 156.1 214.136 156.484 211.272 155.504L210.3 158.342C214.181 159.67 218.644 158.995 223.541 156.691L222.263 153.976ZM211.294 155.512C208.414 154.475 206.211 152.415 204.69 149.181L201.976 150.459C203.792 154.319 206.558 156.995 210.278 158.334L211.294 155.512ZM204.69 149.181C202.999 145.588 202.434 142.021 202.947 138.447L199.978 138.021C199.374 142.222 200.056 146.379 201.976 150.459L204.69 149.181ZM202.95 138.427C204.306 127.994 206.008 116.601 208.054 104.245L205.095 103.755C203.043 116.138 201.337 127.567 199.975 138.041L202.95 138.427ZM208.055 104.24C209.153 97.4489 212.725 92.6853 218.858 89.7998L217.58 87.0852C210.539 90.3983 206.347 96.0065 205.094 103.761L208.055 104.24ZM218.842 89.807L228.34 85.471L227.094 82.7419L217.596 87.0779L218.842 89.807ZM228.355 85.4637C233.597 82.9975 237.126 82.4619 239.263 83.1843L240.224 80.3423C236.894 79.2164 232.405 80.2428 227.078 82.7492L228.355 85.4637ZM239.292 83.1938C241.384 83.8537 243.531 86.0077 245.552 90.3031L248.266 89.0259C246.132 84.49 243.502 81.3765 240.195 80.3328L239.292 83.1938ZM245.552 90.3031L259.039 118.969L261.754 117.692L248.266 89.0259L245.552 90.3031ZM260.906 119.741C264.07 118.597 266.117 118.515 267.325 118.991L268.426 116.201C266.159 115.306 263.22 115.714 259.886 116.92L260.906 119.741ZM267.325 118.992C268.548 119.474 269.826 120.755 271.014 123.281L273.729 122.004C272.397 119.173 270.677 117.09 268.426 116.201L267.325 118.992ZM271.014 123.281C272.244 125.895 272.319 127.6 271.856 128.67L274.61 129.861C275.587 127.602 275.087 124.891 273.729 122.004L271.014 123.281ZM271.877 128.624C271.329 129.782 269.865 131.193 267.068 132.768L268.54 135.382C271.475 133.729 273.629 131.935 274.589 129.907L271.877 128.624ZM266.447 134.713C269.09 140.332 269.779 144.507 268.981 147.431L271.875 148.221C272.959 144.248 271.899 139.254 269.161 133.436L266.447 134.713ZM268.981 147.431C268.188 150.338 266.008 152.757 262.08 154.605L263.357 157.32C267.826 155.217 270.786 152.212 271.875 148.221L268.981 147.431ZM236.993 129.895L226.437 106.614L223.705 107.853L234.261 131.134L236.993 129.895ZM223.582 107.051L219.914 137.025L222.891 137.389L226.56 107.416L223.582 107.051ZM222.041 138.564L236.265 131.872L234.988 129.157L220.764 135.85L222.041 138.564Z" fill="#231F20"/>
<path d="M221 94C212.2 96 208.333 104.833 207.5 109C207.5 107.333 207.8 103.1 209 99.5C213 90.5 222 88.5 231.5 84C239.1 80.4 243.667 85.5 245 88.5C246.568 91.9494 250.584 100.856 254.718 110.226C255.107 110.966 255.378 111.573 255.5 112C255.239 111.408 254.979 110.816 254.718 110.226C251.925 104.901 243.073 92.6337 240 90C236.5 87 232 91.5 221 94Z" fill="#86E3FF"/>
</svg>
