<svg width="19" height="19" viewBox="0 0 19 19" fill="none" xmlns="http://www.w3.org/2000/svg">
<path fill-rule="evenodd" clip-rule="evenodd" d="M9.5 19C14.7467 19 19 14.7467 19 9.5C19 4.25331 14.7467 0 9.5 0C4.25331 0 0 4.25331 0 9.5C0 14.7467 4.25331 19 9.5 19ZM14.5467 5.93805C14.9625 5.93805 15.0219 6.1163 14.9625 6.41341C14.8924 6.82397 14.3023 7.78569 13.8553 8.51426C13.5454 9.01942 13.3042 9.41248 13.3529 9.43196C13.2341 9.66961 13.2341 9.8479 13.3529 10.0261C13.4123 10.1153 13.5608 10.2638 13.7315 10.4346C13.9023 10.6055 14.0953 10.7986 14.2438 10.9769C14.6745 11.4397 15.0366 11.962 15.3189 12.5277C15.3783 12.8843 15.2001 13.0625 14.8437 13.0625H13.5311C13.1609 13.0625 12.9886 12.8646 12.6305 12.4536C12.4657 12.2645 12.2617 12.0302 11.9808 11.7493C11.2028 11.0363 10.8464 10.9174 10.6682 10.9174C10.3713 10.9174 10.3119 11.0363 10.3119 11.3928V12.5812C10.3119 12.8783 10.1931 13.0566 9.36154 13.0566C8.5557 13.0046 7.77369 12.7621 7.07984 12.3489C6.38594 11.9357 5.79999 11.3637 5.37019 10.6798C3.70118 8.41585 3.28542 6.68673 3.28542 6.33025C3.28542 6.15196 3.40421 5.97372 3.76058 5.97372H5.0732C5.42957 5.97372 5.54836 6.09255 5.66715 6.44908C6.32051 8.29702 7.39555 9.90731 7.81134 9.90731C7.9895 9.90731 8.04891 9.8479 8.04891 9.43196V7.52455C8.01234 7.00863 7.81807 6.76535 7.67422 6.58516C7.58448 6.47279 7.51434 6.38495 7.51434 6.27079C7.53354 6.18933 7.5787 6.11634 7.64295 6.06274C7.70723 6.00915 7.78715 5.97791 7.87071 5.97372H9.90205C10.1396 5.97372 10.2584 6.09255 10.2584 6.44908V9.03383C10.2584 9.27153 10.3772 9.39035 10.4366 9.39035C10.6148 9.39035 10.7336 9.27153 11.0305 8.97441C11.6927 8.16295 12.2348 7.26041 12.6401 6.29458C12.6935 6.18355 12.7781 6.09061 12.8837 6.02728C12.9893 5.9639 13.1111 5.93287 13.2341 5.93805H14.5467Z" fill="#0077FF"/>
</svg>
