<svg width="19" height="19" viewBox="0 0 19 19" fill="none" xmlns="http://www.w3.org/2000/svg">
<path fill-rule="evenodd" clip-rule="evenodd" d="M19 9.5C19 14.7467 14.7467 19 9.5 19C4.25331 19 0 14.7467 0 9.5C0 4.25331 4.25331 0 9.5 0C14.7467 0 19 4.25331 19 9.5ZM13.7018 6.42356C14.1618 6.36731 14.5959 6.24615 15 6.06442C14.6991 6.52308 14.3165 6.92115 13.8695 7.24135L13.87 7.25323C13.8741 7.34846 13.8781 7.44003 13.8781 7.53558C13.8781 10.5385 11.6084 14 7.45604 14C6.18367 14 4.99297 13.6279 4 12.9832C4.17624 13.0048 4.35678 13.0135 4.53732 13.0135C5.59476 13.0135 6.56624 12.65 7.33998 12.0399C6.35131 12.0226 5.51739 11.3649 5.22939 10.4606C5.36694 10.4865 5.50879 10.4995 5.65494 10.4995C5.86127 10.4995 6.05901 10.4736 6.24814 10.4216C5.21649 10.2139 4.43845 9.29231 4.43845 8.19327V8.16298C4.74365 8.33606 5.09183 8.43558 5.46151 8.44856C4.85541 8.04183 4.45565 7.34519 4.45565 6.55769C4.45565 6.14231 4.56741 5.75288 4.76084 5.41538C5.87417 6.79135 7.53771 7.69567 9.41618 7.79087C9.37749 7.62212 9.356 7.44904 9.356 7.27163C9.356 6.01683 10.3662 5 11.6127 5C12.2618 5 12.8507 5.27692 13.2591 5.71394C13.7749 5.61442 14.2606 5.42404 14.6948 5.16442C14.5272 5.69663 14.1661 6.14231 13.7018 6.42356Z" fill="#40ABE2"/>
</svg>
