<svg width="19" height="19" viewBox="0 0 19 19" fill="none" xmlns="http://www.w3.org/2000/svg">
<path fill-rule="evenodd" clip-rule="evenodd" d="M9.5 19C14.7467 19 19 14.7467 19 9.5C19 4.25331 14.7467 0 9.5 0C4.25331 0 0 4.25331 0 9.5C0 14.7467 4.25331 19 9.5 19Z" fill="#007BB6"/>
<path d="M5.13714 6.98968H6.86286V13H5.13714V6.98968ZM6 4C6.55143 4 7 4.4859 7 5.08322C7 5.68054 6.55143 6.16644 6 6.16644C5.44571 6.16644 5 5.68054 5 5.08322C5 4.4859 5.44571 4 6 4Z" fill="white"/>
<path d="M8.00319 7.14472H9.84811V7.94673H9.87361C10.1285 7.48543 10.7562 7 11.693 7C13.6399 7 14 8.21206 14 9.78894V13H12.0754V10.1508C12.0754 9.47236 12.0627 8.59799 11.0749 8.59799C10.0743 8.59799 9.9214 9.33668 9.9214 10.1025V13H8V7.14472H8.00319Z" fill="white"/>
</svg>
