<svg width="25" height="25" viewBox="0 0 25 25" fill="none" xmlns="http://www.w3.org/2000/svg">
<path d="M10.8172 1.61992C11.6044 0.394391 13.3956 0.39439 14.1828 1.61992L17.0221 6.04051C17.293 6.46218 17.7123 6.7668 18.197 6.89408L23.2786 8.22843C24.6874 8.59836 25.2409 10.3019 24.3186 11.4293L20.9918 15.4957C20.6745 15.8836 20.5143 16.3765 20.5431 16.8768L20.8443 22.1221C20.9279 23.5762 19.4787 24.6291 18.1215 24.1003L13.2261 22.1929C12.7591 22.011 12.2409 22.011 11.7739 22.1929L6.87846 24.1003C5.52129 24.6291 4.07214 23.5762 4.15566 22.1221L4.45693 16.8768C4.48567 16.3765 4.32552 15.8836 4.00818 15.4957L0.681361 11.4293C-0.240938 10.3019 0.312587 8.59836 1.72138 8.22843L6.80302 6.89408C7.28775 6.7668 7.70702 6.46218 7.97786 6.04051L10.8172 1.61992Z" fill="url(#paint0_linear_82_2247)"/>
<defs>
<linearGradient id="paint0_linear_82_2247" x1="5.80769" y1="-1" x2="20.3077" y2="25.7692" gradientUnits="userSpaceOnUse">
<stop stop-color="#FFD500"/>
<stop offset="1" stop-color="#FF9A4C"/>
</linearGradient>
</defs>
</svg>
