<svg width="11" height="12" viewBox="0 0 11 12" fill="none" xmlns="http://www.w3.org/2000/svg">
<path d="M5.9207 1.58017L7.08469 3.39239C7.28782 3.70864 7.60227 3.93711 7.96581 4.03257L10.049 4.57958C10.4012 4.67207 10.5396 5.09796 10.309 5.37979L8.94521 7.04683C8.70721 7.33774 8.5871 7.7074 8.60865 8.08265L8.73215 10.2329C8.75303 10.5965 8.39075 10.8597 8.05145 10.7275L6.04456 9.94557C5.69434 9.80911 5.30566 9.80911 4.95543 9.94557L2.94855 10.7275C2.60925 10.8597 2.24697 10.5965 2.26785 10.2329L2.39135 8.08265C2.41291 7.7074 2.29279 7.33774 2.05479 7.04683L0.690963 5.37979C0.460389 5.09796 0.59877 4.67207 0.950967 4.57958L3.03419 4.03257C3.39773 3.93711 3.71218 3.70864 3.91531 3.39239L5.07931 1.58017C5.27609 1.27379 5.72391 1.27379 5.9207 1.58017Z" stroke="url(#paint0_linear_53_95)"/>
<defs>
<linearGradient id="paint0_linear_53_95" x1="10" y1="10.5" x2="0.5" y2="2.43004e-07" gradientUnits="userSpaceOnUse">
<stop stop-color="#FF9A4C"/>
<stop offset="1" stop-color="#FFD500"/>
</linearGradient>
</defs>
</svg>
