<svg width="24" height="25" viewBox="0 0 24 25" fill="none" xmlns="http://www.w3.org/2000/svg">
<path d="M11.1502 2.26778C11.5412 1.63716 12.4588 1.63716 12.8498 2.26778L15.508 6.55401C15.908 7.1991 16.5377 7.66856 17.2702 7.86776L22.1315 9.18986C22.8235 9.37805 23.0983 10.2119 22.6538 10.7747L19.4073 14.8847C18.9536 15.4591 18.7255 16.1795 18.766 16.9104L19.0562 22.1425C19.0968 22.874 18.3629 23.3993 17.6835 23.1252L13.1227 21.2847C12.4024 20.994 11.5976 20.994 10.8773 21.2847L6.31649 23.1252C5.63709 23.3993 4.90324 22.874 4.94381 22.1425L5.23395 16.9104C5.27448 16.1795 5.04642 15.4591 4.59271 14.8847L1.34616 10.7747C0.90166 10.2119 1.17648 9.37805 1.86845 9.18986L6.72979 7.86776C7.46225 7.66856 8.09197 7.1991 8.49203 6.55401L11.1502 2.26778Z" stroke="url(#paint0_linear_82_2248)" stroke-width="2"/>
<defs>
<linearGradient id="paint0_linear_82_2248" x1="21.6923" y1="22.4231" x2="0.438677" y2="-0.257749" gradientUnits="userSpaceOnUse">
<stop stop-color="#FF9A4C"/>
<stop offset="1" stop-color="#FFD500"/>
</linearGradient>
</defs>
</svg>
