<svg width="11" height="12" viewBox="0 0 11 12" fill="none" xmlns="http://www.w3.org/2000/svg">
<path d="M4.65861 1.30996C5.05219 0.697195 5.94781 0.697195 6.34139 1.30996L7.50538 3.12218C7.6408 3.33301 7.85044 3.48532 8.0928 3.54896L10.176 4.09598C10.8804 4.28094 11.1572 5.13273 10.696 5.6964L9.3322 7.36343C9.17353 7.55737 9.09346 7.80382 9.10783 8.05398L9.23133 10.2043C9.27309 10.9314 8.54852 11.4578 7.86993 11.1934L5.86304 10.4115C5.62956 10.3205 5.37044 10.3205 5.13696 10.4115L3.13007 11.1934C2.45148 11.4578 1.72691 10.9314 1.76867 10.2043L1.89218 8.05398C1.90654 7.80381 1.82647 7.55737 1.6678 7.36343L0.303972 5.6964C-0.157177 5.13273 0.119586 4.28094 0.823981 4.09598L2.9072 3.54896C3.14956 3.48532 3.3592 3.33301 3.49462 3.12218L4.65861 1.30996Z" fill="url(#paint0_linear_53_94)"/>
<defs>
<linearGradient id="paint0_linear_53_94" x1="2.5" y1="-1.92569e-07" x2="9" y2="12" gradientUnits="userSpaceOnUse">
<stop stop-color="#FFD500"/>
<stop offset="1" stop-color="#FF9A4C"/>
</linearGradient>
</defs>
</svg>
