<svg width="41" height="40" viewBox="0 0 41 40" fill="none" xmlns="http://www.w3.org/2000/svg">
<path fill-rule="evenodd" clip-rule="evenodd" d="M20.6875 39.5518C31.6094 39.5518 40.4634 30.6978 40.4634 19.7759C40.4634 8.85399 31.6094 0 20.6875 0C9.76565 0 0.911655 8.85399 0.911655 19.7759C0.911655 30.6978 9.76565 39.5518 20.6875 39.5518ZM31.1931 12.3611C32.0587 12.3611 32.1823 12.7321 32.0587 13.3506C31.9127 14.2053 30.6844 16.2072 29.7539 17.7239C29.1088 18.7755 28.6067 19.5937 28.708 19.6342C28.4607 20.129 28.4607 20.5001 28.708 20.8711C28.8317 21.0567 29.1407 21.3659 29.4962 21.7215C29.8517 22.0771 30.2535 22.4792 30.5626 22.8502C31.4591 23.8137 32.2128 24.9009 32.8005 26.0786C32.9242 26.8208 32.5532 27.1918 31.8114 27.1918H29.0789C28.3083 27.1918 27.9496 26.7799 27.2043 25.9244C26.8612 25.5307 26.4364 25.0429 25.8518 24.4582C24.2322 22.9739 23.4904 22.7265 23.1194 22.7265C22.5012 22.7265 22.3775 22.9739 22.3775 23.7161V26.1899C22.3775 26.8083 22.1303 27.1795 20.3993 27.1795C18.7218 27.0714 17.0939 26.5665 15.6495 25.7064C14.2051 24.8462 12.9853 23.6554 12.0906 22.2318C8.6163 17.519 7.75081 13.9196 7.75081 13.1775C7.75081 12.8064 7.99809 12.4353 8.73995 12.4353H11.4724C12.2142 12.4353 12.4615 12.6827 12.7088 13.4249C14.0689 17.2717 16.3068 20.6238 17.1723 20.6238C17.5432 20.6238 17.6669 20.5001 17.6669 19.6342V15.6636C17.5907 14.5897 17.1863 14.0832 16.8869 13.7081C16.7001 13.4742 16.554 13.2914 16.554 13.0537C16.594 12.8841 16.688 12.7322 16.8218 12.6206C16.9556 12.5091 17.1219 12.4441 17.2959 12.4353H21.5245C22.019 12.4353 22.2663 12.6827 22.2663 13.4249V18.8055C22.2663 19.3003 22.5136 19.5476 22.6372 19.5476C23.0082 19.5476 23.2554 19.3003 23.8736 18.6818C25.252 16.9926 26.3804 15.1138 27.2243 13.1032C27.3353 12.8721 27.5115 12.6786 27.7313 12.5468C27.951 12.4149 28.2047 12.3503 28.4607 12.3611H31.1931Z" fill="white"/>
</svg>
