<?xml version="1.0" standalone="no"?>
<!DOCTYPE svg PUBLIC "-//W3C//DTD SVG 1.1//EN" "http://www.w3.org/Graphics/SVG/1.1/DTD/svg11.dtd" >
<svg xmlns="http://www.w3.org/2000/svg" xmlns:xlink="http://www.w3.org/1999/xlink" version="1.1">
<metadata></metadata>
<defs>
<font id="cofo_sansregular" horiz-adv-x="1331" >
<font-face units-per-em="2048" ascent="1638" descent="-410" />
<missing-glyph horiz-adv-x="440" />
<glyph horiz-adv-x="0" />
<glyph horiz-adv-x="0" />
<glyph unicode="&#xd;" horiz-adv-x="681" />
<glyph unicode=" "  horiz-adv-x="440" />
<glyph unicode="&#x09;" horiz-adv-x="440" />
<glyph unicode="&#xa0;" horiz-adv-x="440" />
<glyph unicode="!" horiz-adv-x="624" d="M205 0v225h219v-225h-219zM215 1393h195l-23 -1010h-149z" />
<glyph unicode="&#x22;" horiz-adv-x="815" d="M164 1413h164l-13 -559h-139zM487 1413h164l-12 -559h-139z" />
<glyph unicode="#" horiz-adv-x="1601" d="M143 293v143h263l34 434h-297v144h310l30 399h148l-31 -399h442l31 399h148l-31 -399h248v-144h-260l-35 -434h295v-143h-305l-35 -436h-148l35 436h-442l-35 -436h-148l35 436h-252zM553 436h442l35 434h-442z" />
<glyph unicode="$" d="M131 369l170 20q27 -115 102.5 -177t194.5 -75v481q-211 37 -324.5 125t-113.5 273q0 92 33.5 162.5t92 119t139.5 76t173 35.5v168h135v-166q197 -14 307.5 -112.5t139.5 -258.5l-166 -16q-23 90 -87.5 154.5t-193.5 76.5v-489q213 -39 332 -121t119 -272 q0 -186 -124 -282.5t-327 -108.5v-166h-135v166q-186 14 -310 108.5t-157 278.5zM332 1022q0 -104 68.5 -154.5t197.5 -76.5v464q-121 -14 -193.5 -76.5t-72.5 -156.5zM733 135q135 10 207 68.5t72 158.5q0 111 -71 161t-208 75v-463z" />
<glyph unicode="%" horiz-adv-x="1716" d="M82 1049q0 178 95 271t243 93q150 0 241 -93t91 -271q0 -184 -91 -280.5t-241 -96.5q-147 0 -242.5 96t-95.5 281zM229 1047q0 -121 54.5 -180.5t136.5 -59.5q84 0 134 59.5t50 180.5q0 115 -50 173t-134 58q-82 0 -136.5 -57.5t-54.5 -173.5zM381 0l801 1393h153 l-800 -1393h-154zM965 356q0 178 95 271.5t243 93.5q150 0 240.5 -93t90.5 -272q0 -184 -90.5 -280t-240.5 -96q-147 0 -242.5 96t-95.5 280zM1112 354q0 -121 54.5 -180t136.5 -59q84 0 134 59t50 180q0 115 -50.5 173.5t-133.5 58.5q-82 0 -136.5 -57.5t-54.5 -174.5z" />
<glyph unicode="&#x26;" horiz-adv-x="1421" d="M92 397q0 160 91 254t233 121q-47 59 -84 132t-37 157q0 147 106.5 249.5t284.5 102.5q174 0 276.5 -95t102.5 -249q0 -160 -103.5 -255t-263.5 -120l346 -362q49 70 84 179.5t50 199.5l153 -25q-23 -147 -72 -265t-110 -198l211 -223h-232l-100 106q-76 -57 -178 -91.5 t-242 -34.5q-236 0 -376 110.5t-140 306.5zM256 406q0 -123 98.5 -199t259.5 -76q96 0 175 22.5t139 61.5l-416 449q-104 -16 -180 -80.5t-76 -177.5zM463 1063q0 -78 39 -138.5t98 -123.5l62 10q113 20 179 82.5t66 171.5q0 94 -61.5 147.5t-159.5 53.5 q-104 0 -163.5 -57.5t-59.5 -145.5z" />
<glyph unicode="'" horiz-adv-x="495" d="M164 1413h168l-13 -559h-143z" />
<glyph unicode="(" horiz-adv-x="876" d="M127 561q0 162 39 305.5t105.5 262t157.5 217t194 174.5l90 -117q-84 -66 -160 -151t-133.5 -189.5t-92 -230t-34.5 -271.5q0 -293 115.5 -508t293.5 -360l-88 -117q-106 76 -196 178.5t-154.5 226t-100.5 271t-36 309.5z" />
<glyph unicode=")" horiz-adv-x="876" d="M164 -307q82 66 157.5 150.5t134 189t93.5 230.5t35 272q0 293 -114 507.5t-296 360.5l88 117q106 -76 196.5 -178.5t155 -226.5t100.5 -271t36 -309t-39 -305.5t-105.5 -262.5t-158 -217t-193.5 -174z" />
<glyph unicode="*" horiz-adv-x="765" d="M76 983l203 109l-203 108l59 105l197 -123l-8 231h118l-8 -231l197 123l59 -105l-203 -108l203 -109l-59 -104l-197 122l8 -231h-118l8 231l-197 -122z" />
<glyph unicode="+" d="M147 580v143h445v446h147v-446h445v-143h-445v-447h-147v447h-445z" />
<glyph unicode="," horiz-adv-x="503" d="M100 -184q70 12 109 47t39 100v37h-109v225h223v-262q0 -123 -67.5 -181t-171.5 -75z" />
<glyph unicode="-" horiz-adv-x="815" d="M102 469v160h611v-160h-611z" />
<glyph unicode="." horiz-adv-x="493" d="M137 0v225h219v-225h-219z" />
<glyph unicode="/" horiz-adv-x="1091" d="M170 -397l596 1872h162l-598 -1872h-160z" />
<glyph unicode="0" horiz-adv-x="1372" d="M123 696q0 340 134 528.5t429 188.5q297 0 430 -188.5t133 -528.5q0 -346 -133 -531t-430 -185q-295 0 -429 185t-134 531zM299 696q0 -266 91 -413.5t296 -147.5q207 0 297 147.5t90 413.5q0 268 -90 414.5t-297 146.5q-205 0 -296 -146t-91 -415z" />
<glyph unicode="1" horiz-adv-x="1044" d="M55 1147l420 246h213v-1229h326v-164h-846v164h348v1059l-381 -213z" />
<glyph unicode="2" horiz-adv-x="1257" d="M102 965q31 197 174.5 322.5t370.5 125.5q113 0 203 -32.5t150.5 -89t93 -135.5t32.5 -169q0 -98 -31.5 -175t-88 -141.5t-133 -124t-164.5 -122.5l-365 -260h811v-164h-1030v193l481 346q152 109 248 205t96 243q0 111 -77.5 190.5t-227.5 79.5q-154 0 -251 -88 t-130 -235z" />
<glyph unicode="3" horiz-adv-x="1323" d="M102 369l168 32q33 -143 136.5 -204.5t250.5 -61.5q172 0 269.5 78t97.5 211q0 70 -30.5 117t-81 75.5t-117 40t-138.5 11.5q-45 0 -91 -6.5t-79 -12.5l-55 142l551 438h-811v164h981v-217l-477 -369q14 2 29.5 2h25.5q217 0 343 -99.5t126 -285.5q0 -104 -40 -187 t-110.5 -139.5t-171 -87t-221.5 -30.5q-209 0 -358 85t-197 304z" />
<glyph unicode="4" horiz-adv-x="1316" d="M78 332v215l710 846h238v-906h209v-155h-209v-332h-168v332h-780zM219 487h639v748z" />
<glyph unicode="5" horiz-adv-x="1277" d="M111 348l165 33q27 -123 127.5 -184.5t245.5 -61.5q174 0 264.5 81t90.5 224q0 139 -94.5 216t-254.5 77q-92 0 -173 -25.5t-148 -76.5l-168 49l76 713h866v-164h-731l-45 -434q68 45 155.5 68.5t174.5 23.5q244 0 381 -118t137 -327q0 -205 -142.5 -333.5t-388.5 -128.5 q-225 0 -362 95t-176 273z" />
<glyph unicode="6" horiz-adv-x="1312" d="M119 666q0 408 151.5 577.5t403.5 169.5q205 0 338 -91t176 -257l-166 -35q-10 39 -35.5 80t-69 74t-103.5 53t-140 20t-150.5 -26.5t-124 -88t-84 -163.5t-30.5 -254q57 78 164.5 120t234.5 42q98 0 189.5 -24.5t162 -79t112.5 -140.5t42 -209q0 -205 -144.5 -329.5 t-381.5 -124.5q-172 0 -280 55t-166 149.5t-78.5 219t-20.5 262.5zM305 434q0 -141 101.5 -221t252.5 -80q160 0 257.5 77t97.5 224t-97.5 224t-257.5 77t-257 -76.5t-97 -224.5z" />
<glyph unicode="7" horiz-adv-x="1146" d="M72 1229v164h1003v-224l-645 -1169h-205l697 1229h-850z" />
<glyph unicode="8" horiz-adv-x="1380" d="M147 381q0 131 66 208t176 120q-98 39 -157.5 117.5t-59.5 191.5q0 186 144.5 290.5t381.5 104.5q250 0 383 -101.5t133 -273.5q0 -127 -57 -204.5t-162 -118.5q104 -37 171 -115t67 -203q0 -195 -148.5 -306t-388.5 -111q-248 0 -398.5 105t-150.5 296zM322 393 q0 -123 101 -192.5t273 -69.5q164 0 264.5 69.5t100.5 186.5q0 123 -95.5 187.5t-269.5 64.5q-166 0 -270 -63.5t-104 -182.5zM344 1024q0 -115 87 -178.5t267 -63.5q164 0 254 62.5t90 183.5q0 104 -87 169t-259 65q-166 0 -259 -64.5t-93 -173.5z" />
<glyph unicode="9" horiz-adv-x="1310" d="M123 958q0 205 144.5 330t381.5 125q172 0 279.5 -55t166 -149.5t79 -219.5t20.5 -262q0 -408 -151.5 -577.5t-403.5 -169.5q-205 0 -338 91t-176 257l166 34q10 -39 35.5 -79.5t68.5 -73.5t103.5 -53.5t140.5 -20.5t150.5 26.5t124 88t84 164t30.5 254.5 q-57 -78 -164.5 -120t-234.5 -42q-98 0 -189.5 24.5t-162 79t-112.5 140t-42 208.5zM299 958q0 -147 97 -224t257 -77t257.5 77t97.5 224q0 141 -101.5 221.5t-253.5 80.5q-160 0 -257 -77t-97 -225z" />
<glyph unicode=":" horiz-adv-x="464" d="M123 0v225h219v-225h-219zM123 750v225h219v-225h-219z" />
<glyph unicode=";" horiz-adv-x="464" d="M82 -184q70 12 109 47t39 100v37h-109v225h223v-262q0 -123 -67.5 -181t-171.5 -75zM123 750v225h219v-225h-219z" />
<glyph unicode="&#x3c;" d="M174 535v229l983 416v-176l-858 -355l858 -350v-176z" />
<glyph unicode="=" d="M174 322v155h983v-155h-983zM174 772v156h983v-156h-983z" />
<glyph unicode="&#x3e;" d="M174 123v176l858 354l-858 351v176l983 -412v-229z" />
<glyph unicode="?" horiz-adv-x="1026" d="M51 1053q29 154 144.5 257t334.5 103q215 0 325 -105.5t110 -269.5q0 -139 -64.5 -219t-132.5 -121l-96 -59q-68 -41 -87.5 -74t-19.5 -94v-86h-170v147q0 72 30 118t110 95l112 70q68 41 104.5 89t36.5 134q0 94 -65.5 154.5t-192.5 60.5q-137 0 -213.5 -68.5 t-99.5 -164.5zM373 0v225h219v-225h-219z" />
<glyph unicode="@" horiz-adv-x="1798" d="M123 483q0 180 59.5 330t167 255.5t259 163.5t333.5 58q156 0 294 -50t238.5 -141t159 -222.5t58.5 -290.5q0 -238 -99.5 -367t-240.5 -129q-80 0 -142.5 37t-85.5 106q-29 -66 -102.5 -104.5t-159.5 -38.5q-156 0 -250 109.5t-94 287.5q0 96 28.5 172t77 126.5t114 77 t136.5 26.5q70 0 125.5 -26.5t94.5 -65.5v77h145v-524q0 -66 35 -97.5t86 -31.5q82 0 135 98.5t53 264.5q0 131 -48 237.5t-130 180t-194.5 113.5t-241.5 40q-147 0 -270 -51t-210 -141.5t-135.5 -213t-48.5 -266.5q0 -158 48.5 -280.5t134.5 -204.5t203.5 -124t254.5 -42 q98 0 192.5 27.5t151.5 60.5l62 -117q-63 -49 -177 -79.5t-237 -30.5q-168 0 -312.5 51t-247.5 150.5t-161.5 248t-58.5 340.5zM674 489q0 -127 58.5 -196.5t154.5 -69.5q88 0 147.5 63.5t59.5 192.5v31q0 129 -61.5 186.5t-145.5 57.5q-94 0 -153.5 -71t-59.5 -194z" />
<glyph unicode="A" horiz-adv-x="1423" d="M61 0l537 1393h221l543 -1393h-191l-149 393h-627l-145 -393h-189zM455 553h508l-256 678z" />
<glyph unicode="B" horiz-adv-x="1314" d="M178 0v1393h533q205 0 329.5 -89.5t124.5 -291.5q0 -94 -42 -176t-152 -127q123 -31 177 -113t54 -207q0 -203 -136 -296t-355 -93h-533zM350 158h379q154 0 226.5 56t72.5 175q0 125 -74.5 182.5t-240.5 57.5h-363v-471zM350 782h342q164 0 232.5 54.5t68.5 175.5 q0 123 -65 173t-217 50h-361v-453z" />
<glyph unicode="C" horiz-adv-x="1456" d="M113 694q0 170 47 304.5t132 226.5t205.5 140t266.5 48q246 0 398.5 -116.5t187.5 -335.5l-166 -27q-31 137 -130.5 228t-289.5 91q-117 0 -207 -41t-149.5 -113.5t-90 -176t-30.5 -228.5q0 -250 124 -402.5t353 -152.5q190 0 291.5 87t132.5 233l166 -27 q-39 -219 -192.5 -335.5t-397.5 -116.5q-299 0 -475 191t-176 523z" />
<glyph unicode="D" horiz-adv-x="1488" d="M178 0v1393h527q328 0 499.5 -184.5t171.5 -512.5q0 -330 -175 -513t-517 -183h-506zM354 162h344q248 0 373 145.5t125 388.5q0 264 -126 399.5t-374 135.5h-342v-1069z" />
<glyph unicode="E" horiz-adv-x="1292" d="M178 0v1393h971v-164h-795v-445h768v-159h-768v-461h789v-164h-965z" />
<glyph unicode="F" horiz-adv-x="1261" d="M178 0v1393h971v-164h-795v-473h768v-160h-768v-596h-176z" />
<glyph unicode="G" horiz-adv-x="1501" d="M113 696q0 168 49 302.5t137 226.5t212 140t271 48q240 0 391.5 -112.5t188.5 -331.5l-164 -27q-33 137 -133 224t-283 87q-231 0 -362 -150.5t-131 -406.5q0 -250 129 -403.5t373 -153.5q180 0 296.5 90t116.5 222v55h-364v151h520v-657h-158v131q-70 -70 -179.5 -110.5 t-231.5 -40.5q-160 0 -287 50t-213 143t-132 226t-46 297z" />
<glyph unicode="H" horiz-adv-x="1478" d="M178 0v1393h176v-609h770v609h176v-1393h-176v621h-770v-621h-176z" />
<glyph unicode="I" horiz-adv-x="532" d="M178 0v1393h176v-1393h-176z" />
<glyph unicode="J" horiz-adv-x="780" d="M61 0v162h156q109 0 166 49t57 166v1016h176v-1016q0 -203 -97 -290t-283 -87h-175z" />
<glyph unicode="K" horiz-adv-x="1298" d="M178 0v1393h176v-607h260l402 607h215l-475 -686l497 -707h-221l-422 623h-256v-623h-176z" />
<glyph unicode="L" horiz-adv-x="1210" d="M178 0v1393h176v-1229h795v-164h-971z" />
<glyph unicode="M" horiz-adv-x="1802" d="M178 0v1393h277l450 -1057l443 1057h276v-1393h-174v1227l-471 -1100h-164l-471 1100v-1227h-166z" />
<glyph unicode="N" horiz-adv-x="1517" d="M178 0v1393h217l774 -1190v1190h170v-1393h-235l-756 1163v-1163h-170z" />
<glyph unicode="O" horiz-adv-x="1558" d="M113 696q0 164 47 297t134 226.5t211 143.5t275 50q152 0 276 -50t210 -143.5t133 -226.5t47 -297q0 -168 -47 -302t-133 -225t-210 -140t-276 -49t-275.5 49t-210.5 140t-134 225t-47 302zM289 696q0 -250 129 -403.5t362 -153.5t361.5 153.5t128.5 403.5 q0 252 -128 404.5t-362 152.5q-233 0 -362 -152.5t-129 -404.5z" />
<glyph unicode="P" horiz-adv-x="1280" d="M178 0v1393h551q227 0 348 -113t121 -315q0 -203 -120 -320t-367 -117h-357v-528h-176zM354 690h371q154 0 224.5 70.5t70.5 202.5q0 141 -68.5 204.5t-226.5 63.5h-371v-541z" />
<glyph unicode="Q" horiz-adv-x="1558" d="M113 696q0 164 47 297t134 226.5t211 143.5t275 50q152 0 276 -50t210 -143.5t133 -226.5t47 -297q0 -205 -71.5 -354t-196.5 -238l137 -178l-125 -92l-143 197q-57 -25 -124 -38t-143 -13q-152 0 -275.5 49t-210.5 140t-134 225t-47 302zM289 696q0 -250 129 -403.5 t362 -153.5q45 0 87 6.5t79 16.5l-252 330h195l194 -265q92 70 139.5 194t47.5 275q0 252 -128 404.5t-362 152.5q-233 0 -362 -152.5t-129 -404.5z" />
<glyph unicode="R" horiz-adv-x="1335" d="M178 0v1393h543q225 0 347 -113t122 -315q0 -158 -71.5 -263.5t-215.5 -146.5l350 -555h-209l-323 530h-9h-10h-348v-530h-176zM354 692h367q156 0 225.5 71t69.5 200q0 141 -69.5 204.5t-225.5 63.5h-367v-539z" />
<glyph unicode="S" horiz-adv-x="1312" d="M113 369l166 28q33 -137 136 -199.5t259 -62.5q162 0 258 62.5t96 167.5q0 98 -58.5 152t-176.5 75l-244 41q-197 33 -293 123t-96 258q0 94 38 167.5t105.5 125t162.5 79t208 27.5q227 0 355 -102.5t159 -274.5l-164 -26q-25 104 -107.5 175.5t-246.5 71.5 q-160 0 -250 -69.5t-90 -169.5q0 -96 61.5 -148.5t206.5 -78.5l236 -41q178 -31 272 -120t94 -257q0 -98 -40 -172t-110.5 -123t-169 -73.5t-212.5 -24.5q-223 0 -369.5 94t-185.5 295z" />
<glyph unicode="T" horiz-adv-x="1292" d="M41 1229v164h1210v-164h-516v-1229h-176v1229h-518z" />
<glyph unicode="U" horiz-adv-x="1464" d="M164 547v846h176v-846q0 -236 108.5 -321t288.5 -85t283.5 85t103.5 321v846h176v-846q0 -281 -142 -424t-423 -143t-426 143t-145 424z" />
<glyph unicode="V" horiz-adv-x="1345" d="M31 1393h186l473 -1182l455 1182h184l-551 -1393h-184z" />
<glyph unicode="W" horiz-adv-x="2158" d="M41 1393h184l377 -1168l373 1168h235l383 -1168l357 1168h182l-451 -1393h-188l-401 1223l-400 -1223h-188z" />
<glyph unicode="X" horiz-adv-x="1302" d="M31 0l495 705l-481 688h211l389 -568l381 568h209l-477 -678l514 -715h-221l-410 588l-401 -588h-209z" />
<glyph unicode="Y" d="M31 1393h207l442 -678l436 678h199l-549 -848v-545h-176v532z" />
<glyph unicode="Z" horiz-adv-x="1320" d="M111 0v168l907 1065h-907v160h1108v-166l-912 -1067h903v-160h-1099z" />
<glyph unicode="[" horiz-adv-x="757" d="M164 -397v1872h471v-148h-311v-1577h311v-147h-471z" />
<glyph unicode="\" horiz-adv-x="1091" d="M170 1475h160l598 -1872h-162z" />
<glyph unicode="]" horiz-adv-x="757" d="M123 -250h311v1577h-311v148h471v-1872h-471v147z" />
<glyph unicode="^" horiz-adv-x="1114" d="M102 684l365 709h178l367 -709h-178l-277 549l-274 -549h-181z" />
<glyph unicode="_" horiz-adv-x="944" d="M0 -238h944v-159h-944v159z" />
<glyph unicode="`" horiz-adv-x="544" d="M82 1372l221 -266h160l-184 266h-197z" />
<glyph unicode="a" horiz-adv-x="1060" d="M111 270q0 152 101 219.5t269 73.5q51 1 97 1h44q66 -1 132 -3v84q0 106 -61.5 155.5t-155.5 49.5q-104 0 -158.5 -51t-79.5 -125l-156 33q31 129 131.5 208.5t262.5 79.5q166 0 273.5 -83t107.5 -261v-651h-154v115q-45 -59 -124 -97t-183 -38q-160 0 -253 77.5 t-93 212.5zM274 272q0 -70 50.5 -111.5t136.5 -41.5q123 0 208 60.5t85 158.5v94q-61 2 -130 2t-139 -2q-104 -4 -157.5 -45t-53.5 -115z" />
<glyph unicode="b" horiz-adv-x="1179" d="M154 0v1393h163v-549q63 88 157.5 119.5t176.5 31.5q90 0 169 -31.5t138.5 -94t93 -157t33.5 -216.5q0 -240 -127 -378t-333 -138q-104 0 -181 35.5t-133 97.5v-113h-157zM317 408q0 -133 93.5 -207t216.5 -74q135 0 214 99.5t79 265.5q0 160 -79 258t-218 98 q-57 0 -111.5 -20.5t-97.5 -59.5t-70 -99.5t-27 -140.5v-120z" />
<glyph unicode="c" horiz-adv-x="1044" d="M94 487q0 129 36 224.5t97.5 159t145.5 94t180 30.5q190 0 289.5 -92t124.5 -215l-150 -29q-18 70 -77.5 130.5t-186.5 60.5q-141 0 -218 -97.5t-77 -265.5q0 -162 76 -262t217 -100q129 0 187.5 60t78.5 132l154 -24q-29 -131 -132.5 -222t-287.5 -91q-203 0 -330 129 t-127 378z" />
<glyph unicode="d" horiz-adv-x="1177" d="M94 489q0 238 133 372t340 134q88 0 165 -32.5t128 -92.5v523h164v-1393h-158v125q-45 -72 -126 -108.5t-189 -36.5q-201 0 -329 134t-128 375zM258 489q0 -156 79 -259t224 -103q147 0 223 94.5t76 229.5v86q0 156 -87 233.5t-210 77.5q-139 0 -222 -96.5t-83 -262.5z " />
<glyph unicode="e" horiz-adv-x="1060" d="M90 487q0 121 36 216.5t97.5 160t146.5 98t181 33.5q195 0 309.5 -122.5t114.5 -346.5v-67h-721q8 -164 90 -250t209 -86q115 0 178.5 53t83.5 123l154 -27q-35 -137 -143.5 -214.5t-278.5 -77.5q-209 0 -333 136t-124 371zM260 594h551q-6 113 -69.5 186.5t-192.5 73.5 q-115 0 -191.5 -71.5t-97.5 -188.5z" />
<glyph unicode="f" horiz-adv-x="724" d="M41 823v152h188v86q0 190 95.5 261t269.5 71h121v-148h-115q-111 0 -159 -46t-48 -155v-69h299v-152h-299v-823h-164v823h-188z" />
<glyph unicode="g" horiz-adv-x="1179" d="M98 485q0 238 127 374t340 136q100 0 181 -38.5t126 -110.5v129h154v-965q0 -233 -131 -330.5t-334 -97.5q-156 0 -277.5 76t-154.5 233l160 25q31 -104 110.5 -146t161.5 -42q135 0 220 65.5t85 218.5v127q-45 -70 -126 -104.5t-185 -34.5q-201 0 -329 123t-128 362z M262 489q0 -156 76 -249t223 -93t225 89.5t78 224.5v86q0 160 -89 230.5t-210 70.5q-141 0 -222 -96.5t-81 -262.5z" />
<glyph unicode="h" horiz-adv-x="1140" d="M154 0v1393h163v-545q49 72 136.5 109.5t177.5 37.5q170 0 270 -89t100 -261v-645h-163v621q0 100 -56.5 163.5t-183.5 63.5q-117 0 -199 -71.5t-82 -192.5v-584h-163z" />
<glyph unicode="i" horiz-adv-x="471" d="M143 1163v197h187v-197h-187zM154 0v975h163v-975h-163z" />
<glyph unicode="j" horiz-adv-x="493" d="M-90 -246h82q100 0 140 45t40 144v1032h164v-1030q0 -178 -78 -260t-252 -82h-96v151zM160 1163v197h186v-197h-186z" />
<glyph unicode="k" horiz-adv-x="1019" d="M154 0v1393h163v-805h142l309 387h197l-373 -455l383 -520h-199l-315 444h-144v-444h-163z" />
<glyph unicode="l" horiz-adv-x="471" d="M154 0v1393h163v-1393h-163z" />
<glyph unicode="m" horiz-adv-x="1773" d="M154 0v975h157v-127q47 72 131 109.5t170 37.5q123 0 206 -49t120 -129q45 88 139 133t195 45q164 0 262 -89t98 -261v-645h-164v621q0 100 -53 163.5t-174 63.5q-111 0 -188.5 -71.5t-77.5 -192.5v-584h-164v621q0 100 -54.5 163.5t-174.5 63.5q-111 0 -188 -71.5 t-77 -192.5v-584h-163z" />
<glyph unicode="n" horiz-adv-x="1140" d="M154 0v975h157v-135q47 76 136.5 115.5t183.5 39.5q170 0 270 -89t100 -261v-645h-163v621q0 100 -56.5 163.5t-183.5 63.5q-117 0 -199 -71.5t-82 -192.5v-584h-163z" />
<glyph unicode="o" horiz-adv-x="1116" d="M94 489q0 242 131 374t338 132q205 0 332 -132t127 -374q0 -238 -127 -373.5t-332 -135.5q-100 0 -187 33.5t-148.5 98t-97.5 161t-36 216.5zM258 489q0 -170 82 -267t223 -97q147 0 221 97t74 267q0 172 -73.5 266.5t-221.5 94.5q-145 0 -225 -94t-80 -267z" />
<glyph unicode="p" horiz-adv-x="1179" d="M154 -397v1372h163v-131q53 76 143.5 113.5t190.5 37.5q90 0 169 -31.5t138.5 -94t93 -157t33.5 -214.5q0 -242 -127 -380t-333 -138q-96 0 -175 32.5t-133 93.5v-503h-163zM317 408q0 -133 93.5 -208t216.5 -75q135 0 215 100.5t80 266.5q0 160 -80 259t-219 99 q-57 0 -111.5 -21.5t-97.5 -61.5t-70 -101.5t-27 -141.5v-116z" />
<glyph unicode="q" horiz-adv-x="1179" d="M94 485q0 238 131 374t338 136q96 0 176 -37.5t127 -103.5v121h160v-1372h-166v512q-45 -68 -124 -101.5t-183 -33.5q-201 0 -330 133t-129 372zM258 489q0 -156 78 -259t223 -103q147 0 224 94.5t77 229.5v86q0 160 -88 235.5t-209 75.5q-141 0 -223 -96.5t-82 -262.5z " />
<glyph unicode="r" horiz-adv-x="700" d="M154 0v975h155v-141q49 84 131 112.5t154 28.5h88v-158h-74q-49 0 -100 -10t-93 -30.5t-69 -53.5t-27 -78v-645h-165z" />
<glyph unicode="s" horiz-adv-x="1009" d="M102 274l154 27q25 -92 90.5 -136t175.5 -44q111 0 168.5 38t57.5 101t-44.5 97t-148.5 53l-127 22q-135 25 -213 87.5t-78 189.5t103.5 206.5t273.5 79.5q178 0 274.5 -84t116.5 -194l-149 -33q-20 72 -76.5 121t-169.5 49q-98 0 -155.5 -39t-57.5 -102q0 -70 49 -97.5 t135 -42.5l125 -22q160 -29 230.5 -99.5t70.5 -187.5q0 -125 -98 -204.5t-291 -79.5q-170 0 -279.5 71t-136.5 223z" />
<glyph unicode="t" horiz-adv-x="749" d="M37 823v152h170v260h166v-260h305v-152h-305v-483q0 -104 42 -146t128 -42h145v-152h-151q-193 0 -261.5 82t-68.5 256v485h-170z" />
<glyph unicode="u" horiz-adv-x="1136" d="M141 330v645h164v-621q0 -100 54.5 -163.5t177.5 -63.5q117 0 198.5 71.5t81.5 192.5v584h164v-975h-154v143q-47 -80 -138 -121.5t-185 -41.5q-170 0 -266.5 89t-96.5 261z" />
<glyph unicode="v" horiz-adv-x="1011" d="M29 975h174l309 -803l311 803h168l-397 -975h-178z" />
<glyph unicode="w" horiz-adv-x="1574" d="M29 975h170l247 -772l246 772h205l248 -782l252 782h159l-331 -975h-174l-260 825l-263 -825h-172z" />
<glyph unicode="x" horiz-adv-x="993" d="M31 0l364 500l-340 475h191l248 -359l251 359h189l-346 -465l377 -510h-197l-276 389l-269 -389h-192z" />
<glyph unicode="y" horiz-adv-x="1009" d="M33 975h180l319 -772l287 772h170l-444 -1125q-55 -139 -129 -193t-185 -54h-94v151h62q70 0 121 31t83 113l43 106z" />
<glyph unicode="z" horiz-adv-x="1017" d="M102 0v166l627 657h-608v152h794v-160l-632 -663h645v-152h-826z" />
<glyph unicode="{" horiz-adv-x="870" d="M61 461v151h33q90 0 154.5 51.5t64.5 178.5v270q0 203 83 283t266 80h106v-148h-106q-94 0 -141.5 -40t-47.5 -159v-286q0 -123 -45 -198t-135 -107q90 -33 135 -108t45 -198v-282q0 -119 47 -159t142 -40h106v-147h-106q-182 0 -265.5 79.5t-83.5 282.5v266 q0 127 -64.5 178.5t-154.5 51.5h-33z" />
<glyph unicode="|" horiz-adv-x="645" d="M246 -397v1872h153v-1872h-153z" />
<glyph unicode="}" horiz-adv-x="870" d="M102 -250h107q94 0 141 40t47 159v282q0 123 45 198t136 108q-90 33 -135.5 107.5t-45.5 197.5v286q0 119 -47 159t-141 40h-107v148h107q182 0 265 -80t83 -283v-270q0 -127 64.5 -178.5t154.5 -51.5h33v-151h-33q-90 0 -154.5 -51.5t-64.5 -178.5v-266 q0 -203 -83 -282.5t-265 -79.5h-107v147z" />
<glyph unicode="~" horiz-adv-x="1396" d="M168 514q14 143 84 233.5t213 90.5q63 0 118.5 -27t104.5 -59.5t94 -59t86 -26.5q66 0 98.5 51t41.5 112h155q-14 -145 -83.5 -234t-213.5 -89q-55 0 -111.5 26.5t-107.5 59.5t-98 59.5t-86 26.5q-66 0 -98.5 -51.5t-40.5 -112.5h-156z" />
<glyph unicode="&#xa2;" d="M199 692q0 219 116.5 349t288.5 153v190h135v-186q154 -12 255.5 -95t138.5 -229l-148 -34q-27 82 -85 139t-161 70v-715q104 12 159.5 67.5t82.5 126.5l145 -30q-33 -129 -127 -214t-260 -98v-186h-135v188q-178 23 -291.5 151t-113.5 353zM360 698q0 -141 63.5 -236 t180.5 -122v704q-109 -27 -176.5 -119t-67.5 -227z" />
<glyph unicode="&#xa3;" d="M166 535v135h180q-33 72 -65.5 149.5t-32.5 177.5q0 195 128 305.5t333 110.5q201 0 310 -103.5t130 -269.5l-168 -20q-20 102 -83.5 171t-190.5 69q-131 0 -206 -72t-75 -184q0 -92 35 -172t67 -162h369v-135h-326q2 -20 5.5 -44t3.5 -49q0 -96 -40 -165.5t-100 -112.5 h727v-164h-981v164q100 18 162 98t62 180q0 25 -3.5 48.5t-9.5 44.5h-231z" />
<glyph unicode="&#xa5;" d="M41 1393h207l422 -676l415 676h199l-448 -721h241v-135h-321v-148h321v-135h-321v-254h-176v254h-322v135h322v143l-2 5h-320v135h234z" />
<glyph unicode="&#xa8;" horiz-adv-x="741" d="M92 1163v193h180v-193h-180zM469 1163v193h180v-193h-180z" />
<glyph unicode="&#xa9;" horiz-adv-x="1724" d="M143 610q0 152 55.5 284t150.5 228.5t227.5 151.5t285.5 55q152 0 284 -55t228 -151.5t151.5 -228.5t55.5 -284t-55.5 -282.5t-151.5 -226t-228 -150.5t-284 -55q-154 0 -286 55t-227 150.5t-150.5 226.5t-55.5 282zM272 610q0 -125 44 -235.5t123 -190.5t187.5 -127 t235.5 -47q125 0 233.5 47t187.5 127t124 190.5t45 235.5q0 127 -45 237.5t-124 191.5t-187.5 128t-233.5 47q-127 0 -235.5 -47t-186.5 -128t-123 -191.5t-45 -237.5zM504 610q0 98 30.5 174t82 127.5t119 78t143.5 26.5q129 0 217 -67.5t112 -184.5l-147 -35 q-16 51 -58 95t-124 44q-92 0 -154.5 -69.5t-62.5 -188.5q0 -115 62 -182.5t155 -67.5q82 0 125 40t57 92l147 -31q-23 -113 -113.5 -180.5t-215.5 -67.5q-162 0 -268.5 104.5t-106.5 292.5z" />
<glyph unicode="&#xab;" horiz-adv-x="1032" d="M61 494l291 469h187l-289 -469l289 -474h-185zM475 494l291 469h190l-292 -467l297 -476h-193z" />
<glyph unicode="&#xad;" horiz-adv-x="815" d="M102 469v160h611v-160h-611z" />
<glyph unicode="&#xae;" horiz-adv-x="1200" d="M123 936q0 100 37 188t101.5 151.5t151.5 100.5t187 37t187 -37t152 -100.5t101.5 -151.5t36.5 -188t-36.5 -188.5t-101.5 -152t-152 -100t-187 -36.5q-98 0 -185 36.5t-151.5 100t-102.5 152t-38 188.5zM227 936q0 -164 107.5 -272.5t265.5 -108.5q162 0 269.5 108.5 t107.5 272.5t-105.5 272.5t-267.5 108.5t-269.5 -108.5t-107.5 -272.5zM397 702v472h230q94 0 141 -40t47 -116q0 -55 -22.5 -90t-67.5 -51l117 -175h-150l-98 158h-62v-158h-135zM532 963h82q39 0 54.5 14t15.5 41q0 25 -15.5 39t-54.5 14h-82v-108z" />
<glyph unicode="&#xb4;" horiz-adv-x="544" d="M82 1106l184 266h197l-221 -266h-160z" />
<glyph unicode="&#xb8;" horiz-adv-x="614" d="M74 -270l123 28q10 -35 39.5 -53t76.5 -18t73 16t26 51q0 39 -36 52.5t-118 11.5l-45 -2v92l84 102h135l-78 -92q94 -4 144.5 -41t50.5 -119q0 -78 -58.5 -129t-175.5 -51q-100 0 -161.5 35t-79.5 117z" />
<glyph unicode="&#xbb;" horiz-adv-x="1032" d="M72 963h192l293 -474l-291 -469h-190l293 467zM494 20l288 469l-288 474h184l293 -474l-291 -469h-186z" />
<glyph unicode="&#x2c6;" horiz-adv-x="802" d="M82 1106l221 266h197l221 -266h-156l-164 166l-163 -166h-156z" />
<glyph unicode="&#x2da;" horiz-adv-x="532" d="M68 1268q0 88 58 141t140 53t140.5 -53t58.5 -141t-58.5 -141.5t-140.5 -53.5t-140 53.5t-58 141.5zM174 1268q0 -39 25.5 -65.5t66.5 -26.5t66.5 26.5t25.5 65.5t-25.5 65.5t-66.5 26.5t-66.5 -26.5t-25.5 -65.5z" />
<glyph unicode="&#x2dc;" horiz-adv-x="739" d="M82 1118v21q0 94 41 154.5t125 60.5q39 0 72.5 -16.5t62.5 -36t53.5 -36t44.5 -16.5q27 0 39 20.5t12 59.5v29h125v-31q0 -94 -41 -150.5t-116 -56.5q-39 0 -74 16.5t-65.5 37t-56 37t-46.5 16.5q-27 0 -39 -23.5t-12 -62.5v-23h-125z" />
<glyph unicode="&#x400;" horiz-adv-x="1292" d="M178 0v1393h971v-164h-795v-445h768v-159h-768v-461h789v-164h-965zM408 1794h202l185 -266h-166z" />
<glyph unicode="&#x401;" horiz-adv-x="1292" d="M178 0v1393h971v-164h-795v-445h768v-159h-768v-461h789v-164h-965zM396 1565v192h180v-192h-180zM773 1565v192h180v-192h-180z" />
<glyph unicode="&#x402;" horiz-adv-x="1570" d="M41 1229v164h1110v-164h-537v-410q63 14 152.5 25.5t177.5 11.5q250 0 387 -92t137 -334q0 -121 -36.5 -204t-101 -133t-155 -71.5t-194.5 -21.5h-78v160h78q154 0 233.5 61.5t79.5 208.5t-89 207.5t-261 60.5q-88 0 -176 -11t-154 -25v-662h-176v1229h-397z" />
<glyph unicode="&#x403;" horiz-adv-x="1118" d="M178 0v1393h899v-164h-723v-1229h-176zM499 1536l185 266h203l-222 -266h-166z" />
<glyph unicode="&#x404;" horiz-adv-x="1456" d="M113 698q0 176 47 310.5t133 223.5t207 135t266 46q244 0 394.5 -118.5t189.5 -329.5l-166 -29q-31 129 -130.5 223t-289.5 94q-203 0 -329 -120.5t-144 -352.5h635v-155h-637q16 -238 141 -362t334 -124q94 0 165.5 25.5t123 68.5t84 100.5t47.5 121.5l164 -27 q-35 -199 -186.5 -323.5t-397.5 -124.5q-145 0 -266 44t-206 133t-132 224t-47 317z" />
<glyph unicode="&#x405;" horiz-adv-x="1312" d="M113 369l166 28q33 -137 136 -199.5t259 -62.5q162 0 258 62.5t96 167.5q0 98 -58.5 152t-176.5 75l-244 41q-197 33 -293 123t-96 258q0 94 38 167.5t105.5 125t162.5 79t208 27.5q227 0 355 -102.5t159 -274.5l-164 -26q-25 104 -107.5 175.5t-246.5 71.5 q-160 0 -250 -69.5t-90 -169.5q0 -96 61.5 -148.5t206.5 -78.5l236 -41q178 -31 272 -120t94 -257q0 -98 -40 -172t-110.5 -123t-169 -73.5t-212.5 -24.5q-223 0 -369.5 94t-185.5 295z" />
<glyph unicode="&#x406;" horiz-adv-x="532" d="M178 0v1393h176v-1393h-176z" />
<glyph unicode="&#x407;" horiz-adv-x="532" d="M-12 1565v192h180v-192h-180zM178 0v1393h176v-1393h-176zM365 1565v192h180v-192h-180z" />
<glyph unicode="&#x408;" horiz-adv-x="780" d="M61 0v162h156q109 0 166 49t57 166v1016h176v-1016q0 -203 -97 -290t-283 -87h-175z" />
<glyph unicode="&#x409;" horiz-adv-x="2148" d="M16 0v164h72q90 0 150.5 54.5t64.5 232.5q2 80 4 192.5t3 238.5t1 258v253h912v-529h336q246 0 366.5 -108.5t120.5 -327.5q0 -203 -122 -315.5t-347 -112.5h-530v1229h-562q0 -94 -1 -207t-2 -221.5t-3 -207.5t-4 -167q-6 -217 -91 -321.5t-275 -104.5h-93zM1223 162 h354q160 0 226.5 63.5t66.5 204.5q0 131 -68.5 201.5t-224.5 70.5h-354v-540z" />
<glyph unicode="&#x40a;" horiz-adv-x="2185" d="M178 0v1393h176v-609h729v609h177v-529h335q246 0 367 -108.5t121 -327.5q0 -203 -122 -315.5t-347 -112.5h-531v621h-729v-621h-176zM1260 162h354q160 0 226.5 63.5t66.5 204.5q0 131 -68.5 201.5t-224.5 70.5h-354v-540z" />
<glyph unicode="&#x40b;" horiz-adv-x="1595" d="M41 1229v164h1110v-164h-537v-410q72 16 165 29.5t204 13.5q244 0 361.5 -103.5t117.5 -328.5v-430h-176v393q0 156 -69.5 230.5t-241.5 74.5q-104 0 -191.5 -10t-169.5 -31v-657h-176v1229h-397z" />
<glyph unicode="&#x40c;" horiz-adv-x="1298" d="M178 0v1393h176v-607h260l402 607h215l-475 -686l497 -707h-221l-422 623h-256v-623h-176zM544 1528l185 266h203l-222 -266h-166z" />
<glyph unicode="&#x40d;" horiz-adv-x="1499" d="M178 0v1393h172v-1178l756 1178h215v-1393h-172v1194l-770 -1194h-201zM461 1794h202l185 -266h-166z" />
<glyph unicode="&#x40e;" horiz-adv-x="1253" d="M31 1393h198l433 -883l391 883h184l-500 -1098q-68 -147 -152.5 -221t-242.5 -74h-139v162h127q90 0 145 37t96 118zM326 1774h145q4 -66 44 -110t136 -44t137.5 44t43.5 110h145q-2 -129 -81 -204t-245 -75t-244.5 75t-80.5 204z" />
<glyph unicode="&#x40f;" horiz-adv-x="1474" d="M178 0v1393h176v-1229h766v1229h176v-1393h-473v-293h-172v293h-473z" />
<glyph unicode="&#x410;" horiz-adv-x="1423" d="M61 0l537 1393h221l543 -1393h-191l-149 393h-627l-145 -393h-189zM455 553h508l-256 678z" />
<glyph unicode="&#x411;" horiz-adv-x="1310" d="M178 0v1393h942v-164h-766v-408h377q240 0 353.5 -105.5t113.5 -307.5q0 -203 -122 -305.5t-347 -102.5h-551zM354 162h375q160 0 228.5 60.5t68.5 187.5q0 131 -70.5 191.5t-226.5 60.5h-375v-500z" />
<glyph unicode="&#x412;" horiz-adv-x="1314" d="M178 0v1393h533q205 0 329.5 -89.5t124.5 -291.5q0 -94 -42 -176t-152 -127q123 -31 177 -113t54 -207q0 -203 -136 -296t-355 -93h-533zM350 158h379q154 0 226.5 56t72.5 175q0 125 -74.5 182.5t-240.5 57.5h-363v-471zM350 782h342q164 0 232.5 54.5t68.5 175.5 q0 123 -65 173t-217 50h-361v-453z" />
<glyph unicode="&#x413;" horiz-adv-x="1118" d="M178 0v1393h899v-164h-723v-1229h-176z" />
<glyph unicode="&#x414;" horiz-adv-x="1482" d="M20 164h134q66 57 113.5 175t56.5 269q8 160 11 350.5t3 434.5h911v-1229h185v-457h-172v293h-1069v-293h-173v457zM358 164h715v1065h-565q0 -68 -1 -146.5t-3 -160.5t-5 -163t-7 -151q-8 -129 -38 -241.5t-96 -202.5z" />
<glyph unicode="&#x415;" horiz-adv-x="1292" d="M178 0v1393h971v-164h-795v-445h768v-159h-768v-461h789v-164h-965z" />
<glyph unicode="&#x416;" horiz-adv-x="1937" d="M45 0l498 707l-475 686h215l401 -607h197v607h176v-607h196l402 607h215l-475 -686l497 -707h-223l-422 623h-190v-623h-176v623h-191l-422 -623h-223z" />
<glyph unicode="&#x417;" horiz-adv-x="1316" d="M119 416l166 26q27 -147 127 -225t272 -78q170 0 260 70t90 197q0 109 -73.5 168t-227.5 59h-203v153h203q150 0 215.5 61.5t65.5 166.5q0 111 -82 175t-238 64q-162 0 -261 -81.5t-134 -217.5l-166 31q41 205 188.5 316.5t374.5 111.5q217 0 354.5 -98t137.5 -297 q0 -117 -57.5 -196t-163.5 -111q113 -27 178 -101.5t65 -216.5q0 -199 -148.5 -306t-385.5 -107q-236 0 -383.5 110.5t-173.5 325.5z" />
<glyph unicode="&#x418;" horiz-adv-x="1499" d="M178 0v1393h172v-1178l756 1178h215v-1393h-172v1194l-770 -1194h-201z" />
<glyph unicode="&#x419;" horiz-adv-x="1499" d="M178 0v1393h172v-1178l756 1178h215v-1393h-172v1194l-770 -1194h-201zM414 1774h145q4 -66 44 -110t136 -44t137.5 44t43.5 110h145q-2 -129 -81 -204t-245 -75t-244.5 75t-80.5 204z" />
<glyph unicode="&#x41a;" horiz-adv-x="1298" d="M178 0v1393h176v-607h260l402 607h215l-475 -686l497 -707h-221l-422 623h-256v-623h-176z" />
<glyph unicode="&#x41b;" horiz-adv-x="1441" d="M16 0v164h72q90 0 150.5 54.5t64.5 232.5q2 80 4 192.5t3 238.5t2 258t1 253h951v-1393h-177v1229h-602q0 -94 -1 -207t-2 -221.5t-3 -207.5t-4 -167q-6 -217 -91 -321.5t-275 -104.5h-93z" />
<glyph unicode="&#x41c;" horiz-adv-x="1802" d="M178 0v1393h277l450 -1057l443 1057h276v-1393h-174v1227l-471 -1100h-164l-471 1100v-1227h-166z" />
<glyph unicode="&#x41d;" horiz-adv-x="1478" d="M178 0v1393h176v-609h770v609h176v-1393h-176v621h-770v-621h-176z" />
<glyph unicode="&#x41e;" horiz-adv-x="1558" d="M113 696q0 164 47 297t134 226.5t211 143.5t275 50q152 0 276 -50t210 -143.5t133 -226.5t47 -297q0 -168 -47 -302t-133 -225t-210 -140t-276 -49t-275.5 49t-210.5 140t-134 225t-47 302zM289 696q0 -250 129 -403.5t362 -153.5t361.5 153.5t128.5 403.5 q0 252 -128 404.5t-362 152.5q-233 0 -362 -152.5t-129 -404.5z" />
<glyph unicode="&#x41f;" horiz-adv-x="1462" d="M178 0v1393h1106v-1393h-176v1229h-754v-1229h-176z" />
<glyph unicode="&#x420;" horiz-adv-x="1280" d="M178 0v1393h551q227 0 348 -113t121 -315q0 -203 -120 -320t-367 -117h-357v-528h-176zM354 690h371q154 0 224.5 70.5t70.5 202.5q0 141 -68.5 204.5t-226.5 63.5h-371v-541z" />
<glyph unicode="&#x421;" horiz-adv-x="1456" d="M113 694q0 170 47 304.5t132 226.5t205.5 140t266.5 48q246 0 398.5 -116.5t187.5 -335.5l-166 -27q-31 137 -130.5 228t-289.5 91q-117 0 -207 -41t-149.5 -113.5t-90 -176t-30.5 -228.5q0 -250 124 -402.5t353 -152.5q190 0 291.5 87t132.5 233l166 -27 q-39 -219 -192.5 -335.5t-397.5 -116.5q-299 0 -475 191t-176 523z" />
<glyph unicode="&#x422;" horiz-adv-x="1292" d="M41 1229v164h1210v-164h-516v-1229h-176v1229h-518z" />
<glyph unicode="&#x423;" horiz-adv-x="1253" d="M31 1393h198l433 -883l391 883h184l-500 -1098q-68 -147 -152.5 -221t-242.5 -74h-139v162h127q90 0 145 37t96 118z" />
<glyph unicode="&#x424;" horiz-adv-x="1695" d="M102 707q0 152 54.5 260t144.5 176.5t210 101.5t253 35v156h170v-156q133 0 253 -33t210 -102.5t143 -178t53 -259.5q0 -154 -53 -263.5t-144 -177t-211 -99.5t-251 -32v-166h-170v166q-131 0 -251 32t-211 99.5t-145.5 177t-54.5 263.5zM274 707q0 -117 41 -197 t109 -128t158 -69.5t186 -21.5v833q-100 -2 -190.5 -23.5t-157 -69.5t-106.5 -127.5t-40 -196.5zM930 291q100 0 190 22.5t156.5 70.5t105.5 128t39 195q0 117 -40 197.5t-106.5 128.5t-156.5 69.5t-188 21.5v-833z" />
<glyph unicode="&#x425;" horiz-adv-x="1302" d="M31 0l495 705l-481 688h211l389 -568l381 568h209l-477 -678l514 -715h-221l-410 588l-401 -588h-209z" />
<glyph unicode="&#x426;" horiz-adv-x="1529" d="M178 0v1393h176v-1229h766v1229h176v-1229h185v-457h-172v293h-1131z" />
<glyph unicode="&#x427;" horiz-adv-x="1323" d="M123 969v424h176v-387q0 -156 69.5 -231t241.5 -75q100 0 188.5 9.5t170.5 29.5v652h176v-1393h-176v582q-72 -16 -164 -29.5t-203 -13.5q-244 0 -361.5 103t-117.5 329z" />
<glyph unicode="&#x428;" horiz-adv-x="2048" d="M178 0v1393h176v-1229h582v1229h176v-1229h582v1229h176v-1393h-1692z" />
<glyph unicode="&#x429;" horiz-adv-x="2103" d="M178 0v1393h176v-1229h582v1229h176v-1229h582v1229h176v-1229h184v-457h-172v293h-1704z" />
<glyph unicode="&#x42a;" horiz-adv-x="1566" d="M41 1229v164h588v-529h348q246 0 366.5 -108.5t120.5 -327.5q0 -203 -121.5 -315.5t-347.5 -112.5h-542v1229h-412zM629 162h366q160 0 226.5 63.5t66.5 204.5q0 131 -68.5 201.5t-224.5 70.5h-366v-540z" />
<glyph unicode="&#x42b;" horiz-adv-x="1740" d="M178 0v1393h176v-529h336q246 0 367 -108.5t121 -327.5q0 -203 -122 -315.5t-347 -112.5h-531zM354 162h355q160 0 226 63.5t66 204.5q0 131 -68.5 201.5t-223.5 70.5h-355v-540zM1386 0v1393h177v-1393h-177z" />
<glyph unicode="&#x42c;" horiz-adv-x="1300" d="M178 0v1393h176v-529h357q246 0 366.5 -108.5t120.5 -327.5q0 -203 -122 -315.5t-347 -112.5h-551zM354 162h375q160 0 226.5 63.5t66.5 204.5q0 131 -68.5 201.5t-224.5 70.5h-375v-540z" />
<glyph unicode="&#x42d;" horiz-adv-x="1466" d="M113 428l166 29q31 -135 138 -226.5t294 -91.5q213 0 331.5 124t135.5 362h-637v155h637q-16 236 -131 354.5t-322 118.5q-178 0 -286.5 -87t-153.5 -228l-164 29q51 213 216 329.5t388 116.5q287 0 458 -176t171 -535q0 -356 -172 -539t-471 -183q-242 0 -400.5 115.5 t-197.5 332.5z" />
<glyph unicode="&#x42e;" horiz-adv-x="2031" d="M178 0v1393h176v-615h258q23 293 196 464t454 171q150 0 271.5 -50t207.5 -143.5t132 -226.5t46 -297q0 -168 -46 -302t-132 -225t-207.5 -140t-271.5 -49q-281 0 -454 167.5t-196 466.5h-258v-614h-176zM784 696q0 -250 123.5 -402.5t354.5 -152.5t357 152.5t126 402.5 q0 252 -126 403.5t-357 151.5t-354.5 -151.5t-123.5 -403.5z" />
<glyph unicode="&#x42f;" horiz-adv-x="1361" d="M82 0l375 551q-152 39 -226.5 146.5t-74.5 267.5q0 203 121.5 315.5t347.5 112.5h559v-1393h-176v528h-365h-2l-348 -528h-211zM332 963q0 -131 68.5 -202t224.5 -71h383v541h-383q-154 0 -223.5 -66.5t-69.5 -201.5z" />
<glyph unicode="&#x430;" horiz-adv-x="1060" d="M111 270q0 152 101 219.5t269 73.5q76 2 141.5 1t131.5 -3v84q0 106 -61.5 155.5t-155.5 49.5q-104 0 -158.5 -51t-79.5 -125l-156 33q31 129 131.5 208.5t262.5 79.5q166 0 273.5 -83t107.5 -261v-651h-154v115q-45 -59 -124 -97t-183 -38q-160 0 -253 77.5t-93 212.5z M274 272q0 -70 50.5 -111.5t136.5 -41.5q123 0 208 60.5t85 158.5v94q-61 2 -130 2t-139 -2q-104 -4 -157.5 -45t-53.5 -115z" />
<glyph unicode="&#x431;" horiz-adv-x="1138" d="M115 526v205q0 178 40 296t111.5 190.5t172 107.5t216.5 49q94 10 174 20.5t148 18.5l20 -158q-72 -8 -164 -19t-169 -19q-182 -20 -290 -118t-108 -331v-2q55 88 152.5 133t202.5 45q201 0 312 -125t111 -344q0 -225 -124.5 -360t-329.5 -135q-213 0 -344 133t-131 413z M274 500q0 -188 84.5 -284.5t231.5 -96.5q154 0 224.5 101.5t70.5 254.5q0 160 -76 243t-211 83q-133 0 -228.5 -75t-95.5 -196v-30z" />
<glyph unicode="&#x432;" horiz-adv-x="1028" d="M154 0v975h421q160 0 247 -67.5t87 -196.5q0 -55 -27.5 -114.5t-109.5 -92.5q88 -27 126 -85.5t38 -144.5q0 -125 -79 -199.5t-253 -74.5h-450zM313 139h293q94 0 134 37t40 105q0 76 -42 111.5t-132 35.5h-293v-289zM313 561h279q82 0 123 34t41 103q0 70 -39 104 t-139 34h-265v-275z" />
<glyph unicode="&#x433;" horiz-adv-x="851" d="M154 0v975h647v-152h-484v-823h-163z" />
<glyph unicode="&#x434;" horiz-adv-x="1130" d="M10 152h103q51 41 85.5 117.5t41.5 164.5q2 33 4 76t3 105.5t2 150.5t1 209h692v-823h158v-426h-160v274h-770v-274h-160v426zM299 152h479v671h-375q0 -141 -2 -246.5t-8 -164.5q-8 -86 -34.5 -150.5t-59.5 -109.5z" />
<glyph unicode="&#x435;" horiz-adv-x="1060" d="M90 487q0 121 36 216.5t97.5 160t146.5 98t181 33.5q195 0 309.5 -122.5t114.5 -346.5v-67h-721q8 -164 90 -250t209 -86q115 0 178.5 53t83.5 123l154 -27q-35 -137 -143.5 -214.5t-278.5 -77.5q-209 0 -333 136t-124 371zM260 594h551q-6 113 -69.5 186.5t-192.5 73.5 q-115 0 -191.5 -71.5t-97.5 -188.5z" />
<glyph unicode="&#x436;" horiz-adv-x="1480" d="M45 0l348 508l-325 467h192l254 -402h148v402h155v-402h148l256 402h190l-326 -473l351 -502h-199l-287 434h-133v-434h-155v434h-134l-282 -434h-201z" />
<glyph unicode="&#x437;" horiz-adv-x="999" d="M86 285l156 24q14 -80 77.5 -134t184.5 -54q117 0 178 45t61 115q0 72 -47 111.5t-164 39.5h-157v133h172q94 0 136 40t42 97q0 66 -50 109t-157 43q-113 0 -177.5 -49t-90.5 -137l-154 30q33 147 145.5 222t276.5 75q174 0 269.5 -76.5t95.5 -197.5q0 -72 -38 -130.5 t-114 -84.5q76 -23 126 -78t50 -147q0 -141 -109.5 -221t-293.5 -80q-182 0 -290 78.5t-128 226.5z" />
<glyph unicode="&#x438;" horiz-adv-x="1134" d="M154 0v975h157v-764l490 764h180v-975h-158v768l-493 -768h-176z" />
<glyph unicode="&#x439;" horiz-adv-x="1134" d="M154 0v975h157v-764l490 764h180v-975h-158v768l-493 -768h-176zM277 1342h135q8 -68 46 -106t114 -38t110.5 38t42.5 106h138q-4 -117 -74 -190t-217 -73q-150 0 -221.5 73t-73.5 190z" />
<glyph unicode="&#x43a;" horiz-adv-x="1026" d="M154 0v975h163v-397h166l291 397h191l-349 -465l365 -510h-197l-305 434h-162v-434h-163z" />
<glyph unicode="&#x43b;" horiz-adv-x="1089" d="M31 0v152h59q74 0 106.5 47t36.5 153q2 57 4.5 140t3.5 170.5t3 170t2 142.5h690v-975h-164v823h-375q0 -59 -1 -126.5t-3 -132t-3 -124t-3 -102.5q-8 -195 -73.5 -266.5t-207.5 -71.5h-75z" />
<glyph unicode="&#x43c;" horiz-adv-x="1443" d="M154 0v975h241l330 -815l332 815h233v-975h-160v797l-329 -797h-170l-330 799v-799h-147z" />
<glyph unicode="&#x43d;" horiz-adv-x="1155" d="M154 0v975h163v-400h521v400h163v-975h-163v424h-521v-424h-163z" />
<glyph unicode="&#x43e;" horiz-adv-x="1116" d="M94 489q0 242 131 374t338 132q205 0 332 -132t127 -374q0 -238 -127 -373.5t-332 -135.5q-100 0 -187 33.5t-148.5 98t-97.5 161t-36 216.5zM258 489q0 -170 82 -267t223 -97q147 0 221 97t74 267q0 172 -73.5 266.5t-221.5 94.5q-145 0 -225 -94t-80 -267z" />
<glyph unicode="&#x43f;" horiz-adv-x="1138" d="M154 0v975h831v-975h-164v823h-504v-823h-163z" />
<glyph unicode="&#x440;" horiz-adv-x="1179" d="M154 -397v1372h163v-131q53 76 143.5 113.5t190.5 37.5q90 0 169 -31.5t138.5 -94t93 -157t33.5 -214.5q0 -242 -127 -380t-333 -138q-96 0 -175 32.5t-133 93.5v-503h-163zM317 408q0 -133 93.5 -208t216.5 -75q135 0 215 100.5t80 266.5q0 160 -80 259t-219 99 q-57 0 -111.5 -21.5t-97.5 -61.5t-70 -101.5t-27 -141.5v-116z" />
<glyph unicode="&#x441;" horiz-adv-x="1044" d="M94 487q0 129 36 224.5t97.5 159t145.5 94t180 30.5q190 0 289.5 -92t124.5 -215l-150 -29q-18 70 -77.5 130.5t-186.5 60.5q-141 0 -218 -97.5t-77 -265.5q0 -162 76 -262t217 -100q129 0 187.5 60t78.5 132l154 -24q-29 -131 -132.5 -222t-287.5 -91q-203 0 -330 129 t-127 378z" />
<glyph unicode="&#x442;" horiz-adv-x="983" d="M51 823v152h881v-152h-359v-823h-163v823h-359z" />
<glyph unicode="&#x443;" horiz-adv-x="1009" d="M33 975h180l319 -772l287 772h170l-444 -1125q-55 -139 -129 -193t-185 -54h-94v151h62q70 0 121 31t83 113l43 106z" />
<glyph unicode="&#x444;" horiz-adv-x="1419" d="M94 492q0 127 40 217t107.5 149.5t161 89t197.5 33.5h15.5t13.5 2v410h162v-410q12 0 23 -1t24 -1q100 -6 189 -36t155.5 -87t104.5 -147t38 -213q0 -125 -39 -219.5t-105.5 -157t-157.5 -95t-196 -34.5q-8 0 -18 -1t-18 -1v-387h-162v387q-8 0 -18.5 1t-18.5 1 q-104 2 -195.5 33.5t-158 93t-105.5 155t-39 218.5zM258 492q0 -172 88.5 -259.5t233.5 -93.5q12 0 25 -1t26 -1v703q-12 0 -25.5 -1t-23.5 -1q-135 -8 -229.5 -91t-94.5 -255zM788 137q12 0 25.5 1t24.5 1q147 8 235 94t88 259q0 172 -91 255t-232 91q-12 0 -24.5 1 t-25.5 1v-703z" />
<glyph unicode="&#x445;" horiz-adv-x="993" d="M31 0l364 500l-340 475h191l248 -359l251 359h189l-346 -465l377 -510h-197l-276 389l-269 -389h-192z" />
<glyph unicode="&#x446;" horiz-adv-x="1161" d="M154 0v975h163v-823h492v823h164v-823h157v-426h-159v274h-817z" />
<glyph unicode="&#x447;" horiz-adv-x="1021" d="M102 664v311h164v-293q0 -100 62.5 -143t169.5 -43q63 0 113.5 9t93.5 25v445h163v-975h-163v391q-37 -14 -97.5 -25.5t-128.5 -11.5q-182 0 -279.5 75t-97.5 235z" />
<glyph unicode="&#x448;" horiz-adv-x="1601" d="M154 0v975h163v-823h402v823h164v-823h401v823h164v-975h-1294z" />
<glyph unicode="&#x449;" horiz-adv-x="1636" d="M154 0v975h163v-823h402v823h164v-823h401v823h164v-823h158v-426h-160v274h-1292z" />
<glyph unicode="&#x44a;" horiz-adv-x="1224" d="M51 823v152h486v-336h254q172 0 260 -81t88 -228q0 -154 -85 -242t-268 -88h-413v823h-322zM537 147h251q111 0 151 50.5t40 130.5q0 82 -38.5 123t-149.5 41h-254v-345z" />
<glyph unicode="&#x44b;" horiz-adv-x="1378" d="M154 0v975h163v-336h254q170 0 257 -81t87 -228q0 -154 -85 -242t-263 -88h-413zM317 147h252q111 0 151 50.5t40 130.5q0 82 -39 123t-150 41h-254v-345zM1061 0v975h164v-975h-164z" />
<glyph unicode="&#x44c;" horiz-adv-x="1005" d="M154 0v975h163v-336h254q172 0 260.5 -81t88.5 -228q0 -154 -85 -242t-268 -88h-413zM317 147h252q111 0 151 50.5t40 130.5q0 82 -39 123t-150 41h-254v-345z" />
<glyph unicode="&#x44d;" horiz-adv-x="1064" d="M86 293l154 24q23 -84 89 -139t191 -55q129 0 200 75.5t83 217.5h-412v139h414q-14 139 -84 218t-197 79q-123 0 -186.5 -58.5t-89.5 -136.5l-148 33q35 139 145.5 222t278.5 83q203 0 325 -126t122 -382q0 -248 -123 -377.5t-328 -129.5q-184 0 -293.5 83t-140.5 230z " />
<glyph unicode="&#x44e;" horiz-adv-x="1538" d="M154 0v975h163v-406h205q20 205 147.5 315.5t315.5 110.5q205 0 332 -132t127 -374q0 -238 -127 -373.5t-332 -135.5q-188 0 -317 117.5t-148 330.5h-203v-428h-163zM680 489q0 -170 82 -267t223 -97q147 0 221 97t74 267q0 172 -73.5 266.5t-221.5 94.5q-145 0 -225 -94 t-80 -267z" />
<glyph unicode="&#x44f;" horiz-adv-x="1050" d="M86 0l260 377q-115 25 -176 97.5t-61 189.5q0 156 99 233.5t259 77.5h430v-975h-164v367h-219l-238 -367h-190zM270 670q0 -78 51.5 -121t149.5 -43h262v325h-262q-96 0 -148.5 -41.5t-52.5 -119.5z" />
<glyph unicode="&#x450;" horiz-adv-x="1060" d="M90 487q0 121 36 216.5t97.5 160t146.5 98t181 33.5q195 0 309.5 -122.5t114.5 -346.5v-67h-721q8 -164 90 -250t209 -86q115 0 178.5 53t83.5 123l154 -27q-35 -137 -143.5 -214.5t-278.5 -77.5q-209 0 -333 136t-124 371zM260 594h551q-6 113 -69.5 186.5t-192.5 73.5 q-115 0 -191.5 -71.5t-97.5 -188.5zM266 1372l221 -266h160l-184 266h-197z" />
<glyph unicode="&#x451;" horiz-adv-x="1060" d="M90 487q0 121 36 216.5t97.5 160t146.5 98t181 33.5q195 0 309.5 -122.5t114.5 -346.5v-67h-721q8 -164 90 -250t209 -86q115 0 178.5 53t83.5 123l154 -27q-35 -137 -143.5 -214.5t-278.5 -77.5q-209 0 -333 136t-124 371zM258 1163v193h180v-193h-180zM260 594h551 q-6 113 -69.5 186.5t-192.5 73.5q-115 0 -191.5 -71.5t-97.5 -188.5zM635 1163v193h180v-193h-180z" />
<glyph unicode="&#x452;" horiz-adv-x="1110" d="M-10 1147v131h164v115h159v-115h373v-131h-373v-305q49 76 140.5 114.5t185.5 38.5q172 0 268.5 -128t96.5 -449q0 -197 -28 -330t-80 -213t-128 -114.5t-172 -34.5h-74v147h47q70 0 122 25.5t85 87t49.5 165t16.5 259.5q0 252 -59.5 346t-184.5 94q-117 0 -199 -72.5 t-82 -193.5v-584h-163v1147h-164z" />
<glyph unicode="&#x453;" horiz-adv-x="851" d="M154 0v975h647v-152h-484v-823h-163zM369 1106l184 266h197l-221 -266h-160z" />
<glyph unicode="&#x454;" horiz-adv-x="1056" d="M86 487q0 129 37 224.5t100.5 159t148.5 94t181 30.5q190 0 289.5 -92t124.5 -215l-150 -29q-18 70 -77.5 131.5t-186.5 61.5q-125 0 -205 -79t-96 -214h414v-139h-414q14 -135 93 -216t206 -81q129 0 187.5 61.5t78.5 132.5l154 -24q-29 -131 -132.5 -222t-287.5 -91 q-100 0 -186 32.5t-147.5 95t-96.5 158.5t-35 221z" />
<glyph unicode="&#x455;" horiz-adv-x="1009" d="M102 274l154 27q25 -92 90.5 -136t175.5 -44q111 0 168.5 38t57.5 101t-44.5 97t-148.5 53l-127 22q-135 25 -213 87.5t-78 189.5t103.5 206.5t273.5 79.5q178 0 274.5 -84t116.5 -194l-149 -33q-20 72 -76.5 121t-169.5 49q-98 0 -155.5 -39t-57.5 -102q0 -70 49 -97.5 t135 -42.5l125 -22q160 -29 230.5 -99.5t70.5 -187.5q0 -125 -98 -204.5t-291 -79.5q-170 0 -279.5 71t-136.5 223z" />
<glyph unicode="&#x456;" horiz-adv-x="471" d="M143 1163v197h187v-197h-187zM154 0v975h163v-975h-163z" />
<glyph unicode="&#x457;" horiz-adv-x="471" d="M-33 1163v193h180v-193h-180zM154 0v975h163v-975h-163zM344 1163v193h180v-193h-180z" />
<glyph unicode="&#x458;" horiz-adv-x="493" d="M-90 -246h82q100 0 140 45t40 144v1032h164v-1030q0 -178 -78 -260t-252 -82h-96v151zM160 1163v197h186v-197h-186z" />
<glyph unicode="&#x459;" horiz-adv-x="1587" d="M31 0v152h59q72 0 104.5 47t38.5 153q2 57 3.5 140t3.5 170.5t3 170t1 142.5h671v-336h238q172 0 260 -81t88 -228q0 -154 -85 -242t-267 -88h-397v823h-355q-2 -59 -3 -126.5t-3 -132t-3 -124t-1 -102.5q-8 -195 -74.5 -266.5t-206.5 -71.5h-75zM915 147h236 q111 0 150.5 50.5t39.5 130.5q0 82 -38.5 123t-149.5 41h-238v-345z" />
<glyph unicode="&#x45a;" horiz-adv-x="1654" d="M154 0v975h163v-400h500v400h164v-336h240q172 0 260 -81t88 -228q0 -154 -85 -242t-267 -88h-400v424h-500v-424h-163zM981 147h238q111 0 150.5 50.5t39.5 130.5q0 82 -38.5 123t-149.5 41h-240v-345z" />
<glyph unicode="&#x45b;" horiz-adv-x="1140" d="M-10 1147v131h164v115h159v-115h373v-131h-373v-305q49 76 137.5 114.5t180.5 38.5q170 0 270 -89t100 -261v-645h-163v621q0 100 -56.5 163.5t-183.5 63.5q-117 0 -199 -71.5t-82 -192.5v-584h-163v1147h-164z" />
<glyph unicode="&#x45c;" horiz-adv-x="1026" d="M154 0v975h163v-397h166l291 397h191l-349 -465l365 -510h-197l-305 434h-162v-434h-163zM436 1106l184 266h197l-221 -266h-160z" />
<glyph unicode="&#x45d;" horiz-adv-x="1134" d="M154 0v975h157v-764l490 764h180v-975h-158v768l-493 -768h-176zM309 1372l221 -266h160l-184 266h-197z" />
<glyph unicode="&#x45e;" horiz-adv-x="1009" d="M33 975h180l319 -772l287 772h170l-444 -1125q-55 -139 -129 -193t-185 -54h-94v151h62q70 0 121 31t83 113l43 106zM225 1348h135q8 -68 46 -106t114 -38t110.5 38t42.5 106h138q-4 -117 -74 -190t-217 -73q-150 0 -221.5 73t-73.5 190z" />
<glyph unicode="&#x45f;" horiz-adv-x="1126" d="M154 0v975h163v-823h492v823h164v-975h-330v-274h-160v274h-329z" />
<glyph unicode="&#x462;" horiz-adv-x="1564" d="M20 1114v156h412v198h174v-198h625v-156h-625v-293h379q240 0 353.5 -97t113.5 -316q0 -203 -116.5 -305.5t-352.5 -102.5h-551v1114h-412zM606 162h377q160 0 228.5 60.5t68.5 187.5q0 131 -70.5 191.5t-226.5 60.5h-377v-500z" />
<glyph unicode="&#x463;" horiz-adv-x="1212" d="M31 823v152h321v418h162v-418h432v-152h-432v-221h256q162 0 255 -69.5t93 -229.5q0 -158 -91 -230.5t-261 -72.5h-414v823h-321zM514 145h254q102 0 149.5 38t47.5 118q0 82 -47.5 119t-147.5 37h-256v-312z" />
<glyph unicode="&#x472;" horiz-adv-x="1558" d="M113 696q0 164 47 297t134 226.5t211 143.5t275 50q152 0 276 -50t210 -143.5t133 -226.5t47 -297q0 -168 -47 -302t-133 -225t-210 -140t-276 -49t-275.5 49t-210.5 140t-134 225t-47 302zM287 631q16 -223 145 -359.5t348 -136.5t347 136.5t145 359.5h-985zM289 782 h981q-20 215 -148.5 345t-341.5 130t-342 -130t-149 -345z" />
<glyph unicode="&#x473;" horiz-adv-x="1116" d="M94 489q0 242 131 374t338 132q205 0 332 -132t127 -374q0 -238 -127 -373.5t-332 -135.5q-100 0 -187 33.5t-148.5 98t-97.5 161t-36 216.5zM254 428q14 -147 97 -227t212 -80q133 0 209 80t90 227h-608zM256 555h606q-14 145 -90 222t-209 77q-131 0 -212 -77t-95 -222 z" />
<glyph unicode="&#x474;" horiz-adv-x="1396" d="M31 1393h186l479 -1184l348 969q39 111 94.5 163t176.5 52h82v-164h-62q-55 0 -85.5 -24.5t-51.5 -84.5l-414 -1120h-184z" />
<glyph unicode="&#x475;" horiz-adv-x="1052" d="M29 975h174l309 -805l240 627q37 96 81 137t136 41h73v-152h-45q-45 0 -70.5 -21.5t-41.5 -64.5l-295 -737h-174z" />
<glyph unicode="&#x490;" horiz-adv-x="1110" d="M178 0v1393h727v266h164v-430h-715v-1229h-176z" />
<glyph unicode="&#x491;" horiz-adv-x="868" d="M154 0v975h512v192h151v-344h-500v-823h-163z" />
<glyph unicode="&#x492;" horiz-adv-x="1118" d="M35 588v147h143v658h899v-164h-725v-494h391v-147h-391v-588h-174v588h-143z" />
<glyph unicode="&#x493;" horiz-adv-x="851" d="M20 399v131h134v445h647v-152h-488v-293h318v-131h-318v-399h-159v399h-134z" />
<glyph unicode="&#x49a;" horiz-adv-x="1312" d="M178 0v1393h176v-607h260l402 607h215l-475 -686l383 -543h164v-457h-173v293h-98l-422 623h-256v-623h-176z" />
<glyph unicode="&#x49b;" horiz-adv-x="1038" d="M154 0v975h163v-397h166l291 397h191l-349 -465l256 -358h146v-426h-160v274h-74l-305 434h-162v-434h-163z" />
<glyph unicode="&#x4a2;" horiz-adv-x="1533" d="M178 0v1393h176v-609h770v609h176v-1229h185v-457h-172v293h-189v621h-770v-621h-176z" />
<glyph unicode="&#x4a3;" horiz-adv-x="1189" d="M154 0v975h163v-400h521v400h163v-823h158v-426h-160v274h-161v424h-521v-424h-163z" />
<glyph unicode="&#x4ae;" d="M31 1393h207l442 -678l436 678h199l-549 -848v-545h-176v532z" />
<glyph unicode="&#x4af;" horiz-adv-x="1019" d="M29 975h174l313 -787l315 787h168l-407 -971v-401h-164v397z" />
<glyph unicode="&#x4b0;" d="M31 1393h207l442 -678l436 678h199l-514 -785h291v-147h-328v-461h-172v461h-336v147h291z" />
<glyph unicode="&#x4b1;" horiz-adv-x="1019" d="M29 975h174l313 -803l315 803h168l-356 -846h213v-129h-264v-397h-160v397h-268v129h219z" />
<glyph unicode="&#x4ba;" horiz-adv-x="1333" d="M178 0v1393h176v-582q72 16 164 29.5t203 13.5q244 0 361.5 -103.5t117.5 -328.5v-424h-176v387q0 156 -69.5 230.5t-241.5 74.5q-104 0 -190.5 -10t-168.5 -31v-649h-176z" />
<glyph unicode="&#x4bb;" horiz-adv-x="1140" d="M154 0v1393h163v-545q49 72 136.5 109.5t177.5 37.5q170 0 270 -89t100 -261v-645h-163v621q0 100 -56.5 163.5t-183.5 63.5q-117 0 -199 -71.5t-82 -192.5v-584h-163z" />
<glyph unicode="&#x4d8;" horiz-adv-x="1468" d="M113 631q0 31 2 65.5t4 63.5h1061q-14 225 -129 360t-332 135q-174 0 -282.5 -89t-147.5 -230l-162 14q16 109 69.5 195t132.5 145.5t179 91t211 31.5q305 0 471 -191.5t166 -523.5q0 -170 -46 -304t-130 -226t-204 -140t-265 -48q-123 0 -232.5 43t-190.5 125.5 t-128 204.5t-47 278zM283 608q4 -115 39.5 -203t93 -147t134.5 -90t161 -31q213 0 329.5 129t137.5 342h-895z" />
<glyph unicode="&#x4d9;" horiz-adv-x="1069" d="M94 440q0 20 1 40t3 36h717q-8 170 -87 254t-198 84q-111 0 -179 -54.5t-93 -123.5l-149 24q35 141 154.5 218t273.5 77q197 0 319.5 -131t122.5 -377q0 -244 -128 -375.5t-325 -131.5q-201 0 -316.5 121.5t-115.5 338.5zM254 381q6 -111 74.5 -185.5t197.5 -74.5 q117 0 191 71.5t94 188.5h-557z" />
<glyph unicode="&#x4e8;" horiz-adv-x="1558" d="M113 696q0 164 47 297t134 226.5t211 143.5t275 50q152 0 276 -50t210 -143.5t133 -226.5t47 -297q0 -168 -47 -302t-133 -225t-210 -140t-276 -49t-275.5 49t-210.5 140t-134 225t-47 302zM287 631q16 -223 145 -359.5t348 -136.5t347 136.5t145 359.5h-985zM289 782 h981q-20 215 -148.5 345t-341.5 130t-342 -130t-149 -345z" />
<glyph unicode="&#x4e9;" horiz-adv-x="1116" d="M94 489q0 242 131 374t338 132q205 0 332 -132t127 -374q0 -238 -127 -373.5t-332 -135.5q-100 0 -187 33.5t-148.5 98t-97.5 161t-36 216.5zM254 428q14 -147 97 -227t212 -80q133 0 209 80t90 227h-608zM256 555h606q-14 145 -90 222t-209 77q-131 0 -212 -77t-95 -222 z" />
<glyph unicode="&#x2000;" horiz-adv-x="901" />
<glyph unicode="&#x2001;" horiz-adv-x="1802" />
<glyph unicode="&#x2002;" horiz-adv-x="901" />
<glyph unicode="&#x2003;" horiz-adv-x="1802" />
<glyph unicode="&#x2004;" horiz-adv-x="600" />
<glyph unicode="&#x2005;" horiz-adv-x="450" />
<glyph unicode="&#x2006;" horiz-adv-x="300" />
<glyph unicode="&#x2007;" horiz-adv-x="300" />
<glyph unicode="&#x2008;" horiz-adv-x="225" />
<glyph unicode="&#x2009;" horiz-adv-x="360" />
<glyph unicode="&#x200a;" horiz-adv-x="100" />
<glyph unicode="&#x2010;" horiz-adv-x="815" d="M102 469v160h611v-160h-611z" />
<glyph unicode="&#x2011;" horiz-adv-x="815" d="M102 469v160h611v-160h-611z" />
<glyph unicode="&#x2012;" horiz-adv-x="815" d="M102 469v160h611v-160h-611z" />
<glyph unicode="&#x2013;" horiz-adv-x="1148" d="M102 469v160h945v-160h-945z" />
<glyph unicode="&#x2014;" horiz-adv-x="1910" d="M102 469v160h1706v-160h-1706z" />
<glyph unicode="&#x2018;" horiz-adv-x="559" d="M164 895v262q0 123 67.5 181.5t171.5 74.5l23 -108q-70 -12 -108.5 -47t-38.5 -101v-37h108v-225h-223z" />
<glyph unicode="&#x2019;" horiz-adv-x="538" d="M133 983q70 12 109 47t39 100v37h-109v226h223v-263q0 -123 -67.5 -181t-171.5 -75z" />
<glyph unicode="&#x201a;" horiz-adv-x="559" d="M133 -184q70 12 109 47t39 100v37h-109v225h223v-262q0 -123 -67.5 -181t-171.5 -75z" />
<glyph unicode="&#x201c;" horiz-adv-x="907" d="M164 895v262q0 123 67.5 181.5t171.5 74.5l23 -108q-70 -12 -108.5 -47t-38.5 -101v-37h106v-225h-221zM512 895v262q0 123 67.5 181.5t172.5 74.5l22 -108q-70 -12 -108.5 -47t-38.5 -101v-37h108v-225h-223z" />
<glyph unicode="&#x201d;" horiz-adv-x="886" d="M133 983q70 12 109 47t39 100v37h-109v226h223v-263q0 -123 -67.5 -181t-171.5 -75zM481 983q70 12 109 47t39 100v37h-107v226h221v-263q0 -123 -67.5 -181t-171.5 -75z" />
<glyph unicode="&#x201e;" horiz-adv-x="907" d="M133 -184q70 12 109 47t39 100v37h-109v225h223v-262q0 -123 -67.5 -181t-171.5 -75zM481 -184q70 12 109 47t39 100v37h-107v225h221v-262q0 -123 -67.5 -181t-171.5 -75z" />
<glyph unicode="&#x2022;" horiz-adv-x="718" d="M135 733q0 94 65.5 159.5t157.5 65.5q94 0 160 -65.5t66 -159.5t-66 -159.5t-160 -65.5q-92 0 -157.5 65.5t-65.5 159.5z" />
<glyph unicode="&#x2026;" horiz-adv-x="1394" d="M137 0v225h219v-225h-219zM588 0v225h219v-225h-219zM1038 0v225h219v-225h-219z" />
<glyph unicode="&#x202f;" horiz-adv-x="360" />
<glyph unicode="&#x2039;" horiz-adv-x="610" d="M61 494l291 469h187l-289 -469l289 -474h-185z" />
<glyph unicode="&#x203a;" horiz-adv-x="610" d="M72 20l288 474l-288 469h186l291 -469l-293 -474h-184z" />
<glyph unicode="&#x205f;" horiz-adv-x="450" />
<glyph unicode="&#x20ac;" d="M72 485v136h151q-2 18 -2 36.5v36.5v42t2 42h-151v135h166q39 248 170 374t344 126q190 0 309 -94t158 -281l-156 -26q-31 106 -103.5 177t-209.5 71q-139 0 -223.5 -88.5t-112.5 -258.5h518v-135h-533q-2 -20 -2 -41.5v-42.5v-36.5t2 -36.5h533v-136h-518 q29 -168 112.5 -260t225.5 -92q143 0 219 71.5t100 178.5l148 -25q-25 -178 -147 -278t-322 -100q-213 0 -344.5 128t-169.5 377h-164z" />
<glyph unicode="&#x2122;" horiz-adv-x="1611" d="M82 1270v123h586v-123h-226v-533h-135v533h-225zM774 737v656h189l194 -435l180 435h187v-656h-131v490l-185 -428h-112l-193 432v-494h-129z" />
<glyph unicode="&#x25fc;" horiz-adv-x="972" d="M0 0v973h973v-973h-973z" />
</font>
</defs>
</svg>
