<?xml version="1.0" standalone="no"?>
<!DOCTYPE svg PUBLIC "-//W3C//DTD SVG 1.1//EN" "http://www.w3.org/Graphics/SVG/1.1/DTD/svg11.dtd" >
<svg xmlns="http://www.w3.org/2000/svg" xmlns:xlink="http://www.w3.org/1999/xlink" version="1.1">
<metadata></metadata>
<defs>
<font id="cofo_sansbold" horiz-adv-x="1200" >
<font-face units-per-em="2048" ascent="1638" descent="-410" />
<missing-glyph horiz-adv-x="417" />
<glyph horiz-adv-x="0" />
<glyph horiz-adv-x="0" />
<glyph unicode="&#xd;" horiz-adv-x="681" />
<glyph unicode=" "  horiz-adv-x="417" />
<glyph unicode="&#x09;" horiz-adv-x="417" />
<glyph unicode="&#xa0;" horiz-adv-x="417" />
<glyph unicode="!" horiz-adv-x="624" d="M156 1393h315l-39 -951h-237zM166 0v305h293v-305h-293z" />
<glyph unicode="&#x22;" horiz-adv-x="987" d="M123 1413h303l-29 -647h-245zM559 1413h305l-30 -647h-244z" />
<glyph unicode="#" horiz-adv-x="1587" d="M143 242v247h207l27 328h-234v248h254l27 348h260l-27 -348h336l27 348h260l-27 -348h185v-248h-205l-27 -328h232v-247h-250l-31 -385h-260l31 385h-336l-31 -385h-260l31 385h-189zM610 489h336l27 328h-336z" />
<glyph unicode="$" horiz-adv-x="1331" d="M66 391l307 35q18 -70 69.5 -115t132.5 -59v313q-244 33 -361.5 132.5t-117.5 289.5t133 298t346 124v182h187v-182q219 -20 333.5 -123.5t143.5 -273.5l-299 -29q-16 57 -58 99t-120 59v-316q250 -37 366.5 -135t116.5 -284q0 -195 -129 -299.5t-354 -122.5v-183h-187 v181q-223 14 -352.5 115t-156.5 294zM401 999q0 -57 38 -89.5t136 -53.5v289q-82 -12 -128 -50.5t-46 -95.5zM762 248q90 12 134 48t44 93q0 59 -37 94t-141 56v-291z" />
<glyph unicode="%" horiz-adv-x="1841" d="M59 1016q0 203 107.5 299t267.5 96q166 0 268.5 -97t102.5 -298q0 -190 -102.5 -295t-268.5 -105q-160 0 -267.5 97.5t-107.5 302.5zM287 1016q0 -98 38.5 -147.5t108.5 -49.5t105.5 49.5t35.5 147.5q0 94 -35.5 143t-105.5 49t-108.5 -49t-38.5 -143zM422 0l823 1393 h174l-821 -1393h-176zM1036 381q0 201 107.5 298t267.5 97q166 0 268.5 -97t102.5 -298q0 -190 -102.5 -294.5t-268.5 -104.5q-160 0 -267.5 97t-107.5 302zM1264 379q0 -98 38.5 -146.5t108.5 -48.5t105.5 48.5t35.5 146.5q0 94 -35.5 144t-105.5 50t-108.5 -49t-38.5 -145 z" />
<glyph unicode="&#x26;" horiz-adv-x="1525" d="M78 397q0 154 89 248t206 127q-43 57 -70 120.5t-27 135.5q0 170 119 277.5t330 107.5q197 0 307.5 -101.5t110.5 -267.5q0 -154 -85 -243.5t-227 -132.5l226 -230q51 53 85 129t48 156l248 -45q-20 -125 -80 -232.5t-129 -183.5l258 -262h-361l-96 96 q-76 -51 -173 -83.5t-226 -32.5q-254 0 -403.5 105t-149.5 312zM375 416q0 -88 72.5 -142.5t195.5 -54.5q59 0 112.5 14.5t98.5 38.5l-319 322q-72 -18 -116 -62t-44 -116zM547 1040q0 -53 28.5 -97t79.5 -95l29 6q90 20 142.5 67.5t52.5 118.5q0 70 -44 110t-120 40 q-74 0 -121 -42t-47 -108z" />
<glyph unicode="'" horiz-adv-x="552" d="M123 1413h307l-29 -647h-249z" />
<glyph unicode="(" horiz-adv-x="890" d="M131 557q0 160 36 304.5t100.5 267t153.5 226t193 183.5l158 -182q-154 -135 -255 -343t-101 -456q0 -229 91 -443t263 -362l-158 -184q-213 160 -347 420t-134 569z" />
<glyph unicode=")" horiz-adv-x="890" d="M119 -248q76 68 141.5 157t112.5 191.5t73.5 217t26.5 231.5q0 240 -90 448.5t-262 356.5l160 184q211 -160 345 -413.5t134 -575.5q0 -156 -36 -299.5t-100.5 -267t-152.5 -229t-192 -185.5z" />
<glyph unicode="*" horiz-adv-x="821" d="M57 977l199 86l-199 86l103 178l174 -129l-25 215h205l-25 -215l173 129l102 -178l-197 -86l197 -86l-102 -176l-173 127l25 -213h-205l25 215l-174 -129z" />
<glyph unicode="+" horiz-adv-x="1331" d="M147 528v246h392v395h254v-395h391v-246h-391v-395h-254v395h-392z" />
<glyph unicode="," horiz-adv-x="497" d="M66 -174q86 14 125.5 52t39.5 104v18h-133v305h303v-305q0 -147 -79.5 -230t-233.5 -102z" />
<glyph unicode="-" horiz-adv-x="788" d="M88 436v256h612v-256h-612z" />
<glyph unicode="." horiz-adv-x="489" d="M98 0v305h293v-305h-293z" />
<glyph unicode="/" horiz-adv-x="1071" d="M106 -397l592 1886h269l-592 -1886h-269z" />
<glyph unicode="0" horiz-adv-x="1449" d="M88 696q0 350 166 533.5t471 183.5q307 0 472 -183t165 -534q0 -358 -165 -537t-472 -179q-305 0 -471 179t-166 537zM412 696q0 -231 81.5 -333.5t231.5 -102.5q152 0 232.5 102.5t80.5 333.5q0 233 -80.5 335t-232.5 102q-150 0 -231.5 -101.5t-81.5 -335.5z" />
<glyph unicode="1" horiz-adv-x="1134" d="M39 1120l401 273h357v-1117h317v-276h-997v276h372v795l-292 -186z" />
<glyph unicode="2" horiz-adv-x="1296" d="M61 963q33 199 179.5 324.5t418.5 125.5q262 0 401.5 -123t139.5 -327q0 -172 -100.5 -277.5t-265.5 -216.5l-273 -180h647v-289h-1124v281l526 352q141 94 204 159.5t63 163.5q0 80 -59.5 131.5t-174.5 51.5q-106 0 -179 -59.5t-95 -178.5z" />
<glyph unicode="3" horiz-adv-x="1347" d="M66 381l309 59q20 -92 91 -139t204 -47q141 0 210.5 50t69.5 134q0 96 -72.5 138t-207.5 42q-47 0 -95.5 -7t-89.5 -17l-82 221l435 303h-703v275h1075v-303l-395 -271h2q92 0 174 -21.5t142.5 -66.5t96.5 -116.5t36 -174.5q0 -219 -162 -339.5t-445 -120.5 q-264 0 -409.5 105t-183.5 296z" />
<glyph unicode="4" horiz-adv-x="1368" d="M66 287v321l612 785h452v-840h173v-266h-173v-287h-290v287h-774zM354 553h486v614z" />
<glyph unicode="5" horiz-adv-x="1341" d="M86 360l305 62q23 -82 92.5 -126t194.5 -44q145 0 203.5 55t58.5 150q0 92 -65.5 144t-204.5 52q-76 0 -136.5 -19.5t-117.5 -58.5l-285 82l68 736h960v-283h-708l-25 -272q66 35 144.5 51t160.5 16q244 0 384 -108.5t140 -339.5q0 -221 -146 -349t-425 -128 q-274 0 -416.5 101t-181.5 279z" />
<glyph unicode="6" horiz-adv-x="1378" d="M100 666q0 395 159 571t458 176q225 0 367.5 -90t195.5 -285l-297 -59q-23 76 -88.5 120t-175.5 44q-154 0 -235 -93.5t-87 -295.5q51 61 141.5 99t219.5 38q244 0 384 -104.5t140 -335.5q0 -219 -146.5 -345t-418.5 -126q-326 0 -471.5 174t-145.5 512zM444 446 q0 -94 64.5 -144t200.5 -50q131 0 194.5 49t63.5 143t-63.5 144.5t-198.5 50.5q-129 0 -195 -48t-66 -145z" />
<glyph unicode="7" horiz-adv-x="1226" d="M63 1110v283h1100v-340l-598 -1053h-364l643 1110h-781z" />
<glyph unicode="8" horiz-adv-x="1415" d="M113 395q0 123 59 200t164 114q-106 41 -152.5 118.5t-46.5 171.5q0 190 143.5 302t436.5 112q297 0 432 -105.5t135 -287.5q0 -117 -54 -190.5t-163 -112.5q113 -35 175.5 -112.5t62.5 -192.5q0 -203 -146.5 -317.5t-443.5 -114.5q-307 0 -454.5 108.5t-147.5 306.5z M426 420q0 -88 69.5 -131t215.5 -43q147 0 214.5 45t67.5 127t-66.5 127t-213.5 43q-145 0 -216 -43t-71 -125zM436 991q0 -82 67 -122t214 -40q139 0 201.5 44.5t62.5 119.5q0 72 -62.5 113t-203.5 41t-210 -40t-69 -116z" />
<glyph unicode="9" horiz-adv-x="1378" d="M96 942q0 219 147.5 345t418.5 126q326 0 471 -174t145 -512q0 -395 -157.5 -571t-456.5 -176q-225 0 -368.5 90t-195.5 284l297 60q20 -76 86 -120t179 -44q154 0 233.5 93t87.5 296q-53 -61 -142 -99t-220 -38q-244 0 -384.5 104.5t-140.5 335.5zM414 948 q0 -94 62.5 -144t199.5 -50q129 0 194.5 48t65.5 144q0 94 -65.5 144.5t-198.5 50.5t-195.5 -49.5t-62.5 -143.5z" />
<glyph unicode=":" horiz-adv-x="481" d="M94 0v305h293v-305h-293zM94 698v305h293v-305h-293z" />
<glyph unicode=";" horiz-adv-x="489" d="M60 -174q86 14 125.5 52t39.5 104v18h-133v305h303v-305q0 -147 -79.5 -230t-233.5 -102zM98 698v305h293v-305h-293z" />
<glyph unicode="&#x3c;" horiz-adv-x="1331" d="M174 508v289l983 415v-282l-672 -277l672 -274v-283z" />
<glyph unicode="=" horiz-adv-x="1331" d="M178 270v258h977v-258h-977zM178 762v256h977v-256h-977z" />
<glyph unicode="&#x3e;" horiz-adv-x="1331" d="M174 96v283l672 276l-672 275v282l983 -411v-289z" />
<glyph unicode="?" horiz-adv-x="1077" d="M37 1014q20 182 153.5 289.5t368.5 107.5q240 0 356.5 -110.5t114.5 -286.5q0 -141 -61.5 -215t-143.5 -119l-71 -39q-55 -33 -77 -59.5t-22 -75.5v-64h-282v138q0 80 32.5 130t112.5 89l76 41q70 33 104.5 67.5t34.5 96.5q0 66 -46 103.5t-136 37.5q-96 0 -152.5 -43 t-70.5 -121zM375 0v305h295v-305h-295z" />
<glyph unicode="@" horiz-adv-x="1822" d="M100 483q0 190 62.5 345t175.5 261.5t270.5 164t345.5 57.5q176 0 321.5 -51.5t248 -145.5t159 -228t56.5 -300q0 -254 -99.5 -387t-265.5 -133q-109 0 -170 43t-84 106q-23 -66 -90 -107.5t-162 -41.5q-158 0 -258 110.5t-100 306.5q0 100 28.5 178t77 131.5t114 80 t136.5 26.5q66 0 120 -26.5t83 -59.5v74h240v-518q0 -53 22.5 -78t61.5 -25q57 0 94 81t37 233q0 129 -42 230t-117 169t-180.5 103.5t-232.5 35.5q-141 0 -257.5 -46t-198.5 -129t-128 -200.5t-46 -259.5q0 -150 44 -263.5t123.5 -189t191.5 -114.5t245 -39q92 0 190 24.5 t156 57.5l84 -166q-66 -51 -189 -85t-254 -34q-182 0 -332.5 53.5t-257 156t-165 254t-58.5 345.5zM762 485q0 -100 45 -154.5t117 -54.5q63 0 106 45.5t43 137.5v57q0 88 -43 130t-106 42q-70 0 -116 -53t-46 -150z" />
<glyph unicode="A" horiz-adv-x="1478" d="M25 0l510 1393h407l512 -1393h-328l-112 322h-559l-111 -322h-319zM551 596h367l-185 526z" />
<glyph unicode="B" horiz-adv-x="1390" d="M154 0v1393h647q219 0 343 -93.5t124 -289.5q0 -92 -47 -177t-170 -126q141 -33 198.5 -119t57.5 -207q0 -190 -129 -285.5t-373 -95.5h-651zM461 256h309q121 0 170 40t49 122t-50 121t-171 39h-307v-322zM461 827h293q113 0 157.5 41t44.5 119q0 76 -43.5 113 t-154.5 37h-297v-310z" />
<glyph unicode="C" horiz-adv-x="1492" d="M98 696q0 182 51.5 317.5t141.5 223.5t215 132t272 44q281 0 436.5 -124t196.5 -345l-309 -49q-29 104 -105.5 174t-218.5 70q-164 0 -265 -115t-101 -328q0 -211 99 -326.5t263 -115.5q147 0 225 68.5t105 179.5l309 -51q-45 -227 -200.5 -349t-436.5 -122 q-152 0 -277.5 46t-213.5 135t-137.5 224t-49.5 311z" />
<glyph unicode="D" horiz-adv-x="1505" d="M154 0v1393h536q346 0 532.5 -170t186.5 -527q0 -358 -188.5 -527t-548.5 -169h-518zM463 279h211q221 0 319.5 104t98.5 313q0 217 -99.5 317.5t-320.5 100.5h-209v-835z" />
<glyph unicode="E" horiz-adv-x="1277" d="M154 0v1393h1009v-269h-700v-295h672v-260h-672v-301h694v-268h-1003z" />
<glyph unicode="F" horiz-adv-x="1239" d="M154 0v1393h1009v-271h-700v-315h663v-262h-663v-545h-309z" />
<glyph unicode="G" horiz-adv-x="1556" d="M98 698q0 182 52.5 317.5t145.5 223.5t222 131t283 43q256 0 416.5 -109.5t207.5 -330.5l-315 -49q-27 90 -101.5 152.5t-207.5 62.5q-182 0 -284.5 -115t-102.5 -326q0 -213 102 -326.5t283 -113.5q147 0 241.5 65.5t102.5 151.5h-318v244h600v-719h-251v145 q-76 -78 -181.5 -121.5t-240.5 -43.5q-143 0 -264 46t-207 136t-134.5 225t-48.5 311z" />
<glyph unicode="H" horiz-adv-x="1525" d="M154 0v1393h309v-547h600v547h309v-1393h-309v557h-600v-557h-309z" />
<glyph unicode="I" horiz-adv-x="614" d="M154 0v1393h309v-1393h-309z" />
<glyph unicode="J" horiz-adv-x="839" d="M47 0v285h143q106 0 155.5 44t49.5 144v920h310v-947q0 -227 -108 -336.5t-331 -109.5h-219z" />
<glyph unicode="K" horiz-adv-x="1411" d="M154 0v1393h309v-549h166l389 549h362l-499 -678l514 -715h-375l-391 557h-166v-557h-309z" />
<glyph unicode="L" horiz-adv-x="1175" d="M154 0v1393h309v-1104h667v-289h-976z" />
<glyph unicode="M" horiz-adv-x="1884" d="M154 0v1393h421l373 -893l371 893h414v-1393h-301v979l-361 -850h-268l-361 840v-969h-288z" />
<glyph unicode="N" horiz-adv-x="1579" d="M154 0v1393h325l645 -922v922h301v-1393h-331l-639 911v-911h-301z" />
<glyph unicode="O" horiz-adv-x="1593" d="M96 698q0 178 52.5 312.5t144.5 223.5t221 134t283 45t282.5 -45t221 -134t144.5 -223t52 -313q0 -182 -52 -317t-144.5 -224t-221 -133t-282.5 -44t-283 44t-221 133t-144.5 224t-52.5 317zM412 698q0 -207 100.5 -325.5t284.5 -118.5t284.5 119t100.5 325 q0 207 -100.5 324t-284.5 117t-284.5 -117t-100.5 -324z" />
<glyph unicode="P" horiz-adv-x="1355" d="M154 0v1393h626q231 0 369.5 -111t138.5 -352q0 -236 -140 -348.5t-382 -112.5h-303v-469h-309zM463 735h280q123 0 176.5 48t53.5 147q0 104 -53.5 150t-176.5 46h-280v-391z" />
<glyph unicode="Q" horiz-adv-x="1593" d="M96 698q0 178 52.5 312.5t144.5 223.5t221 134t283 45t282.5 -45t221 -134t144.5 -223t52 -313q0 -199 -64.5 -339t-175.5 -228l127 -166l-213 -160l-151 205q-51 -14 -108.5 -22t-114.5 -8q-154 0 -283 44t-221 133t-144.5 224t-52.5 317zM412 698q0 -213 100.5 -332.5 t284.5 -119.5h27.5t27.5 2l-207 268h311l121 -164q51 59 78 147.5t27 198.5q0 207 -100.5 324t-284.5 117t-284.5 -117t-100.5 -324z" />
<glyph unicode="R" horiz-adv-x="1411" d="M154 0v1393h622q231 0 370.5 -111t139.5 -352q0 -160 -67.5 -262.5t-188.5 -147.5l313 -520h-348l-276 475h-256v-475h-309zM463 737h278q123 0 176.5 48.5t53.5 144.5q0 104 -53.5 150t-176.5 46h-278v-389z" />
<glyph unicode="S" horiz-adv-x="1374" d="M90 385l316 51q20 -94 100 -143t203 -49q127 0 195.5 39t68.5 104q0 55 -38 89t-142 54l-246 52q-182 37 -300 125t-118 290q0 195 151.5 305.5t413.5 110.5q274 0 416.5 -107.5t175.5 -291.5l-313 -49q-14 70 -79 127t-204 57q-119 0 -182.5 -40t-63.5 -103t48.5 -96 t158.5 -54l281 -57q172 -35 265 -130.5t93 -267.5q0 -203 -153.5 -312t-434.5 -109q-262 0 -417.5 98t-194.5 307z" />
<glyph unicode="T" horiz-adv-x="1335" d="M41 1104v289h1253v-289h-471v-1104h-309v1104h-473z" />
<glyph unicode="U" horiz-adv-x="1495" d="M139 563v830h310v-836q0 -147 70.5 -224t236.5 -77q160 0 225.5 77t65.5 224v836h309v-830q0 -293 -145.5 -438t-454.5 -145q-307 0 -462 145t-155 438z" />
<glyph unicode="V" horiz-adv-x="1417" d="M16 1393h336l369 -1047l364 1047h324l-512 -1393h-367z" />
<glyph unicode="W" horiz-adv-x="2160" d="M23 1393h315l285 -1004l297 1004h346l303 -1002l276 1002h303l-411 -1393h-348l-304 997l-303 -997h-348z" />
<glyph unicode="X" horiz-adv-x="1433" d="M23 0l489 717l-475 676h377l303 -443l284 443h375l-467 -684l502 -709h-379l-327 485l-312 -485h-370z" />
<glyph unicode="Y" horiz-adv-x="1433" d="M16 1393h363l348 -607l346 607h352l-548 -914v-479h-310v477z" />
<glyph unicode="Z" horiz-adv-x="1392" d="M111 0v285l761 821h-753v287h1161v-285l-776 -821h788v-287h-1181z" />
<glyph unicode="[" horiz-adv-x="821" d="M135 -397v1886h578v-254h-310v-1378h310v-254h-578z" />
<glyph unicode="\" horiz-adv-x="1071" d="M106 1489h269l592 -1886h-271z" />
<glyph unicode="]" horiz-adv-x="821" d="M106 -143h310v1378h-310v254h580v-1886h-580v254z" />
<glyph unicode="^" horiz-adv-x="1239" d="M84 641l373 752h327l377 -752h-299l-241 514l-240 -514h-297z" />
<glyph unicode="_" horiz-adv-x="944" d="M0 -139h944v-258h-944v258z" />
<glyph unicode="`" horiz-adv-x="663" d="M104 1417l238 -297h256l-182 297h-312z" />
<glyph unicode="a" horiz-adv-x="1101" d="M82 279q0 158 101.5 228.5t273.5 82.5q68 4 130 4t113 -2v72q0 68 -41 99.5t-114 31.5q-66 0 -108 -32t-56 -101l-266 40q23 137 133 229.5t301 92.5q92 0 172 -18.5t138.5 -60.5t92 -113.5t33.5 -176.5v-655h-272v113q-47 -66 -123 -99.5t-168 -33.5q-143 0 -241.5 77.5 t-98.5 221.5zM369 301q0 -51 37.5 -78.5t99.5 -27.5q88 0 141 40.5t53 108.5v64q-39 2 -90 2t-98 -2q-61 -4 -102 -30t-41 -77z" />
<glyph unicode="b" d="M125 0v1393h293v-484q63 63 137 89t154 26q88 0 165.5 -33t135 -97.5t91.5 -160.5t34 -223q0 -131 -34 -230.5t-94.5 -166t-143.5 -100t-179 -33.5q-82 0 -151.5 26.5t-122.5 81.5v-88h-285zM418 422q0 -86 57 -141.5t154 -55.5q98 0 154.5 73t56.5 206 q0 129 -56.5 201.5t-154.5 72.5q-94 0 -152.5 -56t-58.5 -151v-149z" />
<glyph unicode="c" horiz-adv-x="1069" d="M63 500q0 127 37 225t102.5 163.5t158 100.5t200.5 35q106 0 186 -28.5t135.5 -76t88.5 -112t45 -133.5l-262 -49q-14 63 -57.5 111t-131.5 48q-98 0 -155.5 -72.5t-57.5 -207.5q0 -137 54.5 -211t154.5 -74q88 0 132.5 45t58.5 115l266 -35q-31 -166 -146.5 -265 t-312.5 -99q-225 0 -360.5 133t-135.5 387z" />
<glyph unicode="d" d="M66 496q0 131 34.5 230t95 164.5t144.5 99.5t180 34q82 0 149.5 -26.5t112.5 -71.5v467h293v-1393h-284v104q-47 -59 -119 -91.5t-172 -32.5q-90 0 -170 33.5t-138.5 98t-92 162t-33.5 222.5zM360 502q0 -129 56.5 -203t156.5 -74q102 0 155.5 60.5t53.5 148.5v139 q0 94 -53 149.5t-147 55.5q-104 0 -163 -72.5t-59 -203.5z" />
<glyph unicode="e" horiz-adv-x="1085" d="M61 502q0 129 39 227t105.5 163.5t157 98.5t192.5 33q229 0 347 -143.5t118 -374.5v-68h-676q8 -117 65.5 -174t151.5 -57q90 0 134 42t59 85l260 -49q-14 -57 -48 -112.5t-89.5 -97.5t-134 -68.5t-183.5 -26.5q-233 0 -365.5 139t-132.5 383zM350 618h393 q-8 88 -57 133.5t-131 45.5q-74 0 -129 -42t-76 -137z" />
<glyph unicode="f" horiz-adv-x="768" d="M27 748v256h168v63q0 190 97 258t281 68h177v-240h-125q-72 0 -105 -23.5t-33 -91.5v-34h244v-256h-244v-748h-292v748h-168z" />
<glyph unicode="g" horiz-adv-x="1196" d="M70 510q0 127 33.5 223t94 160.5t144.5 97.5t180 33q92 0 164 -36t113 -93v109h276v-967q0 -123 -37 -210t-103.5 -140.5t-160.5 -79t-205 -25.5q-193 0 -317.5 84t-151.5 244l277 37q14 -66 68.5 -97.5t123.5 -31.5q100 0 163 47t63 172v104q-41 -59 -116 -91t-175 -32 q-90 0 -170 31t-138.5 92.5t-92 154.5t-33.5 214zM365 514q0 -123 57 -190.5t158 -67.5q92 0 150 54.5t58 156.5v117q0 94 -57 146t-149 52q-100 0 -158.5 -70.5t-58.5 -197.5z" />
<glyph unicode="h" d="M125 0v1393h293v-508q49 61 124.5 100t186.5 39q156 0 255 -90t99 -262v-672h-292v606q0 88 -46.5 128t-134.5 40q-76 0 -134 -42t-58 -122v-610h-293z" />
<glyph unicode="i" horiz-adv-x="542" d="M121 1141v258h301v-258h-301zM125 0v1004h293v-1004h-293z" />
<glyph unicode="j" horiz-adv-x="565" d="M-82 -147h72q82 0 118.5 33.5t36.5 109.5v1008h295v-1024q0 -197 -89 -287t-290 -90h-143v250zM141 1141v258h301v-258h-301z" />
<glyph unicode="k" horiz-adv-x="1120" d="M125 0v1393h293v-744h114l226 355h321l-303 -455l330 -549h-330l-246 422h-112v-422h-293z" />
<glyph unicode="l" horiz-adv-x="542" d="M125 0v1393h293v-1393h-293z" />
<glyph unicode="m" horiz-adv-x="1839" d="M125 0v1004h285v-127q47 63 123.5 105t187.5 42q119 0 193.5 -49t109.5 -125q57 88 149.5 131t202.5 43q154 0 251 -91t97 -263v-670h-294v608q0 82 -45.5 125t-129.5 43q-72 0 -128 -45t-56 -121v-610h-295v608q0 80 -45 123t-127 43q-74 0 -130 -44t-56 -120v-610h-293 z" />
<glyph unicode="n" d="M125 0v1004h285v-132q49 66 128.5 109t190.5 43q154 0 254 -90t100 -262v-672h-292v606q0 88 -48.5 128t-132.5 40q-74 0 -133 -42t-59 -122v-610h-293z" />
<glyph unicode="o" horiz-adv-x="1142" d="M63 504q0 244 137.5 382t370.5 138q238 0 373 -138t135 -382t-135 -384t-373 -140q-233 0 -370.5 140t-137.5 384zM352 504q0 -139 60.5 -211t158.5 -72q100 0 160 72t60 211t-59.5 208.5t-160.5 69.5q-98 0 -158.5 -68.5t-60.5 -209.5z" />
<glyph unicode="p" d="M125 -397v1401h287v-119q45 61 122.5 100t178.5 39q90 0 166.5 -33t133 -97.5t89.5 -160.5t33 -223q0 -131 -35 -230.5t-96.5 -166t-145.5 -100t-180 -33.5q-82 0 -148.5 23.5t-111.5 66.5v-467h-293zM418 422q0 -86 57 -141.5t154 -55.5q98 0 154.5 73t56.5 206 q0 129 -56.5 201.5t-154.5 72.5q-94 0 -152.5 -57t-58.5 -152v-147z" />
<glyph unicode="q" d="M66 494q0 131 34.5 230t95 165.5t143.5 100.5t179 34q100 0 170 -36t111 -89v105h278v-1401h-295v491q-43 -57 -110.5 -85.5t-169.5 -28.5q-90 0 -170 33.5t-139.5 98t-93 161t-33.5 221.5zM360 502q0 -129 55.5 -203t155.5 -74q104 0 157.5 60.5t53.5 148.5v139 q0 94 -54 149.5t-146 55.5q-104 0 -163 -71.5t-59 -204.5z" />
<glyph unicode="r" horiz-adv-x="761" d="M125 0v1004h283v-123q57 76 127.5 99.5t138.5 23.5h76v-259h-95q-100 0 -168.5 -38.5t-68.5 -118.5v-588h-293z" />
<glyph unicode="s" horiz-adv-x="1026" d="M68 295l266 33q14 -61 60 -93t128 -32q86 0 124 21.5t38 60.5t-27.5 60.5t-115.5 37.5l-138 25q-147 27 -226 95t-79 197q0 158 120 241t308 83q174 0 291 -78t139 -217l-256 -51q-12 55 -54 90t-126 35q-76 0 -113.5 -22.5t-37.5 -61.5t30.5 -56.5t100.5 -31.5l129 -25 q152 -29 240.5 -96.5t88.5 -200.5q0 -147 -113.5 -238t-328.5 -91q-190 0 -306.5 80.5t-141.5 234.5z" />
<glyph unicode="t" horiz-adv-x="804" d="M25 748v256h151v245h295v-245h268v-256h-268v-353q0 -80 34 -109.5t101 -29.5h137v-256h-174q-205 0 -299 88t-94 301v359h-151z" />
<glyph unicode="u" horiz-adv-x="1196" d="M117 332v672h293v-605q0 -86 46 -128t132 -42q82 0 136 47.5t54 116.5v611h293v-1004h-285v115q-51 -57 -134 -96t-187 -39q-156 0 -252 90t-96 262z" />
<glyph unicode="v" horiz-adv-x="1107" d="M20 1004h308l235 -730l232 730h301l-348 -1004h-379z" />
<glyph unicode="w" horiz-adv-x="1644" d="M20 1004h302l165 -687l181 687h331l185 -689l168 689h280l-289 -1004h-335l-185 680l-186 -680h-334z" />
<glyph unicode="x" horiz-adv-x="1105" d="M23 0l339 526l-323 478h328l188 -291l174 291h340l-328 -490l349 -514h-336l-203 328l-186 -328h-342z" />
<glyph unicode="y" horiz-adv-x="1124" d="M20 1004h328l246 -680l213 680h303l-371 -1043q-74 -211 -167 -284.5t-279 -73.5h-137v256h104q70 0 111 20.5t63 77.5l4 12z" />
<glyph unicode="z" horiz-adv-x="1077" d="M94 0v254l529 494h-517v256h883v-252l-528 -496h532v-256h-899z" />
<glyph unicode="{" horiz-adv-x="919" d="M61 414v260h41q86 0 137.5 46t51.5 173v227q0 203 96 286t256 83h174v-254h-110q-82 0 -117 -36t-35 -130v-231q0 -123 -43 -191.5t-125 -101.5q82 -33 125 -102.5t43 -192.5v-219q0 -104 35 -139t117 -35h110v-254h-174q-160 0 -256 80.5t-96 287.5v224q0 127 -51.5 173 t-137.5 46h-41z" />
<glyph unicode="|" horiz-adv-x="688" d="M217 -397v1886h254v-1886h-254z" />
<glyph unicode="}" horiz-adv-x="919" d="M102 -143h111q82 0 117 34.5t35 139.5v219q0 123 43 192.5t124 102.5q-82 33 -124.5 101.5t-42.5 191.5v231q0 94 -35 130t-117 36h-111v254h174q160 0 256.5 -83t96.5 -286v-227q0 -127 51 -173t135 -46h43v-260h-43q-84 0 -135 -46t-51 -173v-224q0 -207 -96.5 -287.5 t-256.5 -80.5h-174v254z" />
<glyph unicode="~" horiz-adv-x="1347" d="M102 469q2 176 88 292t250 116q53 0 109.5 -19.5t109 -43t100.5 -43t85 -19.5q68 0 96.5 35.5t36.5 86.5h252q-4 -176 -90 -291.5t-248 -115.5q-51 0 -107.5 19.5t-109.5 43t-102.5 43t-86.5 19.5q-68 0 -96.5 -36t-36.5 -87h-250z" />
<glyph unicode="&#xa2;" horiz-adv-x="1331" d="M137 705q0 223 123 357t326 161v190h178v-188q195 -16 297 -113.5t133 -245.5l-260 -55q-16 61 -58 107.5t-112 62.5v-551q74 16 114 61.5t52 98.5l266 -37q-25 -150 -131.5 -249t-300.5 -116v-188h-178v190q-205 25 -327 156t-122 359zM426 711q0 -104 42 -173t118 -96 v531q-74 -27 -117 -94.5t-43 -167.5z" />
<glyph unicode="&#xa3;" horiz-adv-x="1331" d="M113 508v194h174q-33 63 -63.5 134t-30.5 159q0 195 139 306.5t370 111.5q225 0 346 -100.5t146 -265.5l-301 -48q-8 61 -53 108.5t-140 47.5q-92 0 -143 -48t-51 -128q0 -78 32.5 -142.5t63.5 -134.5h361v-194h-318q-2 -74 -30.5 -139.5t-75.5 -106.5h669v-262h-1050 v262q100 14 146 85t46 155v4v2h-237z" />
<glyph unicode="&#xa5;" horiz-adv-x="1331" d="M25 1393h362l283 -545l282 545h353l-398 -713h213v-195h-299v-100h299v-195h-299v-190h-309v190h-299v195h299v100h-299v195h209z" />
<glyph unicode="&#xa8;" horiz-adv-x="856" d="M84 1141v256h270v-256h-270zM500 1141v256h270v-256h-270z" />
<glyph unicode="&#xa9;" horiz-adv-x="1669" d="M115 633q0 152 55 284t151.5 228t228.5 151.5t284 55.5t283.5 -55.5t228 -151.5t152.5 -228.5t56 -283.5q0 -152 -56 -283t-152.5 -226t-228 -150.5t-283.5 -55.5t-284 55.5t-228.5 150.5t-151.5 226t-55 283zM258 633q0 -123 44 -230.5t121 -185.5t182.5 -123t228.5 -45 t228 45t183 123t122 185.5t44 230.5t-44 230.5t-122 186t-183.5 125t-227.5 46.5q-123 0 -228.5 -46.5t-182.5 -125t-121 -186t-44 -230.5zM444 631q0 102 32 183t86 136.5t128 84t158 28.5q145 0 236.5 -79t115.5 -200l-209 -47q-14 41 -49 72t-98 31q-80 0 -127 -57.5 t-47 -151.5q0 -90 48 -145.5t128 -55.5q61 0 97 28.5t48 67.5l209 -45q-18 -119 -113.5 -196.5t-236.5 -77.5q-178 0 -292 113.5t-114 310.5z" />
<glyph unicode="&#xab;" horiz-adv-x="1243" d="M70 502l290 469h302l-289 -469l289 -473h-300zM567 502l291 469h303l-289 -469l291 -473h-303z" />
<glyph unicode="&#xad;" horiz-adv-x="788" d="M88 436v256h612v-256h-612z" />
<glyph unicode="&#xae;" horiz-adv-x="1140" d="M94 936q0 100 37 188t100.5 151.5t151.5 100.5t188 37t187.5 -37t152 -100.5t101.5 -151.5t37 -188t-37 -188.5t-101.5 -152t-152 -100t-187.5 -36.5t-187 36.5t-151.5 100t-101.5 152t-37 188.5zM205 936q0 -160 104 -267.5t262 -107.5t262.5 107.5t104.5 267.5 t-103.5 267.5t-263.5 107.5t-263 -107.5t-103 -267.5zM352 702v472h250q102 0 153.5 -39t51.5 -121q0 -57 -23.5 -94t-70.5 -54l110 -164h-176l-92 148h-41v-148h-162zM514 961h70q35 0 49 12t14 37q0 23 -14 35t-49 12h-70v-96z" />
<glyph unicode="&#xb4;" horiz-adv-x="663" d="M66 1120l182 297h311l-237 -297h-256z" />
<glyph unicode="&#xb8;" horiz-adv-x="700" d="M84 -285l174 35q8 -33 31.5 -49t62.5 -16q41 0 63.5 15t22.5 46q0 35 -33.5 48t-107.5 11l-61 -4v105l86 96h165l-71 -80q100 -2 155.5 -43t55.5 -129q0 -92 -75 -144t-200 -52q-123 0 -188.5 39.5t-79.5 121.5z" />
<glyph unicode="&#xbb;" horiz-adv-x="1243" d="M80 29l291 471l-291 471h303l291 -469l-293 -473h-301zM582 29l288 473l-288 469h301l291 -469l-293 -473h-299z" />
<glyph unicode="&#x2c6;" horiz-adv-x="903" d="M88 1120l217 297h293l217 -297h-250l-112 168l-115 -168h-250z" />
<glyph unicode="&#x2da;" horiz-adv-x="602" d="M78 1292q0 96 61.5 158.5t161.5 62.5q98 0 160.5 -62t62.5 -159q0 -94 -62.5 -155.5t-160.5 -61.5q-100 0 -161.5 61.5t-61.5 155.5zM219 1292q0 -33 21.5 -56.5t60.5 -23.5q37 0 59.5 24t22.5 56q0 33 -22.5 57.5t-59.5 24.5q-39 0 -60.5 -24.5t-21.5 -57.5z" />
<glyph unicode="&#x2dc;" horiz-adv-x="780" d="M63 1133v36q0 102 51.5 172t145.5 70q39 0 69.5 -12.5t56.5 -27.5t48.5 -27.5t44.5 -12.5q27 0 42.5 17.5t15.5 48.5v16h182v-39q0 -100 -44 -170.5t-138 -70.5q-41 0 -76 13t-63.5 27.5t-52 27.5t-44.5 13q-27 0 -42 -19t-15 -52v-10h-181z" />
<glyph unicode="&#x400;" horiz-adv-x="1277" d="M154 0v1393h1009v-269h-700v-295h672v-260h-672v-301h694v-268h-1003zM303 1794h328l197 -287h-279z" />
<glyph unicode="&#x401;" horiz-adv-x="1277" d="M154 0v1393h1009v-269h-700v-295h672v-260h-672v-301h694v-268h-1003zM322 1536v248h266v-248h-266zM736 1536v248h266v-248h-266z" />
<glyph unicode="&#x402;" horiz-adv-x="1646" d="M41 1104v289h1210v-289h-506v-275q63 12 141.5 20.5t149.5 8.5q252 0 390.5 -95t138.5 -337t-131 -334t-355 -92h-90v260h60q102 0 158.5 35t56.5 123q0 90 -59.5 131t-198.5 41q-72 0 -139.5 -7.5t-121.5 -15.5v-567h-309v1104h-395z" />
<glyph unicode="&#x403;" horiz-adv-x="1142" d="M154 0v1393h948v-289h-639v-1104h-309zM446 1509l197 287h328l-246 -287h-279z" />
<glyph unicode="&#x404;" horiz-adv-x="1488" d="M98 696q0 180 49.5 315.5t138.5 224.5t214 133t276 44q281 0 433.5 -121t197.5 -336l-309 -49q-27 94 -102.5 163t-223.5 69q-135 0 -230.5 -79t-123.5 -231h516v-266h-516q29 -154 125 -231.5t233 -77.5q143 0 218 67.5t104 161.5l309 -49q-41 -205 -194.5 -329.5 t-434.5 -124.5q-147 0 -272 43t-215 130t-141.5 223t-51.5 320z" />
<glyph unicode="&#x405;" horiz-adv-x="1374" d="M90 385l316 51q20 -94 100 -143t203 -49q127 0 195.5 39t68.5 104q0 55 -38 89t-142 54l-246 52q-182 37 -300 125t-118 290q0 195 151.5 305.5t413.5 110.5q274 0 416.5 -107.5t175.5 -291.5l-313 -49q-14 70 -79 127t-204 57q-119 0 -182.5 -40t-63.5 -103t48.5 -96 t158.5 -54l281 -57q172 -35 265 -130.5t93 -267.5q0 -203 -153.5 -312t-434.5 -109q-262 0 -417.5 98t-194.5 307z" />
<glyph unicode="&#x406;" horiz-adv-x="614" d="M154 0v1393h309v-1393h-309z" />
<glyph unicode="&#x407;" horiz-adv-x="614" d="M-29 1554v248h266v-248h-266zM154 0v1393h309v-1393h-309zM385 1554v248h266v-248h-266z" />
<glyph unicode="&#x408;" horiz-adv-x="839" d="M47 0v285h143q106 0 155.5 44t49.5 144v920h310v-947q0 -227 -108 -336.5t-331 -109.5h-219z" />
<glyph unicode="&#x409;" horiz-adv-x="2187" d="M27 0v297h69q90 0 141.5 41t53.5 162q2 82 4 188.5t4 224t2 241.5v239h1006v-475h276q242 0 382 -109t140 -356q0 -231 -139 -342t-371 -111h-598v1104h-395q-2 -150 -4 -324t-6 -321q-8 -260 -116.5 -359.5t-330.5 -99.5h-118zM1307 270h254q123 0 176 43t53 146 q0 98 -53 143t-176 45h-254v-377z" />
<glyph unicode="&#x40a;" horiz-adv-x="2211" d="M154 0v1393h309v-547h559v547h309v-475h277q242 0 382 -109t140 -356q0 -231 -139.5 -342t-368.5 -111h-600v557h-559v-557h-309zM1331 270h254q123 0 176.5 43t53.5 146q0 98 -53.5 143t-176.5 45h-254v-377z" />
<glyph unicode="&#x40b;" horiz-adv-x="1671" d="M41 1104v289h1210v-289h-506v-285q63 10 144.5 20.5t163.5 10.5q268 0 389 -110.5t121 -364.5v-375h-306v317q0 143 -64.5 202t-199.5 59q-63 0 -128.5 -7.5t-119.5 -15.5v-555h-309v1104h-395z" />
<glyph unicode="&#x40c;" horiz-adv-x="1411" d="M154 0v1393h309v-549h166l389 549h362l-499 -678l514 -715h-375l-391 557h-166v-557h-309zM545 1507l197 287h328l-246 -287h-279z" />
<glyph unicode="&#x40d;" horiz-adv-x="1572" d="M154 0v1393h307v-947l639 947h319v-1393h-307v946l-643 -946h-315zM440 1794h328l197 -287h-279z" />
<glyph unicode="&#x40e;" horiz-adv-x="1363" d="M16 1393h349l350 -748l323 748h318l-477 -1063q-41 -90 -83 -153.5t-96.5 -102.5t-128 -56.5t-174.5 -17.5h-161v285h120q70 0 115 12t78 43zM303 1800h252q8 -72 41 -108.5t111 -36.5t109.5 35.5t35.5 109.5h256q-4 -172 -101.5 -256t-299.5 -84q-205 0 -303.5 84 t-100.5 256z" />
<glyph unicode="&#x40f;" horiz-adv-x="1521" d="M154 0v1393h309v-1104h596v1104h309v-1393h-459v-291h-297v291h-458z" />
<glyph unicode="&#x410;" horiz-adv-x="1478" d="M25 0l510 1393h407l512 -1393h-328l-112 322h-559l-111 -322h-319zM551 596h367l-185 526z" />
<glyph unicode="&#x411;" horiz-adv-x="1372" d="M154 0v1393h1038v-277h-729v-264h328q238 0 366.5 -92t128.5 -324q0 -231 -129 -333.5t-360 -102.5h-643zM463 266h303q113 0 164 37t51 125t-52 123t-163 35h-303v-320z" />
<glyph unicode="&#x412;" horiz-adv-x="1390" d="M154 0v1393h647q219 0 343 -93.5t124 -289.5q0 -92 -47 -177t-170 -126q141 -33 198.5 -119t57.5 -207q0 -190 -129 -285.5t-373 -95.5h-651zM461 256h309q121 0 170 40t49 122t-50 121t-171 39h-307v-322zM461 827h293q113 0 157.5 41t44.5 119q0 76 -43.5 113 t-154.5 37h-297v-310z" />
<glyph unicode="&#x413;" horiz-adv-x="1142" d="M154 0v1393h948v-289h-639v-1104h-309z" />
<glyph unicode="&#x414;" horiz-adv-x="1587" d="M18 289h142q66 57 107.5 173t43.5 251q0 23 1 119t1 209.5v216v135.5h1045v-1104h201v-580h-297v291h-949v-291h-295v580zM494 289h555v815h-435q0 -18 -1 -79.5t-2 -131.5t-3 -131.5t-2 -81.5q-4 -117 -30.5 -214t-81.5 -177z" />
<glyph unicode="&#x415;" horiz-adv-x="1277" d="M154 0v1393h1009v-269h-700v-295h672v-260h-672v-301h694v-268h-1003z" />
<glyph unicode="&#x416;" horiz-adv-x="2078" d="M16 0l480 713l-473 680h362l363 -549h137v549h309v-549h139l361 549h364l-475 -680l481 -713h-381l-360 565h-129v-565h-309v565h-127l-363 -565h-379z" />
<glyph unicode="&#x417;" horiz-adv-x="1384" d="M84 424l309 47q18 -100 96 -158.5t220 -58.5q135 0 205.5 42t70.5 128q0 80 -56.5 115.5t-180.5 35.5h-213v256h217q111 0 156.5 38t45.5 112q0 76 -61 117t-186 41q-133 0 -204 -58.5t-95 -158.5l-314 51q41 203 195.5 321.5t423.5 118.5q262 0 407.5 -102.5 t145.5 -298.5q0 -111 -57.5 -187.5t-174.5 -111.5q125 -27 194.5 -102.5t69.5 -209.5q0 -190 -146 -305.5t-447 -115.5q-276 0 -435 113.5t-186 330.5z" />
<glyph unicode="&#x418;" horiz-adv-x="1572" d="M154 0v1393h307v-947l639 947h319v-1393h-307v946l-643 -946h-315z" />
<glyph unicode="&#x419;" horiz-adv-x="1572" d="M154 0v1393h307v-947l639 947h319v-1393h-307v946l-643 -946h-315zM387 1800h252q8 -72 41 -108.5t111 -36.5t109.5 35.5t35.5 109.5h256q-4 -172 -101.5 -256t-299.5 -84q-205 0 -303.5 84t-100.5 256z" />
<glyph unicode="&#x41a;" horiz-adv-x="1411" d="M154 0v1393h309v-549h166l389 549h362l-499 -678l514 -715h-375l-391 557h-166v-557h-309z" />
<glyph unicode="&#x41b;" horiz-adv-x="1501" d="M27 0v297h69q90 0 141.5 41t53.5 162q2 82 4 188.5t4 224t2 241.5v239h1047v-1393h-310v1104h-436q-2 -150 -4 -324t-6 -321q-8 -260 -116.5 -359.5t-330.5 -99.5h-118z" />
<glyph unicode="&#x41c;" horiz-adv-x="1884" d="M154 0v1393h421l373 -893l371 893h414v-1393h-301v979l-361 -850h-268l-361 840v-969h-288z" />
<glyph unicode="&#x41d;" horiz-adv-x="1525" d="M154 0v1393h309v-547h600v547h309v-1393h-309v557h-600v-557h-309z" />
<glyph unicode="&#x41e;" horiz-adv-x="1593" d="M96 698q0 178 52.5 312.5t144.5 223.5t221 134t283 45t282.5 -45t221 -134t144.5 -223t52 -313q0 -182 -52 -317t-144.5 -224t-221 -133t-282.5 -44t-283 44t-221 133t-144.5 224t-52.5 317zM412 698q0 -207 100.5 -325.5t284.5 -118.5t284.5 119t100.5 325 q0 207 -100.5 324t-284.5 117t-284.5 -117t-100.5 -324z" />
<glyph unicode="&#x41f;" horiz-adv-x="1529" d="M154 0v1393h1222v-1393h-307v1104h-606v-1104h-309z" />
<glyph unicode="&#x420;" horiz-adv-x="1355" d="M154 0v1393h626q231 0 369.5 -111t138.5 -352q0 -236 -140 -348.5t-382 -112.5h-303v-469h-309zM463 735h280q123 0 176.5 48t53.5 147q0 104 -53.5 150t-176.5 46h-280v-391z" />
<glyph unicode="&#x421;" horiz-adv-x="1492" d="M98 696q0 182 51.5 317.5t141.5 223.5t215 132t272 44q281 0 436.5 -124t196.5 -345l-309 -49q-29 104 -105.5 174t-218.5 70q-164 0 -265 -115t-101 -328q0 -211 99 -326.5t263 -115.5q147 0 225 68.5t105 179.5l309 -51q-45 -227 -200.5 -349t-436.5 -122 q-152 0 -277.5 46t-213.5 135t-137.5 224t-49.5 311z" />
<glyph unicode="&#x422;" horiz-adv-x="1335" d="M41 1104v289h1253v-289h-471v-1104h-309v1104h-473z" />
<glyph unicode="&#x423;" horiz-adv-x="1363" d="M16 1393h349l350 -748l323 748h318l-477 -1063q-41 -90 -83 -153.5t-96.5 -102.5t-128 -56.5t-174.5 -17.5h-161v285h120q70 0 115 12t78 43z" />
<glyph unicode="&#x424;" horiz-adv-x="1859" d="M88 711q0 152 53.5 263t144.5 183t218 106.5t272 34.5v160h309v-160h5q147 0 273 -35.5t216 -108.5t141.5 -183.5t51.5 -259.5q0 -152 -51.5 -265.5t-141.5 -187.5t-216 -110.5t-273 -36.5h-5v-168h-309v168q-147 0 -273 36.5t-218 110.5t-144.5 187.5t-52.5 265.5z M401 711q0 -88 31 -152.5t83 -105.5t121.5 -60.5t147.5 -19.5v663q-78 0 -147.5 -17.5t-121.5 -56t-83 -100t-31 -151.5zM1077 373q78 0 147.5 19.5t121 60.5t82 105.5t30.5 152.5q0 90 -29.5 152.5t-81 100t-120 55t-146.5 17.5h-4v-663z" />
<glyph unicode="&#x425;" horiz-adv-x="1433" d="M23 0l489 717l-475 676h377l303 -443l284 443h375l-467 -684l502 -709h-379l-327 485l-312 -485h-370z" />
<glyph unicode="&#x426;" horiz-adv-x="1595" d="M154 0v1393h309v-1104h596v1104h309v-1104h201v-580h-297v291h-1118z" />
<glyph unicode="&#x427;" horiz-adv-x="1415" d="M102 981v412h310v-369q0 -143 66.5 -202.5t223.5 -59.5q66 0 129.5 5t120.5 15v611h310v-1393h-310v510q-61 -10 -142 -19.5t-169 -9.5q-297 0 -418 116t-121 384z" />
<glyph unicode="&#x428;" horiz-adv-x="2127" d="M154 0v1393h309v-1104h446v1104h310v-1104h446v1104h309v-1393h-1820z" />
<glyph unicode="&#x429;" horiz-adv-x="2201" d="M154 0v1393h309v-1104h446v1104h310v-1104h446v1104h309v-1104h199v-580h-295v291h-1724z" />
<glyph unicode="&#x42a;" horiz-adv-x="1626" d="M41 1104v289h682v-475h299q242 0 382 -109t140 -356q0 -231 -139 -342t-371 -111h-620v1104h-373zM723 270h276q123 0 176.5 43t53.5 146q0 98 -53.5 143t-176.5 45h-276v-377z" />
<glyph unicode="&#x42b;" horiz-adv-x="1912" d="M154 0v1393h309v-475h295q242 0 382 -109t140 -356q0 -231 -139.5 -342t-370.5 -111h-616zM463 270h272q123 0 176.5 43t53.5 146q0 98 -53.5 143t-176.5 45h-272v-377zM1450 0v1393h309v-1393h-309z" />
<glyph unicode="&#x42c;" horiz-adv-x="1370" d="M154 0v1393h309v-475h303q242 0 382 -109t140 -356q0 -231 -139 -342t-369 -111h-626zM463 270h280q123 0 176.5 43t53.5 146q0 98 -53.5 143t-176.5 45h-280v-377z" />
<glyph unicode="&#x42d;" horiz-adv-x="1490" d="M84 436l309 49q27 -102 111 -166.5t231 -64.5q139 0 227.5 79t112.5 234h-516v264h518q-25 158 -109.5 233t-226.5 75q-131 0 -221 -61.5t-125 -168.5l-309 49q63 225 238.5 339t412.5 114q145 0 266 -42t207 -129t134.5 -221t48.5 -314q0 -365 -179.5 -545t-488.5 -180 q-262 0 -430 113.5t-211 342.5z" />
<glyph unicode="&#x42e;" horiz-adv-x="2168" d="M154 0v1393h309v-551h227q18 141 77.5 249.5t149 179t207 106.5t252.5 36q152 0 281 -45t220 -134t143.5 -223t52.5 -313q0 -182 -52.5 -317t-143.5 -224t-220 -133t-281 -44q-135 0 -252.5 34.5t-207 105t-148.5 179.5t-78 254h-227v-553h-309zM995 698 q0 -207 98.5 -324.5t282.5 -117.5q182 0 281.5 118t99.5 324q0 207 -99 323t-282 116q-184 0 -282.5 -116t-98.5 -323z" />
<glyph unicode="&#x42f;" horiz-adv-x="1431" d="M82 0l315 510q-131 45 -204.5 150.5t-73.5 279.5q0 231 139 342t369 111h651v-1393h-309v475h-258l-283 -475h-346zM434 934q0 -98 53.5 -143.5t176.5 -45.5h305v377h-305q-123 0 -176.5 -44t-53.5 -144z" />
<glyph unicode="&#x430;" horiz-adv-x="1101" d="M82 279q0 158 101.5 228.5t273.5 82.5q68 4 130 4t113 -2v72q0 68 -41 99.5t-114 31.5q-66 0 -108 -32t-56 -101l-266 40q23 137 133 229.5t301 92.5q92 0 172 -18.5t138.5 -60.5t92 -113.5t33.5 -176.5v-655h-272v113q-47 -66 -123 -99.5t-168 -33.5q-143 0 -241.5 77.5 t-98.5 221.5zM369 301q0 -51 37.5 -78.5t99.5 -27.5q88 0 141 40.5t53 108.5v64q-39 2 -90 2t-98 -2q-61 -4 -102 -30t-41 -77z" />
<glyph unicode="&#x431;" horiz-adv-x="1171" d="M90 584v129q0 180 40 305t116 205t188.5 120.5t253.5 55.5q100 8 188.5 18t157.5 19l27 -271q-74 -8 -165 -17t-187 -20q-170 -16 -255 -88.5t-85 -226.5q49 70 136 109t187 39q180 0 297 -117t117 -361q0 -233 -129 -367t-359 -134q-279 0 -403.5 152.5t-124.5 449.5z M389 492q0 -147 59.5 -214t159.5 -67q98 0 153.5 69.5t55.5 192.5q0 127 -53 194.5t-154 67.5q-94 0 -157.5 -53t-63.5 -139v-51z" />
<glyph unicode="&#x432;" horiz-adv-x="1069" d="M125 0v1004h477q178 0 276.5 -65t98.5 -200q0 -61 -29.5 -121.5t-111.5 -97.5q88 -27 128 -85t40 -146q0 -135 -90.5 -212t-280.5 -77h-508zM406 209h198q72 0 100.5 23.5t28.5 74.5q0 53 -29.5 77t-99.5 24h-198v-199zM406 606h172q68 0 98.5 20.5t30.5 71.5t-28 74 t-104 23h-169v-189z" />
<glyph unicode="&#x433;" horiz-adv-x="862" d="M125 0v1004h700v-256h-407v-748h-293z" />
<glyph unicode="&#x434;" horiz-adv-x="1220" d="M12 256h107q45 37 71.5 97.5t30.5 142.5q4 84 6 211t4 297h822v-748h147v-530h-287v274h-614v-274h-287v530zM420 256h340v492h-264q0 -70 -1 -145t-3 -120q-2 -74 -22.5 -130t-49.5 -97z" />
<glyph unicode="&#x435;" horiz-adv-x="1085" d="M61 502q0 129 39 227t105.5 163.5t157 98.5t192.5 33q229 0 347 -143.5t118 -374.5v-68h-676q8 -117 65.5 -174t151.5 -57q90 0 134 42t59 85l260 -49q-14 -57 -48 -112.5t-89.5 -97.5t-134 -68.5t-183.5 -26.5q-233 0 -365.5 139t-132.5 383zM350 618h393 q-8 88 -57 133.5t-131 45.5q-74 0 -129 -42t-76 -137z" />
<glyph unicode="&#x436;" horiz-adv-x="1597" d="M16 0l310 535l-293 469h315l217 -375h88v375h289v-375h88l219 375h314l-293 -472l311 -532h-324l-227 406h-88v-406h-289v406h-86l-227 -406h-324z" />
<glyph unicode="&#x437;" horiz-adv-x="1077" d="M59 336l265 35q10 -76 62.5 -121t152.5 -45q94 0 142 27.5t48 76.5q0 51 -35 75t-119 24h-159v194h153q76 0 110 23.5t34 70.5q0 45 -41 74t-123 29q-98 0 -150.5 -43t-70.5 -119l-260 49q31 160 155.5 249t325.5 89q213 0 326.5 -79t113.5 -220q0 -72 -41 -126t-119 -81 q82 -18 132.5 -70.5t50.5 -152.5q0 -150 -126 -232.5t-347 -82.5q-219 0 -339 94t-141 262z" />
<glyph unicode="&#x438;" horiz-adv-x="1206" d="M125 0v1004h285v-615l372 615h301v-1004h-284v621l-385 -621h-289z" />
<glyph unicode="&#x439;" horiz-adv-x="1206" d="M125 0v1004h285v-615l372 615h301v-1004h-284v621l-385 -621h-289zM250 1387h227q2 -74 32 -108t95 -34q63 0 90 34t29 108h231q0 -141 -76.5 -230.5t-273.5 -89.5q-201 0 -276.5 89t-77.5 231z" />
<glyph unicode="&#x43a;" horiz-adv-x="1118" d="M125 0v1004h293v-373h117l231 373h321l-305 -469l322 -535h-328l-241 406h-117v-406h-293z" />
<glyph unicode="&#x43b;" horiz-adv-x="1177" d="M27 0v256h59q76 0 103.5 35t31.5 139q2 57 3 133t2 155t1 154.5v131.5h828v-1004h-295v748h-266q0 -45 -1 -97.5t-2.5 -103.5t-2.5 -99.5t-3 -82.5q-4 -197 -71.5 -281t-255.5 -84h-131z" />
<glyph unicode="&#x43c;" horiz-adv-x="1579" d="M125 0v1004h432l242 -676l235 676h420v-1004h-276v717l-260 -717h-277l-260 715v-715h-256z" />
<glyph unicode="&#x43d;" horiz-adv-x="1193" d="M125 0v1004h293v-363h358v363h293v-1004h-293v387h-358v-387h-293z" />
<glyph unicode="&#x43e;" horiz-adv-x="1142" d="M63 504q0 244 137.5 382t370.5 138q238 0 373 -138t135 -382t-135 -384t-373 -140q-233 0 -370.5 140t-137.5 384zM352 504q0 -139 60.5 -211t158.5 -72q100 0 160 72t60 211t-59.5 208.5t-160.5 69.5q-98 0 -158.5 -68.5t-60.5 -209.5z" />
<glyph unicode="&#x43f;" horiz-adv-x="1183" d="M125 0v1004h934v-1004h-293v748h-348v-748h-293z" />
<glyph unicode="&#x440;" d="M125 -397v1401h287v-119q45 61 122.5 100t178.5 39q90 0 166.5 -33t133 -97.5t89.5 -160.5t33 -223q0 -131 -35 -230.5t-96.5 -166t-145.5 -100t-180 -33.5q-82 0 -148.5 23.5t-111.5 66.5v-467h-293zM418 422q0 -86 57 -141.5t154 -55.5q98 0 154.5 73t56.5 206 q0 129 -56.5 201.5t-154.5 72.5q-94 0 -152.5 -57t-58.5 -152v-147z" />
<glyph unicode="&#x441;" horiz-adv-x="1069" d="M63 500q0 127 37 225t102.5 163.5t158 100.5t200.5 35q106 0 186 -28.5t135.5 -76t88.5 -112t45 -133.5l-262 -49q-14 63 -57.5 111t-131.5 48q-98 0 -155.5 -72.5t-57.5 -207.5q0 -137 54.5 -211t154.5 -74q88 0 132.5 45t58.5 115l266 -35q-31 -166 -146.5 -265 t-312.5 -99q-225 0 -360.5 133t-135.5 387z" />
<glyph unicode="&#x442;" horiz-adv-x="995" d="M37 748v256h921v-256h-313v-748h-295v748h-313z" />
<glyph unicode="&#x443;" horiz-adv-x="1124" d="M20 1004h328l246 -680l213 680h303l-371 -1043q-74 -211 -167 -284.5t-279 -73.5h-137v256h104q70 0 111 20.5t63 77.5l4 12z" />
<glyph unicode="&#x444;" horiz-adv-x="1527" d="M63 504q0 129 41 225t113 157.5t173.5 93.5t221.5 36v377h287v-375q4 -2 10 -2h11q119 -4 219 -36t172.5 -93.5t112.5 -156.5t40 -224t-40 -226.5t-112.5 -161t-174 -96t-222.5 -36.5h-8h-8v-383h-287v383h-2q-121 4 -221 36.5t-173 96t-113 160t-40 225.5zM352 504 q0 -139 66.5 -208t179.5 -75h9h9v561h-8h-8q-111 -6 -179.5 -73.5t-68.5 -204.5zM897 219q8 0 15.5 1t15.5 1q115 6 180.5 75t65.5 208q0 137 -66.5 204.5t-179.5 73.5q-8 0 -15.5 1t-15.5 1v-565z" />
<glyph unicode="&#x445;" horiz-adv-x="1105" d="M23 0l339 526l-323 478h328l188 -291l174 291h340l-328 -490l349 -514h-336l-203 328l-186 -328h-342z" />
<glyph unicode="&#x446;" horiz-adv-x="1212" d="M125 0v1004h293v-748h332v748h294v-748h148v-530h-287v274h-780z" />
<glyph unicode="&#x447;" horiz-adv-x="1118" d="M82 674v330h293v-289q0 -88 43 -121t131 -33q47 0 85 8.5t66 20.5v414h293v-1004h-293v354q-41 -14 -100 -24.5t-133 -10.5q-190 0 -287.5 87.5t-97.5 267.5z" />
<glyph unicode="&#x448;" horiz-adv-x="1689" d="M125 0v1004h293v-748h280v748h293v-748h281v748h295v-1004h-1442z" />
<glyph unicode="&#x449;" horiz-adv-x="1734" d="M125 0v1004h293v-748h280v748h293v-748h281v748h295v-748h147v-530h-287v274h-1302z" />
<glyph unicode="&#x44a;" horiz-adv-x="1277" d="M37 745v259h577v-283h228q174 0 273 -87t99 -265q0 -182 -96 -275.5t-280 -93.5h-519v745h-282zM614 233h140q94 0 131 29t37 105q0 70 -40 95t-128 25h-140v-254z" />
<glyph unicode="&#x44b;" horiz-adv-x="1529" d="M125 0v1004h293v-283h215q174 0 273.5 -87t99.5 -265q0 -182 -96.5 -275.5t-278.5 -93.5h-506zM418 233h139q94 0 131 29t37 105q0 70 -39 95t-127 25h-141v-254zM1112 0v1004h293v-1004h-293z" />
<glyph unicode="&#x44c;" horiz-adv-x="1083" d="M125 0v1004h293v-283h227q176 0 274.5 -87t98.5 -265q0 -182 -95.5 -275.5t-279.5 -93.5h-518zM418 233h139q94 0 131 29t37 105q0 70 -39 95t-127 25h-141v-254z" />
<glyph unicode="&#x44d;" horiz-adv-x="1087" d="M61 340l263 33q14 -74 69.5 -119t143.5 -45t139 49t67 143h-317v209h315q-16 90 -68 137.5t-134 47.5t-136.5 -42t-74.5 -124l-256 49q33 160 155.5 253t315.5 93q221 0 351 -131t130 -385q0 -246 -127 -387t-358 -141q-207 0 -327 94t-151 266z" />
<glyph unicode="&#x44e;" horiz-adv-x="1630" d="M125 0v1004h293v-375h149q33 188 161 291.5t331 103.5q236 0 372 -138t136 -382t-136.5 -384t-371.5 -140q-201 0 -331 106.5t-161 296.5h-149v-383h-293zM840 504q0 -139 60.5 -211t158.5 -72q100 0 159.5 72t59.5 211t-59.5 208.5t-159.5 69.5t-159.5 -68.5 t-59.5 -209.5z" />
<glyph unicode="&#x44f;" horiz-adv-x="1132" d="M68 0l225 352q-100 33 -154.5 111t-54.5 199q0 160 102.5 251t292.5 91h531v-1004h-295v328h-133l-197 -328h-317zM379 662q0 -53 37.5 -82t109.5 -29h189v225h-189q-76 0 -111.5 -28.5t-35.5 -85.5z" />
<glyph unicode="&#x450;" horiz-adv-x="1085" d="M61 502q0 129 39 227t105.5 163.5t157 98.5t192.5 33q229 0 347 -143.5t118 -374.5v-68h-676q8 -117 65.5 -174t151.5 -57q90 0 134 42t59 85l260 -49q-14 -57 -48 -112.5t-89.5 -97.5t-134 -68.5t-183.5 -26.5q-233 0 -365.5 139t-132.5 383zM208 1417l238 -297h256 l-182 297h-312zM350 618h393q-8 88 -57 133.5t-131 45.5q-74 0 -129 -42t-76 -137z" />
<glyph unicode="&#x451;" horiz-adv-x="1085" d="M61 502q0 129 39 227t105.5 163.5t157 98.5t192.5 33q229 0 347 -143.5t118 -374.5v-68h-676q8 -117 65.5 -174t151.5 -57q90 0 134 42t59 85l260 -49q-14 -57 -48 -112.5t-89.5 -97.5t-134 -68.5t-183.5 -26.5q-233 0 -365.5 139t-132.5 383zM201 1141v256h270v-256 h-270zM350 618h393q-8 88 -57 133.5t-131 45.5q-74 0 -129 -42t-76 -137zM617 1141v256h270v-256h-270z" />
<glyph unicode="&#x452;" horiz-adv-x="1161" d="M-25 1114v178h150v101h289v-101h321v-178h-321v-229q51 63 131 101t176 38q86 0 152.5 -27.5t112.5 -95t69.5 -182.5t23.5 -289q0 -385 -97 -544.5t-331 -159.5h-88v239h45q102 0 140 97.5t38 347.5q0 215 -39.5 293.5t-142.5 78.5q-76 0 -131 -45t-55 -125v-612h-293 v1114h-150z" />
<glyph unicode="&#x453;" horiz-adv-x="862" d="M125 0v1004h700v-256h-407v-748h-293zM310 1120l182 297h311l-237 -297h-256z" />
<glyph unicode="&#x454;" horiz-adv-x="1077" d="M61 496q0 250 131.5 389t358.5 139q209 0 326.5 -97t144.5 -263l-260 -33q-14 70 -66.5 117t-142.5 47q-86 0 -139.5 -49.5t-71.5 -143.5h317v-209h-315q18 -88 71.5 -136t135.5 -48q86 0 137 42t72 122l258 -45q-33 -158 -151.5 -253t-317.5 -95q-219 0 -353.5 132 t-134.5 384z" />
<glyph unicode="&#x455;" horiz-adv-x="1026" d="M68 295l266 33q14 -61 60 -93t128 -32q86 0 124 21.5t38 60.5t-27.5 60.5t-115.5 37.5l-138 25q-147 27 -226 95t-79 197q0 158 120 241t308 83q174 0 291 -78t139 -217l-256 -51q-12 55 -54 90t-126 35q-76 0 -113.5 -22.5t-37.5 -61.5t30.5 -56.5t100.5 -31.5l129 -25 q152 -29 240.5 -96.5t88.5 -200.5q0 -147 -113.5 -238t-328.5 -91q-190 0 -306.5 80.5t-141.5 234.5z" />
<glyph unicode="&#x456;" horiz-adv-x="542" d="M121 1141v258h301v-258h-301zM125 0v1004h293v-1004h-293z" />
<glyph unicode="&#x457;" horiz-adv-x="542" d="M-61 1141v256h270v-256h-270zM125 0v1004h293v-1004h-293zM342 1141v256h270v-256h-270z" />
<glyph unicode="&#x458;" horiz-adv-x="565" d="M-82 -147h72q82 0 118.5 33.5t36.5 109.5v1008h295v-1024q0 -197 -89 -287t-290 -90h-143v250zM141 1141v258h301v-258h-301z" />
<glyph unicode="&#x459;" horiz-adv-x="1708" d="M27 0v256h59q74 0 102.5 35t32.5 139q2 57 3 133t2 155t1 154.5v131.5h822v-283h223q174 0 273.5 -87t99.5 -265q0 -182 -96.5 -275.5t-280.5 -93.5h-514v748h-260q0 -45 -1 -97.5t-3.5 -103.5t-3.5 -99.5t-1 -82.5q-4 -197 -72.5 -281t-254.5 -84h-131zM1049 233h135 q94 0 131 29t37 105q0 70 -40 95t-128 25h-135v-254z" />
<glyph unicode="&#x45a;" horiz-adv-x="1724" d="M125 0v1004h293v-363h352v363h293v-283h223q176 0 275.5 -87t99.5 -265q0 -182 -96.5 -275.5t-280.5 -93.5h-514v387h-352v-387h-293zM1063 233h137q94 0 131 29t37 105q0 70 -40 95t-128 25h-137v-254z" />
<glyph unicode="&#x45b;" d="M-25 1114v178h150v101h289v-101h321v-178h-321v-235q47 63 125.5 104t189.5 41q156 0 255 -90t99 -262v-672h-292v606q0 88 -46.5 128t-134.5 40q-76 0 -134 -42t-58 -122v-610h-293v1114h-150z" />
<glyph unicode="&#x45c;" horiz-adv-x="1118" d="M125 0v1004h293v-373h117l231 373h321l-305 -469l322 -535h-328l-241 406h-117v-406h-293zM431 1120l182 297h311l-237 -297h-256z" />
<glyph unicode="&#x45d;" horiz-adv-x="1206" d="M125 0v1004h285v-615l372 615h301v-1004h-284v621l-385 -621h-289zM286 1417l238 -297h256l-182 297h-312z" />
<glyph unicode="&#x45e;" horiz-adv-x="1124" d="M20 1004h328l246 -680l213 680h303l-371 -1043q-74 -211 -167 -284.5t-279 -73.5h-137v256h104q70 0 111 20.5t63 77.5l4 12zM225 1383h227q2 -74 32 -108t95 -34q63 0 90 34t29 108h231q0 -141 -76.5 -230.5t-273.5 -89.5q-201 0 -276.5 89t-77.5 231z" />
<glyph unicode="&#x45f;" horiz-adv-x="1179" d="M125 0v1004h293v-748h344v748h293v-1004h-322v-274h-287v274h-321z" />
<glyph unicode="&#x462;" horiz-adv-x="1609" d="M20 1055v262h373v164h305v-164h590v-262h-590v-211h328q238 0 368 -96.5t130 -325.5q0 -221 -129 -321.5t-361 -100.5h-641v1055h-373zM698 264h324q104 0 152.5 36t48.5 120q0 86 -49.5 123t-151.5 37h-324v-316z" />
<glyph unicode="&#x463;" horiz-adv-x="1277" d="M31 768v236h282v389h289v-389h406v-236h-408v-137h221q184 0 285.5 -69.5t101.5 -244.5q0 -172 -99 -244.5t-290 -72.5h-506v768h-282zM600 217h188q76 0 110 22.5t34 73.5q0 55 -35 77t-109 22h-188v-195z" />
<glyph unicode="&#x472;" horiz-adv-x="1593" d="M96 698q0 178 52.5 312.5t144.5 223.5t221 134t283 45t282.5 -45t221 -134t144.5 -223t52 -313q0 -182 -52 -317t-144.5 -224t-221 -133t-282.5 -44t-283 44t-221 133t-144.5 224t-52.5 317zM416 578q27 -156 126 -242t255 -86t254 86t125 242h-760zM416 821h760 q-27 154 -126 238t-253 84t-254.5 -84t-126.5 -238z" />
<glyph unicode="&#x473;" horiz-adv-x="1142" d="M63 504q0 244 137.5 382t370.5 138q238 0 373 -138t135 -382t-135 -384t-373 -140q-233 0 -370.5 140t-137.5 384zM352 416q18 -100 76.5 -149.5t142.5 -49.5q88 0 145.5 49t74.5 150h-439zM352 594h439q-18 98 -76 145t-144 47t-143 -47t-76 -145z" />
<glyph unicode="&#x474;" horiz-adv-x="1468" d="M16 1393h336l377 -1049l264 776q51 152 124 212.5t235 60.5h116v-289h-55q-70 0 -103.5 -31t-60.5 -102l-350 -971h-360z" />
<glyph unicode="&#x475;" horiz-adv-x="1132" d="M20 1004h308l239 -740l156 498q18 61 39.5 107t54.5 76t82 44.5t125 14.5h98v-256h-43q-39 0 -64.5 -19t-41.5 -70l-230 -659h-374z" />
<glyph unicode="&#x490;" horiz-adv-x="1161" d="M154 0v1393h671v276h295v-565h-657v-1104h-309z" />
<glyph unicode="&#x491;" horiz-adv-x="903" d="M127 0v1004h451v251h290v-507h-446v-748h-295z" />
<glyph unicode="&#x492;" horiz-adv-x="1142" d="M16 506v242h138v645h948v-289h-641v-356h332v-242h-332v-506h-307v506h-138z" />
<glyph unicode="&#x493;" horiz-adv-x="862" d="M20 322v215h105v467h700v-256h-411v-211h225v-215h-225v-322h-289v322h-105z" />
<glyph unicode="&#x49a;" horiz-adv-x="1423" d="M154 0v1393h309v-549h166l389 549h362l-499 -678l307 -426h221v-580h-297v291h-92l-391 557h-166v-557h-309z" />
<glyph unicode="&#x49b;" horiz-adv-x="1138" d="M125 0v1004h293v-373h117l231 373h321l-305 -469l168 -279h172v-530h-288v274h-58l-241 406h-117v-406h-293z" />
<glyph unicode="&#x4a2;" horiz-adv-x="1599" d="M154 0v1393h309v-547h600v547h309v-1104h201v-580h-297v291h-213v557h-600v-557h-309z" />
<glyph unicode="&#x4a3;" horiz-adv-x="1236" d="M125 0v1004h293v-363h358v363h293v-748h148v-530h-287v274h-154v387h-358v-387h-293z" />
<glyph unicode="&#x4ae;" horiz-adv-x="1433" d="M16 1393h363l348 -607l346 607h352l-548 -914v-479h-310v477z" />
<glyph unicode="&#x4af;" horiz-adv-x="1130" d="M20 1004h324l242 -637l221 637h311l-389 -1002v-399h-293v393z" />
<glyph unicode="&#x4b0;" horiz-adv-x="1433" d="M16 1393h361l350 -607l350 607h348l-456 -744h235v-241h-327v-408h-310v408h-336v241h242z" />
<glyph unicode="&#x4b1;" horiz-adv-x="1130" d="M20 1004h324l242 -650l221 650h311l-303 -783h164v-221h-252v-397h-289v397h-258v221h168z" />
<glyph unicode="&#x4ba;" horiz-adv-x="1421" d="M154 0v1393h309v-510q61 10 141 19t168 9q299 0 420 -116.5t121 -384.5v-410h-309v369q0 141 -67 201.5t-226 60.5q-66 0 -128.5 -6.5t-119.5 -14.5v-610h-309z" />
<glyph unicode="&#x4bb;" d="M125 0v1393h293v-508q49 61 124.5 100t186.5 39q156 0 255 -90t99 -262v-672h-292v606q0 88 -46.5 128t-134.5 40q-76 0 -134 -42t-58 -122v-610h-293z" />
<glyph unicode="&#x4d8;" horiz-adv-x="1523" d="M96 676q0 31 4 67.5t9 59.5h1001q-20 164 -111.5 249t-242.5 85q-133 0 -216 -64.5t-116 -165.5l-311 35q51 223 223 347t422 124q309 0 489 -187.5t180 -529.5q0 -176 -51 -311t-140 -224t-212 -135t-266 -46q-305 0 -483.5 185t-178.5 511zM414 561q25 -160 117 -234.5 t227 -74.5q141 0 231 78t117 231h-692z" />
<glyph unicode="&#x4d9;" horiz-adv-x="1093" d="M74 489q0 18 2 39t4 37h672q-8 121 -62.5 176.5t-142.5 55.5q-82 0 -131 -38t-70 -89l-256 49q14 59 51 115.5t94.5 98.5t138.5 66.5t183 24.5q240 -2 357.5 -142.5t117.5 -381.5q0 -129 -38 -226.5t-103.5 -163t-153.5 -98t-186 -32.5q-238 0 -357.5 140t-119.5 369z M352 383q10 -88 60.5 -132t136.5 -44q70 0 122 41t72 135h-391z" />
<glyph unicode="&#x4e8;" horiz-adv-x="1593" d="M96 698q0 178 52.5 312.5t144.5 223.5t221 134t283 45t282.5 -45t221 -134t144.5 -223t52 -313q0 -182 -52 -317t-144.5 -224t-221 -133t-282.5 -44t-283 44t-221 133t-144.5 224t-52.5 317zM416 578q27 -156 126 -242t255 -86t254 86t125 242h-760zM416 821h760 q-27 154 -126 238t-253 84t-254.5 -84t-126.5 -238z" />
<glyph unicode="&#x4e9;" horiz-adv-x="1142" d="M63 504q0 244 137.5 382t370.5 138q238 0 373 -138t135 -382t-135 -384t-373 -140q-233 0 -370.5 140t-137.5 384zM352 416q18 -100 76.5 -149.5t142.5 -49.5q88 0 145.5 49t74.5 150h-439zM352 594h439q-18 98 -76 145t-144 47t-143 -47t-76 -145z" />
<glyph unicode="&#x2000;" horiz-adv-x="901" />
<glyph unicode="&#x2001;" horiz-adv-x="1802" />
<glyph unicode="&#x2002;" horiz-adv-x="901" />
<glyph unicode="&#x2003;" horiz-adv-x="1802" />
<glyph unicode="&#x2004;" horiz-adv-x="600" />
<glyph unicode="&#x2005;" horiz-adv-x="450" />
<glyph unicode="&#x2006;" horiz-adv-x="300" />
<glyph unicode="&#x2007;" horiz-adv-x="300" />
<glyph unicode="&#x2008;" horiz-adv-x="225" />
<glyph unicode="&#x2009;" horiz-adv-x="360" />
<glyph unicode="&#x200a;" horiz-adv-x="100" />
<glyph unicode="&#x2010;" horiz-adv-x="788" d="M88 436v256h612v-256h-612z" />
<glyph unicode="&#x2011;" horiz-adv-x="788" d="M88 436v256h612v-256h-612z" />
<glyph unicode="&#x2012;" horiz-adv-x="788" d="M88 436v256h612v-256h-612z" />
<glyph unicode="&#x2013;" horiz-adv-x="1124" d="M88 440v250h948v-250h-948z" />
<glyph unicode="&#x2014;" horiz-adv-x="1859" d="M88 440v250h1686v-250h-1686z" />
<glyph unicode="&#x2018;" horiz-adv-x="546" d="M113 776v305q0 150 79.5 232t233.5 100l25 -158q-88 -14 -128 -52t-40 -101v-21h133v-305h-303z" />
<glyph unicode="&#x2019;" horiz-adv-x="540" d="M96 913q86 14 126 52.5t40 103.5v18h-133v306h305v-306q0 -147 -80 -230t-233 -101z" />
<glyph unicode="&#x201a;" horiz-adv-x="546" d="M96 -174q86 14 126 52t40 104v18h-133v305h305v-305q0 -147 -80 -230t-233 -102z" />
<glyph unicode="&#x201c;" horiz-adv-x="968" d="M113 776v305q0 150 79.5 232t233.5 100l25 -158q-88 -14 -128 -52t-40 -101v-21h133v-305h-303zM537 776v305q0 150 79.5 232t233.5 100l22 -158q-86 -14 -125.5 -52t-39.5 -101v-21h133v-305h-303z" />
<glyph unicode="&#x201d;" horiz-adv-x="964" d="M96 913q86 14 126 52.5t40 103.5v18h-133v306h305v-306q0 -147 -80 -230t-233 -101zM520 913q86 14 126 52.5t40 103.5v18h-133v306h305v-306q0 -147 -81 -230t-234 -101z" />
<glyph unicode="&#x201e;" horiz-adv-x="968" d="M96 -174q86 14 126 52t40 104v18h-133v305h305v-305q0 -147 -80 -230t-233 -102zM520 -174q86 14 126 52t40 104v18h-133v305h305v-305q0 -147 -81 -230t-234 -102z" />
<glyph unicode="&#x2022;" horiz-adv-x="706" d="M96 766q0 106 76 182t180 76q106 0 182 -76t76 -182t-76 -182t-182 -76q-104 0 -180 75.5t-76 182.5z" />
<glyph unicode="&#x2026;" horiz-adv-x="1419" d="M98 0v305h293v-305h-293zM563 0v305h293v-305h-293zM1028 0v305h293v-305h-293z" />
<glyph unicode="&#x202f;" horiz-adv-x="360" />
<glyph unicode="&#x2039;" horiz-adv-x="741" d="M70 504l290 469h302l-289 -469l289 -473h-300z" />
<glyph unicode="&#x203a;" horiz-adv-x="741" d="M80 29l289 471l-289 471h299l293 -471l-291 -471h-301z" />
<glyph unicode="&#x205f;" horiz-adv-x="450" />
<glyph unicode="&#x20ac;" horiz-adv-x="1331" d="M39 463v180h121v25.5v27.5v28.5t2 29.5h-123v180h141q47 238 192.5 358.5t366.5 120.5q219 0 346 -107.5t154 -312.5l-285 -37q-18 80 -68 128.5t-149 48.5q-88 0 -144 -49.5t-83 -149.5h360v-180h-383q-2 -14 -2 -28.5v-29.5v-27.5v-25.5h385v-180h-362 q23 -100 79 -151.5t152 -51.5t148.5 48t68.5 126l283 -33q-29 -207 -156 -314t-342 -107q-233 0 -375.5 122.5t-187.5 360.5h-139z" />
<glyph unicode="&#x2122;" horiz-adv-x="1683" d="M61 1208v185h627v-185h-211v-471h-205v471h-211zM762 737v656h270l148 -359l143 359h262v-656h-192v400l-142 -338h-153l-144 340v-402h-192z" />
<glyph unicode="&#x25fc;" horiz-adv-x="1003" d="M0 0v1004h1004v-1004h-1004z" />
</font>
</defs>
</svg>
