<svg width="41" height="40" viewBox="0 0 41 40" fill="none" xmlns="http://www.w3.org/2000/svg"><path fill-rule="evenodd" clip-rule="evenodd" d="M20.6 39.552c10.921 0 19.775-8.854 19.775-19.776S31.521 0 20.6 0 .823 8.854.823 19.776 9.677 39.552 20.6 39.552zm4-27.824c-1.04-.047-1.352-.058-3.996-.058-2.643 0-2.957.011-3.996.058-.963.042-1.488.204-1.836.34-.46.178-.788.39-1.136.738a3.06 3.06 0 0 0-.738 1.136c-.136.348-.298.87-.34 1.836-.047 1.04-.058 1.352-.058 3.996 0 2.64.011 2.953.058 3.996.042.962.204 1.488.34 1.836.177.46.39.788.738 1.136.344.344.676.56 1.136.738.348.136.87.298 1.836.34 1.04.047 1.352.058 3.996.058 2.64 0 2.953-.011 3.996-.058.962-.042 1.488-.204 1.836-.34.46-.178.788-.39 1.136-.738a3.06 3.06 0 0 0 .738-1.136c.136-.348.298-.87.34-1.836.047-1.04.058-1.353.058-3.996 0-2.64-.011-2.953-.058-3.996-.042-.963-.204-1.488-.34-1.836a3.044 3.044 0 0 0-.738-1.136 3.062 3.062 0 0 0-1.136-.738c-.348-.136-.87-.298-1.836-.34zm-8.073-1.782c1.055-.046 1.391-.058 4.077-.058s3.022.012 4.081.062c1.051.046 1.77.216 2.4.46.65.25 1.202.591 1.75 1.14a4.632 4.632 0 0 1 1.133 1.758c.244.626.414 1.35.46 2.4.047 1.055.058 1.391.058 4.077s-.011 3.023-.058 4.078c-.046 1.051-.216 1.77-.46 2.4a4.838 4.838 0 0 1-1.14 1.75 4.837 4.837 0 0 1-1.75 1.14c-.627.244-1.35.414-2.4.46-1.056.047-1.392.059-4.078.059-2.686 0-3.022-.012-4.077-.058-1.051-.047-1.77-.217-2.4-.46a4.837 4.837 0 0 1-1.75-1.14 4.83 4.83 0 0 1-1.145-1.755c-.243-.626-.413-1.349-.46-2.4-.046-1.055-.058-1.391-.058-4.077s.012-3.023.058-4.082c.047-1.05.217-1.77.46-2.4a4.847 4.847 0 0 1 1.144-1.75 4.827 4.827 0 0 1 1.755-1.144c.626-.244 1.348-.414 2.4-.46zm4.077 4.754a5.083 5.083 0 0 0-5.082 5.082 5.083 5.083 0 1 0 5.082-5.082zm0 8.378a3.297 3.297 0 1 1 0-6.594 3.297 3.297 0 0 1 0 6.594zm5.283-7.393a1.187 1.187 0 1 0 0-2.373 1.187 1.187 0 0 0 0 2.373z" fill="#fff"/></svg>