<svg xmlns="http://www.w3.org/2000/svg" width="96" height="36" fill="none" viewBox="0 0 96 36"><g clip-path="url(#a)"><path fill="#FF7682" d="M47.668 26.29c2.576 0 4.541-1.24 5.792-2.523-.028 1.44.697 2.35 2.098 2.35 1.6 0 2.813-.98 3.422-1.527.33 1.473 2.15 1.69 3.033 1.37a9.35 9.35 0 0 1 .662-1.907c.594-1.293 1.981-2.686 4.36-3.048a16.302 16.302 0 0 0-.92 2.938c-.5 2.547 3.22 2.296 3.182 1.914-.224-2.22 1.92-7.127 2.922-10.243.072-.223-.299-.443-2.086-.31-1.189.09-1.551.292-1.551.292.033.588-.07 1.244-.512 2.633-.047.147-.095.29-.142.431-1.46.088-3.198.692-4.423 2.008 1.655-3.436 1.268-5.68-.553-5.68a3.565 3.565 0 0 0-1.654.39s.166.875-.056 2.62c-.552 3.438-2.87 5.508-4.194 5.508-1.16 0 .22-3.218 1.654-6.108.278-.546-3.917-.219-3.917.328-.606 3.053-3.089 6-5.296 6-.773 0-1.387-.437-1.387-1.473 0-2.292 2.703-4.855 5.407-4.855.422 0 .713-2.509-2.126-2.509-3.634 0-7.143 3.09-7.143 7.69.008 2.075 1.112 3.71 3.428 3.71zm5.85-3.164c0 .026 0 .05-.01.073-.023-.016-.027-.038.01-.073z"/><path fill="url(#b)" d="M47.668 26.29c2.576 0 4.541-1.24 5.792-2.523-.028 1.44.697 2.35 2.098 2.35 1.6 0 2.813-.98 3.422-1.527.33 1.473 2.15 1.69 3.033 1.37a9.35 9.35 0 0 1 .662-1.907c.594-1.293 1.981-2.686 4.36-3.048a16.302 16.302 0 0 0-.92 2.938c-.5 2.547 3.22 2.296 3.182 1.914-.224-2.22 1.92-7.127 2.922-10.243.072-.223-.299-.443-2.086-.31-1.189.09-1.551.292-1.551.292.033.588-.07 1.244-.512 2.633-.047.147-.095.29-.142.431-1.46.088-3.198.692-4.423 2.008 1.655-3.436 1.268-5.68-.553-5.68a3.565 3.565 0 0 0-1.654.39s.166.875-.056 2.62c-.552 3.438-2.87 5.508-4.194 5.508-1.16 0 .22-3.218 1.654-6.108.278-.546-3.917-.219-3.917.328-.606 3.053-3.089 6-5.296 6-.773 0-1.387-.437-1.387-1.473 0-2.292 2.703-4.855 5.407-4.855.422 0 .713-2.509-2.126-2.509-3.634 0-7.143 3.09-7.143 7.69.008 2.075 1.112 3.71 3.428 3.71zm5.85-3.164c0 .026 0 .05-.01.073-.023-.016-.027-.038.01-.073z"/><path fill="#FF7682" d="M92.69 29.673c-.885 0-39.504 1.636-45.297 1.636-4.137 0-4.36-2.4-5.463-8.29-.882-4.747-1.488-13.528-6.737-13.528-3.085 0-6.227 2.458-9.039 5.455 0 0-.715-5.277-1.6-8.619C23.503 2.37 21.794 0 18.648 0 7.614 0 0 28.527 0 33.653c0 1.473 1.16 2.35 2.925 2.35.683.007 1.366-.048 2.04-.164 0 0 1.104-10.09 4.415-19.69C12.855 6.114 16 3.822 17.702 3.822c1.931 0 2.526 2.87 3.31 7.247 1.485 8.29 1.431 9.818 2.759 9.818.883 0 2.272-1.596 4.194-3.49 2.693-2.656 4.068-3.765 5.568-3.765 1.62 0 2.211 2.4 3.424 9.273C39 34.578 41.316 34.688 46.503 34.688l44.581-.382c.39.004 2.267-4.633 1.605-4.633z"/><path fill="url(#c)" d="M92.69 29.673c-.885 0-39.504 1.636-45.297 1.636-4.137 0-4.36-2.4-5.463-8.29-.882-4.747-1.488-13.528-6.737-13.528-3.085 0-6.227 2.458-9.039 5.455 0 0-.715-5.277-1.6-8.619C23.503 2.37 21.794 0 18.648 0 7.614 0 0 28.527 0 33.653c0 1.473 1.16 2.35 2.925 2.35.683.007 1.366-.048 2.04-.164 0 0 1.104-10.09 4.415-19.69C12.855 6.114 16 3.822 17.702 3.822c1.931 0 2.526 2.87 3.31 7.247 1.485 8.29 1.431 9.818 2.759 9.818.883 0 2.272-1.596 4.194-3.49 2.693-2.656 4.068-3.765 5.568-3.765 1.62 0 2.211 2.4 3.424 9.273C39 34.578 41.316 34.688 46.503 34.688l44.581-.382c.39.004 2.267-4.633 1.605-4.633z"/><path fill="url(#d)" d="M92.69 29.673c-.885 0-39.504 1.636-45.297 1.636-4.137 0-4.36-2.4-5.463-8.29-.882-4.747-1.488-13.528-6.737-13.528-3.085 0-6.227 2.458-9.039 5.455 0 0-.715-5.277-1.6-8.619C23.503 2.37 21.794 0 18.648 0 7.614 0 0 28.527 0 33.653c0 1.473 1.16 2.35 2.925 2.35.683.007 1.366-.048 2.04-.164 0 0 1.104-10.09 4.415-19.69C12.855 6.114 16 3.822 17.702 3.822c1.931 0 2.526 2.87 3.31 7.247 1.485 8.29 1.431 9.818 2.759 9.818.883 0 2.272-1.596 4.194-3.49 2.693-2.656 4.068-3.765 5.568-3.765 1.62 0 2.211 2.4 3.424 9.273C39 34.578 41.316 34.688 46.503 34.688l44.581-.382c.39.004 2.267-4.633 1.605-4.633z"/><path fill="#FF7682" d="M92.909 14.727c-2.152 0-2.758 2.017-2.427 2.127.386.165 1.82.547 1.71 2.836-.11 2.4-2.04 4.208-3.862 4.208-.99 0-1.268-.6-1.268-1.418 0-2.617 2.576-4.844 2.538-4.964-.097-.392-1.714-.61-2.972.055-1.33.68-1.425 1.694-3.949 3.679-2.455 1.93-4.91 2.297-5.514 2.297-.55 0-.77-.195-.77-.517 0-.672.845-.924 2.65-1.616 2.043-.783 4.557-1.688 4.557-3.733 0-1.8-1.696-2.845-4.29-2.845-3.75 0-5.856 1.462-6.027 2.572-.148.98.397 1.908 1.326 2.128 0 0 2.526-1.944 4.898-1.944.428 0 .76.163.76.49 0 .49-.411.752-3.286 1.726-2.348.784-4.74 1.818-4.74 3.933 0 1.473 1.264 2.394 3.525 2.394 3.184 0 6.352-1.63 8.397-3.41.101 1.784.99 3.465 3.741 3.465 4.359 0 8.112-4.037 8.112-7.855-.018-2.19-1.233-3.608-3.109-3.608z"/><path fill="url(#e)" d="M92.909 14.727c-2.152 0-2.758 2.017-2.427 2.127.386.165 1.82.547 1.71 2.836-.11 2.4-2.04 4.208-3.862 4.208-.99 0-1.268-.6-1.268-1.418 0-2.617 2.576-4.844 2.538-4.964-.097-.392-1.714-.61-2.972.055-1.33.68-1.425 1.694-3.949 3.679-2.455 1.93-4.91 2.297-5.514 2.297-.55 0-.77-.195-.77-.517 0-.672.845-.924 2.65-1.616 2.043-.783 4.557-1.688 4.557-3.733 0-1.8-1.696-2.845-4.29-2.845-3.75 0-5.856 1.462-6.027 2.572-.148.98.397 1.908 1.326 2.128 0 0 2.526-1.944 4.898-1.944.428 0 .76.163.76.49 0 .49-.411.752-3.286 1.726-2.348.784-4.74 1.818-4.74 3.933 0 1.473 1.264 2.394 3.525 2.394 3.184 0 6.352-1.63 8.397-3.41.101 1.784.99 3.465 3.741 3.465 4.359 0 8.112-4.037 8.112-7.855-.018-2.19-1.233-3.608-3.109-3.608z"/></g><defs><linearGradient id="b" x1="57.499" x2="57.813" y1="21.842" y2="27.471" gradientUnits="userSpaceOnUse"><stop stop-color="#FF7682" stop-opacity="0"/><stop offset="1" stop-color="#BE4953"/></linearGradient><linearGradient id="c" x1="16.913" x2="30.867" y1="-8.16" y2="14.562" gradientUnits="userSpaceOnUse"><stop stop-color="#FFE928"/><stop offset="1" stop-color="#FF473B" stop-opacity="0"/></linearGradient><linearGradient id="d" x1="43.977" x2="44.921" y1="21.957" y2="39.739" gradientUnits="userSpaceOnUse"><stop stop-color="#FF7682" stop-opacity="0"/><stop offset="1" stop-color="#BE4953"/></linearGradient><linearGradient id="e" x1="83.506" x2="83.879" y1="21.718" y2="27.37" gradientUnits="userSpaceOnUse"><stop stop-color="#FF7682" stop-opacity="0"/><stop offset="1" stop-color="#BE4953"/></linearGradient><clipPath id="a"><path fill="#fff" d="M0 0h96v36H0z"/></clipPath></defs></svg>