<svg width="91" height="35" viewBox="0 0 91 35" fill="none" xmlns="http://www.w3.org/2000/svg"><path fill-rule="evenodd" clip-rule="evenodd" d="M80.16 29.15l-.002.001c-11.256.462-31.294 1.284-35.242 1.284-3.72 0-4.1-2.1-5.023-7.207-.05-.275-.1-.559-.154-.852-.11-.61-.217-1.288-.329-2.006-.736-4.715-1.74-11.144-6.056-11.144-2.924 0-5.902 2.39-8.567 5.303 0 0-.677-5.13-1.517-8.378C22.275 2.304 20.656 0 17.674 0 7.217 0 0 27.731 0 32.715 0 34.146 1.099 35 2.772 35a10.72 10.72 0 0 0 1.934-.16s1.046-9.809 4.184-19.142c3.293-9.755 6.274-11.983 7.887-11.983 1.83 0 2.394 2.79 3.137 7.046.269 1.539.484 2.838.666 3.933.77 4.639.93 5.61 1.948 5.61.687 0 1.695-1.041 3.038-2.43.296-.307.609-.63.938-.963 2.552-2.582 3.855-3.66 5.276-3.66 1.536 0 2.096 2.333 3.245 9.015 1.936 11.347 4.132 11.454 9.048 11.454l42.251-.371c.37.004 2.148-4.504 1.521-4.504-.235 0-3.29.126-7.686.306zm-34.983-3.59c2.441 0 4.304-1.206 5.489-2.453-.026 1.4.66 2.285 1.988 2.285 1.518 0 2.667-.953 3.243-1.486.314 1.432 2.038 1.644 2.875 1.333.143-.639.354-1.26.628-1.854.563-1.257 1.877-2.611 4.13-2.963a16.245 16.245 0 0 0-.87 2.856c-.474 2.475 3.051 2.232 3.015 1.86-.156-1.594.912-4.616 1.865-7.307.336-.95.657-1.86.905-2.65.068-.217-.283-.43-1.977-.3-1.127.087-1.47.283-1.47.283.031.571-.066 1.21-.485 2.56l-.135.418c-1.384.086-3.031.672-4.192 1.952 1.568-3.34 1.202-5.522-.523-5.522a3.311 3.311 0 0 0-1.569.38s.158.85-.052 2.547c-.524 3.341-2.721 5.354-3.976 5.354-1.098 0 .209-3.128 1.569-5.937.262-.531-3.713-.213-3.713.318-.575 2.969-2.927 5.833-5.02 5.833-.732 0-1.314-.425-1.314-1.432 0-2.228 2.562-4.72 5.125-4.72.4 0 .676-2.438-2.015-2.438-3.444 0-6.77 3.003-6.77 7.476.008 2.016 1.054 3.606 3.249 3.606zm5.543-3.076c0 .025 0 .047-.01.07-.02-.015-.024-.036.01-.07zm35.033-6.098c-.313-.107.261-2.068 2.3-2.068 1.779 0 2.93 1.379 2.947 3.507 0 3.712-3.557 7.636-7.688 7.636-2.606 0-3.45-1.633-3.545-3.368-1.938 1.73-4.94 3.315-7.958 3.315-2.143 0-3.341-.895-3.341-2.327 0-2.056 2.266-3.062 4.492-3.824 2.724-.946 3.115-1.201 3.115-1.677 0-.318-.316-.476-.721-.476-2.248 0-4.642 1.889-4.642 1.889-.88-.213-1.397-1.116-1.256-2.068.161-1.08 2.157-2.5 5.712-2.5 2.458 0 4.066 1.014 4.066 2.764 0 1.934-2.255 2.82-4.16 3.567a294.848 294.848 0 0 0-.61.238c-1.401.546-2.062.803-2.062 1.396 0 .312.208.503.73.503.573 0 2.9-.358 5.226-2.234a15.155 15.155 0 0 0 2.329-2.302c.462-.55.798-.951 1.414-1.274 1.192-.646 2.725-.434 2.817-.053.007.023-.084.127-.235.3-.605.692-2.17 2.487-2.17 4.525 0 .796.262 1.378 1.201 1.378 1.728 0 3.557-1.757 3.66-4.09.098-2.068-1.069-2.535-1.528-2.72a1.807 1.807 0 0 1-.093-.037z" fill="url(#a)"/><defs><linearGradient id="a" y1="35" x2="90.939" y2="35" gradientUnits="userSpaceOnUse"><stop stop-color="#FF994E"/><stop offset="1" stop-color="#FF8060"/></linearGradient></defs></svg>