<svg width="74" height="14" viewBox="0 0 74 14" fill="none" xmlns="http://www.w3.org/2000/svg"><path fill-rule="evenodd" clip-rule="evenodd" d="M67.002 0c-4.03 0-7.018 2.882-7.018 7 0 4.138 2.978 7 7.018 7C71.022 14 74 11.138 74 7c0-4.118-2.978-7-6.998-7zm0 11.037c-2.095 0-3.703-1.597-3.703-4.037 0-2.43 1.608-4.037 3.703-4.037 2.085 0 3.682 1.607 3.682 4.037 0 2.45-1.597 4.037-3.682 4.037zM50.643.27v13.518h3.107V3.233h5.867V.27h-8.974zM17.817 7.39c0-4.227 2.84-7.12 7.405-7.12h6.254v13.508h-3.097v-1.707c-1.082 1.285-2.551 1.928-4.318 1.928-3.822 0-6.244-2.58-6.244-6.608zm3.276-.05c0 2.28 1.558 3.757 3.633 3.757 2.065 0 3.653-1.406 3.653-4.269V3.233H25.47c-2.58 0-4.377 1.336-4.377 4.108zm22.9-7.07v5.343h-5.866V.27H35.03v13.518h3.097V8.576h5.866v5.212h3.097V.27h-3.097zM7.553 6.718L11.158.27h3.94v13.518h-3.176V4.66l-2.73 4.83H5.907l-2.73-4.83v9.13H0V.27h3.94l3.614 6.448z" fill="#FF644B"/></svg>