<svg width="44" height="45" viewBox="0 0 44 45" fill="none" xmlns="http://www.w3.org/2000/svg"><g clip-path="url(#a)"><path d="M19.094 14.235c.737 4.184-7.555 3.503-10.64 1.98-3.084-1.523-3.449-5.604-2.118-9.642 3.74-11.35 10.6-4.585 12.758 7.662zm7.756 3.835c-3.814 1.922 1.723 8.076 4.804 9.615 3.08 1.538 6.596-.639 9.044-4.123 6.899-9.793-2.677-11.154-13.848-5.493z" fill="#FFA8A8" stroke="#231F20" stroke-width="2.148" stroke-miterlimit="10"/><path d="M33.182 36.93c-4.555 9.055-36.27-6.626-31.72-15.68C6.015 12.196 8.68.27 27.216 9.43c18.841 9.32 10.515 18.447 5.967 27.5z" fill="#FFEAC8" stroke="#231F20" stroke-width="2.148" stroke-miterlimit="10"/><path d="M12.172 22.738c1.881 0 3.406-1.512 3.406-3.377 0-1.865-1.525-3.377-3.406-3.377-1.882 0-3.407 1.512-3.407 3.377 0 1.865 1.525 3.377 3.407 3.377z" fill="#231F20"/><path d="M14.688 19.054c.23-.503-.322-1.242-1.232-1.65-.91-.408-1.833-.33-2.063.173-.23.503.322 1.242 1.232 1.65.91.407 1.834.33 2.063-.173z" fill="#fff"/><path d="M28.084 30.654c1.894 0 3.43-1.523 3.43-3.4 0-1.878-1.536-3.4-3.43-3.4-1.894 0-3.43 1.522-3.43 3.4 0 1.877 1.536 3.4 3.43 3.4z" fill="#231F20"/><path d="M30.008 26.8c.27-.489-.226-1.272-1.108-1.75-.882-.479-1.815-.47-2.084.018-.27.488.226 1.271 1.108 1.75.881.478 1.815.47 2.084-.018z" fill="#fff"/><path d="M27.25 39.385c-2.992 5.934-27.27-6.07-24.282-12.012 2.988-5.942 10.841-8.057 17.55-4.742 6.708 3.315 9.72 10.82 6.732 16.754z" fill="#FFEAC8" stroke="#231F20" stroke-width="2.148" stroke-miterlimit="10"/><path d="M6.643 31.654c4.78 5.189 9.331.408 12.373-6.358-3.643 7.139-3.818 12.385 3.535 13.462" stroke="#231F20" stroke-width="2.148" stroke-miterlimit="10" stroke-linecap="round"/><path d="M24.77 25.266c-.64 1.273-5.567.123-5.567.123s-3.88-3.212-3.252-4.485c.629-1.273 3.131-1.323 5.568-.12 2.437 1.205 3.903 3.212 3.251 4.482z" fill="#965B42" stroke="#231F20" stroke-width="2.148" stroke-miterlimit="10"/><path d="M11.566 9.961l3.547.027m19.575 11.75l-2.747-3.553" stroke="#231F20" stroke-width="2.148" stroke-miterlimit="10" stroke-linecap="round"/><path d="M8.288 33.066c4.167 2.646 8.04-1.785 10.728-7.77-3.104 6.116-3.697 10.839.819 12.743.388.157-2.262 8.757-9.44 5.207-7.178-3.55-2.379-10.354-2.107-10.18z" fill="#FFA8A8" stroke="#231F20" stroke-width="2.148" stroke-miterlimit="10"/><path opacity=".5" d="M31.743 15.604c-.388.788-13.58-5.735-13.192-6.539.388-.804 3.67.035 7.314 1.835 3.643 1.8 6.274 3.915 5.878 4.704z" fill="#fff"/><path opacity=".2" d="M15.54 41.646c-.388.77-2.328.63-4.303-.346-1.975-.977-3.263-2.412-2.864-3.2.4-.788 7.563 2.758 7.167 3.546z" fill="#fff"/></g><defs><clipPath id="a"><path fill="#fff" d="M0 0h44v45H0z"/></clipPath></defs></svg>