<svg width="57" height="62" viewBox="0 0 57 62" fill="none" xmlns="http://www.w3.org/2000/svg"><path d="M35.99 38.1l-.65-.305a.74.74 0 0 1 .028-.059l.622.364zM10.598 27.254l-.496-.537.496.537zM31.73 45.486l-.598-.407a.68.68 0 0 1 .58-.329l.018.736zm4.257-7.375l.018.736a.72.72 0 0 1-.602-.338.766.766 0 0 1-.066-.703l.65.305zm-.618-.375c2.454-4.695-.11-10.448-5.212-13.469-5.022-2.973-12.387-3.146-19.062 3.524l-.992-1.074c7.109-7.103 15.147-7.029 20.728-3.725 5.502 3.258 8.74 9.814 5.782 15.473l-1.244-.729zM31.71 44.75c.47 0 1.037.052 1.797-.155.748-.204 1.706-.673 2.812-1.777l.991 1.074c-1.26 1.258-2.42 1.856-3.412 2.127-.98.267-1.773.203-2.152.203l-.036-1.472zm4.609-1.932c1.035-1.035 1.2-2.086 1.017-2.8-.186-.73-.727-1.171-1.333-1.171l-.036-1.472c1.346 0 2.402 1 2.734 2.3.337 1.317-.06 2.888-1.39 4.217l-.992-1.075zm-.984-5.012l.004-.01 1.3.61-.004.01-1.3-.61zM11.094 27.79c-4.25 4.246-5.796 8.664-5.632 12.556.164 3.902 2.051 7.374 4.846 9.728 2.796 2.354 6.477 3.572 10.204 2.985 3.713-.584 7.546-2.974 10.619-7.981l1.196.814c-3.253 5.301-7.408 7.967-11.57 8.622-4.15.653-8.233-.705-11.32-3.306-3.089-2.6-5.203-6.463-5.387-10.835-.184-4.383 1.574-9.182 6.052-13.657l.992 1.074z" fill="#0E0C1E"/><path d="M21.688 15.534c0 2.141 3.958 2.7 8.229 6.646-.521 1.038-2.188 3.447-4.688 4.776-3.124 1.662-10.207-.608-13.02-5.177-2.812-4.568 4.503-13.376 9.479-11.021 3.541 1.676 0 2.61 0 4.776zm9.259 14.106c1.438 1.587-1.119 4.657-1.631 10.446 0 1.988 3.937 1.087 6.683.394 3.432-.865 7.155-7.3 6.168-12.572-.987-5.273-9.116-10.12-11.22-5.037-1.498 3.619-1.456 5.165 0 6.77z" fill="#FFB800"/><path d="M19.892 19.286c-4.434-4.953-2.985-9.184-1.705-10.68 1.279-1.495 13.436 12.086 11.889 13.282-1.547 1.197-5.75 2.35-10.184-2.602z" fill="#DA5763" stroke="#231F20" stroke-width="2" stroke-linecap="round" stroke-linejoin="round"/><path d="M41.563 17.274c7.813 8.627 4.676 16.627 2.131 19.549-2.544 2.921-23.966-20.735-20.949-23.134 3.018-2.4 11.006-5.042 18.818 3.585z" fill="#FF7682" stroke="#231F20" stroke-width="2" stroke-linecap="round" stroke-linejoin="round"/><path d="M40.953 24.04c-.625-1.08-2.285.025-2.914.783.112-1.903-1.397-1.706-2.017-.915-.93 1.186.293 4.188 1.414 4.095 1.12-.093 4.297-2.61 3.517-3.962z" fill="#DA5763" stroke="#231F20" stroke-width="2" stroke-linecap="round" stroke-linejoin="round"/><path d="M9.571 26.142c1.294-.512 6.284 1.463 4.41 4.82m11.881 4.223c-.69-1.197-3.06-4.651-6.722-1.84" stroke="#231F20" stroke-width="2" stroke-linecap="round" stroke-linejoin="round"/><path d="M14.973 42.087c-1.512 1.484-3.211 2.63-4.935 1.705-1.724-.926-1.985-3.046-1.31-5.054 1.371-4.078 9.16.491 6.245 3.349z" fill="#231F20"/><path d="M14.304 40.691c-1.896 3.86-6.335 2.264-4.202-2.076.4-.811 4.602 1.265 4.202 2.076z" fill="#FFA8A8"/></svg>