<svg width="42" height="43" viewBox="0 0 42 43" fill="none" xmlns="http://www.w3.org/2000/svg"><g clip-path="url(#a)"><path d="M22.545 43c10.682 0 19.342-1.117 19.342-2.496 0-1.378-8.66-2.496-19.342-2.496-10.682 0-19.342 1.118-19.342 2.496 0 1.379 8.66 2.496 19.342 2.496z" fill="#BCBCBC" style="mix-blend-mode:multiply"/><path d="M32.486 41.267L16.39 39.032a4.397 4.397 0 0 1-3.134-1.304 4.5 4.5 0 0 1-1.303-3.157V9.862c0-1.185.467-2.32 1.298-3.159a4.411 4.411 0 0 1 3.132-1.308L32.486 4.35c1.175 0 2.302.47 3.133 1.309a4.487 4.487 0 0 1 1.297 3.159V36.8a4.487 4.487 0 0 1-1.297 3.159 4.41 4.41 0 0 1-3.133 1.308z" fill="#FFEAC8" stroke="#231F20" stroke-width="2.148" stroke-miterlimit="10"/><path d="M31.504 28.153C29.457 18.862 21.48 13.224 12.66 14.127V34.57c.001.996.394 1.95 1.092 2.654a3.71 3.71 0 0 0 2.63 1.1h.1l15.513 2.14a32.67 32.67 0 0 0-.491-12.312z" fill="#FFEAC8"/><path d="M32.486 5.063L16.37 6.108a3.71 3.71 0 0 0-2.632 1.1 3.775 3.775 0 0 0-1.091 2.654v4.279c8.82-.902 16.796 4.735 18.843 14.027a32.667 32.667 0 0 1 .492 12.315l.53.075a3.715 3.715 0 0 0 2.6-1.118 3.778 3.778 0 0 0 1.077-2.637V8.817a3.772 3.772 0 0 0-1.084-2.646 3.71 3.71 0 0 0-2.618-1.108z" fill="#F4DAB5"/><path d="M27.456 11.884H8.986a2.16 2.16 0 0 1-1.162-.332 2.186 2.186 0 0 1-.807-.907 2.21 2.21 0 0 1 .262-2.326l4.858-6.194a2.172 2.172 0 0 1 1.707-.834h18.47a2.16 2.16 0 0 1 1.162.332c.349.22.629.534.807.907a2.209 2.209 0 0 1-.262 2.327l-4.858 6.182a2.181 2.181 0 0 1-1.707.845z" fill="#D6AB94" stroke="#231F20" stroke-width="2.148" stroke-miterlimit="10"/><path d="M18.002 14.754h-1.764a1.54 1.54 0 0 0-1.534 1.548v5.573a1.54 1.54 0 0 0 1.534 1.547h1.764a1.54 1.54 0 0 0 1.534-1.547v-5.573a1.54 1.54 0 0 0-1.534-1.548zm8.223 0h-1.764a1.54 1.54 0 0 0-1.534 1.548v5.573a1.54 1.54 0 0 0 1.534 1.547h1.764c.848 0 1.535-.693 1.535-1.547v-5.573a1.54 1.54 0 0 0-1.535-1.548zm-8.223 12.002h-1.764a1.54 1.54 0 0 0-1.534 1.547v5.573a1.54 1.54 0 0 0 1.534 1.548h1.764c.847 0 1.534-.693 1.534-1.548v-5.573a1.54 1.54 0 0 0-1.534-1.547z" fill="#A0ECFF" stroke="#231F20" stroke-width="2.148" stroke-miterlimit="10"/><path d="M9.195 23.375c0-.892-.716-1.615-1.6-1.615-.883 0-1.599.723-1.599 1.615v15.41c0 .893.716 1.616 1.6 1.616.883 0 1.6-.723 1.6-1.616v-15.41z" fill="#8E5400" stroke="#231F20" stroke-width="2.148" stroke-linejoin="round"/><path d="M26.225 26.756h-1.764a1.54 1.54 0 0 0-1.534 1.547v5.573a1.54 1.54 0 0 0 1.534 1.548h1.764c.848 0 1.535-.693 1.535-1.548v-5.573c0-.854-.687-1.547-1.535-1.547z" fill="#A0ECFF" stroke="#231F20" stroke-width="2.148" stroke-miterlimit="10"/><path d="M15.308 15.004c7.849 13.164-6.89 18.127-14.035 2.756C-.682 13.549 4.57 6.585 8.389 6.585c3.819 0 4.543 4.432 6.92 8.419z" fill="#95EA00" stroke="#231F20" stroke-width="2.148" stroke-linecap="round" stroke-linejoin="round"/></g><defs><clipPath id="a"><path fill="#fff" d="M0 0h42v43H0z"/></clipPath></defs></svg>