<svg width="32" height="32" viewBox="0 0 32 32" fill="none" xmlns="http://www.w3.org/2000/svg"><path fill-rule="evenodd" clip-rule="evenodd" d="M16 32c8.837 0 16-7.163 16-16S24.837 0 16 0 0 7.163 0 16s7.163 16 16 16zm3.238-22.512c-.841-.037-1.095-.047-3.233-.047-2.14 0-2.392.01-3.233.047-.78.035-1.204.166-1.486.276a2.462 2.462 0 0 0-.919.597 2.475 2.475 0 0 0-.597.92c-.11.28-.241.703-.275 1.484-.038.841-.047 1.095-.047 3.233 0 2.136.01 2.39.047 3.234.034.778.165 1.203.275 1.485.144.372.316.638.597.92.278.277.547.453.92.596.28.11.703.241 1.484.276.842.037 1.095.046 3.234.046 2.135 0 2.389-.009 3.233-.046.778-.035 1.204-.166 1.485-.276.372-.143.638-.316.92-.597.278-.278.453-.547.597-.92.109-.28.24-.703.275-1.484.037-.841.047-1.095.047-3.233 0-2.136-.01-2.39-.047-3.234-.035-.778-.166-1.204-.275-1.485a2.463 2.463 0 0 0-.598-.92 2.477 2.477 0 0 0-.919-.596c-.281-.11-.703-.241-1.485-.276zm-6.532-1.441C13.56 8.009 13.832 8 16.005 8s2.445.01 3.302.05c.85.038 1.432.175 1.941.372.526.203.973.479 1.417.923.447.444.719.89.916 1.422.197.507.335 1.091.372 1.942.038.854.047 1.126.047 3.299s-.01 2.445-.047 3.299c-.037.85-.175 1.432-.372 1.941a3.915 3.915 0 0 1-.922 1.417 3.913 3.913 0 0 1-1.417.922c-.506.197-1.091.335-1.942.372-.853.038-1.125.047-3.299.047-2.173 0-2.445-.01-3.298-.047-.85-.037-1.432-.175-1.942-.372a3.914 3.914 0 0 1-1.416-.922 3.908 3.908 0 0 1-.926-1.42c-.197-.506-.335-1.091-.372-1.942C8.009 18.45 8 18.178 8 16.005s.01-2.445.047-3.302c.037-.85.175-1.432.372-1.942.206-.525.478-.972.926-1.416a3.88 3.88 0 0 1 1.42-.926c.506-.197 1.09-.335 1.94-.372zm3.299 3.846a4.113 4.113 0 0 0 0 8.223 4.113 4.113 0 0 0 0-8.223zm0 6.779a2.668 2.668 0 1 1 0-5.335 2.668 2.668 0 0 1 0 5.335zm4.274-5.982a.96.96 0 1 0 0-1.92.96.96 0 0 0 0 1.92z" fill="#0B1D42"/></svg>