<svg width="32" height="32" viewBox="0 0 32 32" fill="none" xmlns="http://www.w3.org/2000/svg"><path fill-rule="evenodd" clip-rule="evenodd" d="M16 32c8.837 0 16-7.163 16-16S24.837 0 16 0 0 7.163 0 16s7.163 16 16 16zm8.5-22c.7 0 .8.301.7.802-.118.691-1.112 2.31-1.865 3.538-.522.85-.928 1.513-.846 1.545-.2.4-.2.7 0 1.001.1.15.35.4.638.688.287.288.613.613.863.913a11.15 11.15 0 0 1 1.81 2.612c.1.6-.2.901-.8.901h-2.21c-.624 0-.915-.333-1.517-1.026-.278-.318-.622-.713-1.095-1.186-1.31-1.2-1.91-1.4-2.21-1.4-.5 0-.6.2-.6.8v2.001c0 .5-.2.801-1.601.801a8.591 8.591 0 0 1-6.722-4.003c-2.811-3.813-3.512-6.725-3.512-7.325 0-.3.2-.601.8-.601h2.211c.6 0 .8.2 1 .8 1.101 3.113 2.912 5.825 3.612 5.825.3 0 .4-.1.4-.8v-3.213c-.061-.869-.389-1.279-.631-1.582-.151-.19-.27-.337-.27-.53a.651.651 0 0 1 .6-.5h3.422c.4 0 .6.2.6.8v4.354c0 .4.2.6.3.6.3 0 .5-.2 1-.7A18.408 18.408 0 0 0 21.29 10.6a1.06 1.06 0 0 1 1-.6h2.21z" fill="#0B1D42"/></svg>