<svg width="64" height="36" viewBox="0 0 64 36" fill="none" xmlns="http://www.w3.org/2000/svg"><path d="M24 27H7m7-11H2M29 6H5" stroke="#231F20" stroke-width="2.148" stroke-miterlimit="10" stroke-linecap="round"/><path d="M26.783 20.473c-.913-2.085-.204-4.5 1.662-5.803 2.727-1.905 6.714-4.613 9.844-6.42 3.13-1.807 7.47-3.906 10.483-5.316 2.062-.964 4.507-.37 5.856 1.463 1.164 1.583 2.519 3.514 3.45 5.13.933 1.614 1.929 3.753 2.717 5.553.914 2.085.205 4.499-1.66 5.802-2.728 1.905-6.715 4.613-9.846 6.42-3.13 1.808-7.469 3.907-10.482 5.316-2.062.965-4.507.371-5.856-1.462-1.165-1.583-2.519-3.515-3.451-5.13-.932-1.614-1.928-3.753-2.717-5.553z" fill="#FFEAC8" stroke="#231F20" stroke-width="2.148" stroke-miterlimit="10"/><path d="M52.28 2.482l-5.955 13.535a5 5 0 0 1-5.308 2.933l-14.535-2.151m7.384 14.789l2.794-13.16m24.053-2.34l-12.794-4.16" stroke="#231F20" stroke-width="2.148" stroke-miterlimit="10"/></svg>