<svg width="21" height="12" viewBox="0 0 21 12" fill="none" xmlns="http://www.w3.org/2000/svg"><path d="M13.31 10.161l4.126-4.166-4.125-4.167a1.075 1.075 0 0 1 0-1.514 1.051 1.051 0 0 1 1.499 0l4.88 4.929a1.077 1.077 0 0 1 0 1.514l-4.88 4.929a1.051 1.051 0 0 1-1.5 0 1.1 1.1 0 0 1 0-1.525z" fill="#7E8597"/><rect x="9" y="5" width="9" height="2" rx="1" fill="#7E8597"/><rect x="19" y="12" width="12" height="2" rx="1" transform="rotate(-90 19 12)" fill="#7E8597"/><rect x="4" y="5" width="4" height="2" rx="1" fill="#7E8597"/><rect y="5" width="3" height="2" rx="1" fill="#7E8597"/></svg>