<svg width="366" height="178" viewBox="0 0 366 178" fill="none" xmlns="http://www.w3.org/2000/svg"><path d="M54.72 110.88c-4.72 0-8.16-1.28-10.32-3.84-2.16-2.64-3.24-7.2-3.24-13.68h-22.2c-5.2 0-9.08-1.24-11.64-3.72-2.48-2.48-3.72-5.68-3.72-9.6 0-4.24 1.08-8 3.24-11.28 5.68-8.88 12.08-18.48 19.2-28.8 4.16-6.08 9.88-9.12 17.16-9.12l10.44.12c5.84 0 9.8 1 11.88 3 2.08 1.92 3.12 5.32 3.12 10.2v31.68c3.44.32 5.8 1.16 7.08 2.52 1.28 1.36 1.92 3.52 1.92 6.48 0 3.04-.68 5.16-2.04 6.36-1.36 1.12-3.68 1.8-6.96 2.04 0 6.32-1.16 10.84-3.48 13.56-2.32 2.72-5.8 4.08-10.44 4.08zM41.04 76.32l.36-25.56-16.08 25.56h15.72z" fill="#B4EEFF"/><path d="M44.4 107.04l-1.16.95a.23.23 0 0 0 .014.017l1.146-.967zm-3.24-13.68h1.5a1.5 1.5 0 0 0-1.5-1.5v1.5zM7.32 89.64L6.26 90.7l.016.017L7.32 89.64zm-.48-20.88l1.253.825.01-.017-1.263-.808zm19.2-28.8l1.235.852.003-.005-1.238-.847zm17.16-9.12l.017-1.5H43.2v1.5zm10.44.12l-.017 1.5h.017v-1.5zm11.88 3l-1.04 1.081.023.021 1.017-1.102zm3.12 41.88h-1.5a1.5 1.5 0 0 0 1.361 1.493l.139-1.493zm7.08 2.52l1.092-1.028-1.092 1.028zM75.6 91.2l.954 1.158.038-.033L75.6 91.2zm-6.96 2.04l-.11-1.496a1.5 1.5 0 0 0-1.39 1.496h1.5zm-3.48 13.56l1.141.973-1.141-.973zM41.04 76.32v1.5a1.5 1.5 0 0 0 1.5-1.479l-1.5-.021zm.36-25.56l1.5.021a1.5 1.5 0 0 0-2.77-.82l1.27.799zM25.32 76.32l-1.27-.799a1.5 1.5 0 0 0 1.27 2.299v-1.5zm29.4 33.06c-4.466 0-7.401-1.206-9.174-3.307l-2.292 1.934c2.547 3.019 6.492 4.373 11.466 4.373v-3zm-9.16-3.29c-1.815-2.219-2.9-6.326-2.9-12.73h-3c0 6.556 1.075 11.569 3.58 14.63l2.32-1.9zm-4.4-14.23h-22.2v3h22.2v-3zm-22.2 0c-4.988 0-8.422-1.191-10.596-3.297l-2.088 2.154c2.946 2.854 7.272 4.143 12.684 4.143v-3zM8.38 88.58c-2.164-2.165-3.28-4.967-3.28-8.54h-3c0 4.267 1.364 7.865 4.16 10.66l2.12-2.12zM5.1 80.04c0-3.971 1.007-7.44 2.993-10.455l-2.506-1.65C3.253 71.479 2.1 75.531 2.1 80.04h3zm3.004-10.472c5.669-8.863 12.059-18.448 19.17-28.756l-2.469-1.704C17.677 49.44 11.267 59.055 5.576 67.952l2.528 1.616zm19.174-28.761c3.884-5.677 9.144-8.467 15.922-8.467v-3c-7.782 0-13.962 3.29-18.398 9.773l2.476 1.694zm15.905-8.467l10.44.12.034-3-10.44-.12-.034 3zm10.457.12c5.793 0 9.214 1.018 10.84 2.581l2.08-2.162c-2.534-2.437-7.033-3.419-12.92-3.419v3zm10.863 2.602c1.611 1.488 2.637 4.35 2.637 9.098h3c0-5.013-1.054-8.95-3.603-11.302l-2.034 2.204zm2.637 9.098v31.68h3V44.16h-3zm1.361 33.174c3.35.311 5.237 1.109 6.127 2.054l2.184-2.056c-1.67-1.775-4.503-2.657-8.033-2.986l-.278 2.987zm6.127 2.054c.9.958 1.512 2.66 1.512 5.452h3c0-3.128-.669-5.746-2.328-7.508l-2.184 2.056zm1.512 5.452c0 2.89-.658 4.464-1.532 5.235l1.984 2.25c1.846-1.629 2.548-4.294 2.548-7.485h-3zm-1.494 5.202c-.988.814-2.915 1.468-6.115 1.702l.218 2.992c3.36-.246 6.073-.952 7.805-2.378l-1.908-2.316zM67.14 93.24c0 6.21-1.154 10.28-3.121 12.587l2.282 1.946c2.673-3.133 3.839-8.103 3.839-14.533h-3zm-3.121 12.587c-1.955 2.292-4.958 3.553-9.299 3.553v3c4.94 0 8.896-1.459 11.581-4.607l-2.282-1.946zm-21.48-29.486l.36-25.56-2.999-.042-.36 25.56 3 .042zm-2.409-26.38l-16.08 25.56 2.54 1.598 16.08-25.56-2.54-1.598zM25.32 77.82h15.72v-3H25.32v3z" fill="#231F20"/><path d="M60 38.5c-3.6-3.2-14.167-5.333-19-6h14c12 0 12 6 12 10.5v24.5c0-13.5-2.5-25-7-29z" fill="#86E3FF"/><path d="M136.6 113.72c-5.12 0-9.76-.68-13.92-2.04-4.08-1.44-7.8-3.68-11.16-6.72-3.28-3.04-5.84-7.2-7.68-12.48-1.76-5.28-2.64-11.48-2.64-18.6 0-7.68.88-14.24 2.64-19.68 1.76-5.44 4.28-9.68 7.56-12.72 3.28-3.04 6.96-5.24 11.04-6.6 4.08-1.36 8.8-2.04 14.16-2.04 5.2 0 9.88.8 14.04 2.4 4.16 1.52 7.8 3.88 10.92 7.08 3.2 3.2 5.64 7.48 7.32 12.84 1.76 5.28 2.64 11.52 2.64 18.72 0 7.2-.88 13.44-2.64 18.72-1.76 5.2-4.28 9.32-7.56 12.36-3.2 3.04-6.88 5.28-11.04 6.72-4.08 1.36-8.64 2.04-13.68 2.04zm6.48-24.12c1.44-4.4 2.16-9.64 2.16-15.72 0-6.16-.76-11.6-2.28-16.32-1.52-4.72-3.64-7.08-6.36-7.08-1.92 0-3.6 1.2-5.04 3.6-1.36 2.4-2.36 5.36-3 8.88-.64 3.44-.96 7.08-.96 10.92 0 5.92.76 11.12 2.28 15.6 1.6 4.48 3.84 6.72 6.72 6.72s5.04-2.2 6.48-6.6z" fill="#B4EEFF"/><path d="M122.68 111.68l-.499 1.414.033.012.466-1.426zm-11.16-6.72l-1.02 1.1.014.012 1.006-1.112zm-7.68-12.48l-1.423.474a.144.144 0 0 0 .007.02l1.416-.494zm0-38.28l1.427.462-1.427-.462zm7.56-12.72l-1.02-1.1 1.02 1.1zm39.24-6.24l-.538 1.4a.446.446 0 0 0 .023.009l.515-1.409zm10.92 7.08l-1.074 1.047.013.014 1.061-1.061zm7.32 12.84l-1.431.449a.245.245 0 0 0 .008.025l1.423-.474zm0 37.44l1.421.48.002-.006-1.423-.474zm-7.56 12.36l-1.02-1.1-.013.012 1.033 1.088zm-11.04 6.72l.474 1.423.017-.006-.491-1.417zm-7.2-22.08l-1.426-.467 1.426.467zm-.12-32.04l-1.428.46 1.428-.46zm-11.4-3.48l-1.286-.772-.019.032 1.305.74zm-3 8.88l1.475.274.001-.006-1.476-.268zm1.32 26.52l-1.42.482.007.022 1.413-.504zm6.72 22.74c-4.988 0-9.467-.662-13.454-1.966l-.932 2.852c4.333 1.416 9.134 2.114 14.386 2.114v-3zm-13.421-1.954c-3.884-1.371-7.433-3.505-10.653-6.418l-2.012 2.224c3.5 3.167 7.391 5.513 11.667 7.022l.998-2.828zm-10.639-6.406c-3.061-2.837-5.504-6.768-7.284-11.874l-2.832.988c1.9 5.454 4.577 9.843 8.076 13.086l2.04-2.2zm-7.277-11.854c-1.697-5.091-2.563-11.124-2.563-18.126h-3c0 7.239.894 13.606 2.717 19.074l2.846-.948zM102.7 73.88c0-7.573.869-13.969 2.567-19.218l-2.854-.924c-1.822 5.63-2.713 12.355-2.713 20.142h3zm2.567-19.218c1.703-5.263 4.106-9.258 7.153-12.082l-2.04-2.2c-3.513 3.256-6.15 7.74-7.967 13.358l2.854.924zm7.153-12.082c3.129-2.9 6.625-4.987 10.494-6.277l-.948-2.846c-4.291 1.43-8.155 3.744-11.586 6.923l2.04 2.2zm10.494-6.277c3.895-1.298 8.449-1.963 13.686-1.963v-3c-5.483 0-10.369.695-14.634 2.117l.948 2.846zM136.6 34.34c5.046 0 9.539.776 13.502 2.3l1.076-2.8c-4.357-1.676-9.224-2.5-14.578-2.5v3zm13.525 2.309c3.947 1.442 7.396 3.678 10.361 6.718l2.148-2.094c-3.275-3.36-7.106-5.844-11.479-7.442l-1.03 2.818zm10.374 6.732c2.993 2.992 5.325 7.044 6.95 12.228l2.862-.898c-1.735-5.536-4.283-10.044-7.69-13.452l-2.122 2.122zm6.958 12.253c1.697 5.09 2.563 11.162 2.563 18.246h3c0-7.316-.894-13.724-2.717-19.194l-2.846.948zm2.563 18.246c0 7.084-.866 13.156-2.563 18.246l2.846.948c1.823-5.47 2.717-11.878 2.717-19.194h-3zm-2.561 18.24c-1.698 5.016-4.099 8.904-7.159 11.74l2.04 2.2c3.5-3.244 6.139-7.596 7.961-12.98l-2.842-.96zm-7.172 11.752a28.697 28.697 0 0 1-10.498 6.391l.982 2.834a31.685 31.685 0 0 0 11.582-7.049l-2.066-2.176zm-10.481 6.385c-3.904 1.301-8.3 1.963-13.206 1.963v3c5.174 0 9.898-.698 14.154-2.117l-.948-2.846zm-5.3-20.19c1.502-4.59 2.234-9.995 2.234-16.187h-3c0 5.968-.708 11.043-2.086 15.253l2.852.934zm2.234-16.187c0-6.28-.774-11.88-2.352-16.78l-2.856.92c1.462 4.54 2.208 9.82 2.208 15.86h3zm-2.352-16.78c-.792-2.46-1.784-4.452-3.042-5.852-1.293-1.44-2.888-2.268-4.746-2.268v3c.862 0 1.687.351 2.514 1.272.862.96 1.69 2.508 2.418 4.768l2.856-.92zm-7.788-8.12c-2.666 0-4.751 1.702-6.326 4.328l2.572 1.544c1.305-2.174 2.58-2.872 3.754-2.872v-3zm-6.345 4.36c-1.463 2.583-2.509 5.713-3.171 9.352l2.952.536c.618-3.4 1.572-6.191 2.829-8.409l-2.61-1.479zm-3.17 9.346c-.658 3.538-.985 7.27-.985 11.194h3c0-3.757.313-7.304.935-10.646l-2.95-.548zM126.1 73.88c0 6.044.776 11.413 2.36 16.082l2.84-.964c-1.456-4.291-2.2-9.323-2.2-15.118h-3zm2.367 16.105c1.656 4.635 4.252 7.715 8.133 7.715v-3c-1.879 0-3.763-1.4-5.307-5.725l-2.826 1.01zM136.6 97.7c3.892 0 6.407-3.053 7.906-7.633l-2.852-.934c-1.381 4.22-3.186 5.567-5.054 5.567v3z" fill="#231F20"/><path d="M133.5 34.5c10.5 1.833 33 18.5 36 43.5 2-9 2-46-36-43.5z" fill="#86E4FF"/><path d="M262.718 155.962c-4.271 2.01-7.928 2.316-10.973.919-3.078-1.469-5.997-5.135-8.755-10.999l-20.088 9.451c-4.705 2.214-8.744 2.744-12.116 1.59-3.3-1.188-5.784-3.556-7.453-7.103-1.805-3.837-2.429-7.699-1.871-11.586 1.359-10.453 3.063-21.865 5.112-34.234 1.176-7.272 5.058-12.458 11.645-15.558l9.498-4.336c5.284-2.486 9.293-3.267 12.027-2.343 2.699.852 5.088 3.486 7.165 7.901l13.487 28.666c3.249-1.175 5.742-1.419 7.479-.734 1.738.686 3.236 2.368 4.496 5.046 1.295 2.751 1.582 4.959.862 6.624-.754 1.592-2.563 3.195-5.429 4.809 2.691 5.718 3.565 10.302 2.624 13.751-.941 3.449-3.511 6.161-7.71 8.136zm-27.091-25.447l-10.556-23.282-3.669 29.974 14.225-6.692z" fill="#B4EEFF"/><path d="M251.745 156.881l-.646 1.354a.2.2 0 0 1 .021.01l.625-1.364zm-8.755-10.999l1.357-.638a1.5 1.5 0 0 0-1.996-.719l.639 1.357zm-32.204 11.041l-.508 1.411.022.008.486-1.419zm-9.324-18.689l1.485.213a.918.918 0 0 0 .003-.02l-1.488-.193zM206.574 104l1.48.245.001-.005-1.481-.24zm11.645-15.558l-.623-1.364-.016.007.639 1.358zm9.498-4.336l.623 1.365.015-.007-.638-1.358zm12.027-2.343l-.481 1.421.029.01.452-1.43zm20.652 36.567l-1.357.639a1.5 1.5 0 0 0 1.867.772l-.51-1.411zm7.479-.734l.551-1.395-.551 1.395zm5.358 11.67l1.356.641.021-.046-1.377-.595zm-5.429 4.809l-.736-1.307a1.498 1.498 0 0 0-.621 1.945l1.357-.638zm2.624 13.751l1.447.395-1.447-.395zm-34.801-17.311l.638 1.357a1.5 1.5 0 0 0 .728-1.977l-1.366.62zm-10.556-23.282l1.366-.619a1.5 1.5 0 0 0-2.855.437l1.489.182zm-3.669 29.974l-1.488-.182a1.498 1.498 0 0 0 2.127 1.539l-.639-1.357zm40.678 17.398c-4.042 1.901-7.211 2.059-9.709.913l-1.251 2.727c3.59 1.647 7.736 1.192 12.237-.925l-1.277-2.715zm-9.688.922c-2.588-1.234-5.319-4.489-8.045-10.283l-2.715 1.277c2.792 5.932 5.898 10.01 9.467 11.714l1.293-2.708zm-10.041-11.002l-20.088 9.451 1.278 2.715 20.087-9.452-1.277-2.714zm-20.088 9.451c-4.513 2.124-8.127 2.508-10.991 1.528l-.972 2.838c3.881 1.328 8.344.653 13.241-1.651l-1.278-2.715zm-10.969 1.536c-2.88-1.037-5.083-3.097-6.604-6.331l-2.714 1.278c1.816 3.86 4.582 6.536 8.302 7.875l1.016-2.822zm-6.604-6.331c-1.691-3.593-2.256-7.16-1.743-10.734l-2.969-.426c-.604 4.201.078 8.358 1.998 12.438l2.714-1.278zm-1.74-10.754c1.356-10.433 3.058-21.826 5.104-34.182l-2.959-.49c-2.052 12.383-3.758 23.812-5.12 34.286l2.975.386zm5.105-34.187c1.098-6.791 4.67-11.555 10.803-14.44l-1.278-2.715c-7.041 3.313-11.233 8.922-12.486 16.676l2.961.479zm10.787-14.433l9.498-4.336-1.246-2.73-9.498 4.337 1.246 2.729zm9.513-4.343c5.242-2.466 8.771-3.002 10.908-2.28l.961-2.842c-3.33-1.126-7.819-.1-13.146 2.407l1.277 2.715zm10.937-2.27c2.092.66 4.239 2.814 6.26 7.11l2.714-1.278c-2.134-4.536-4.764-7.65-8.071-8.693l-.903 2.86zm6.26 7.11l13.487 28.665 2.715-1.277-13.488-28.666-2.714 1.277zm15.354 29.437c3.164-1.144 5.211-1.226 6.419-.75l1.101-2.79c-2.267-.895-5.206-.487-8.54.719l1.02 2.821zm6.419-.749c1.223.482 2.501 1.763 3.689 4.289l2.715-1.277c-1.332-2.831-3.052-4.914-5.303-5.803l-1.101 2.791zm3.689 4.289c1.23 2.614 1.305 4.319.842 5.389l2.754 1.191c.977-2.259.477-4.97-.881-7.857l-2.715 1.277zm.863 5.343c-.548 1.158-2.012 2.569-4.809 4.144l1.472 2.614c2.935-1.653 5.089-3.447 6.049-5.475l-2.712-1.283zm-5.43 6.089c2.643 5.619 3.332 9.794 2.534 12.718l2.894.79c1.084-3.973.024-8.967-2.714-14.785l-2.714 1.277zm2.534 12.718c-.793 2.907-2.973 5.326-6.901 7.174l1.277 2.715c4.469-2.103 7.429-5.108 8.518-9.099l-2.894-.79zm-31.988-17.536l-10.556-23.281-2.732 1.239 10.556 23.281 2.732-1.239zm-13.411-22.844l-3.668 29.974 2.977.364 3.669-29.973-2.978-.365zm-1.541 31.513l14.224-6.692-1.277-2.715-14.224 6.693 1.277 2.714z" fill="#231F20"/><path d="M221 94c-8.8 2-12.667 10.833-13.5 15 0-1.667.3-5.9 1.5-9.5 4-9 13-11 22.5-15.5 7.6-3.6 12.167 1.5 13.5 4.5 1.568 3.45 5.584 12.356 9.718 21.726.389.74.66 1.347.782 1.774l-.782-1.774C251.925 104.901 243.073 92.634 240 90c-3.5-3-8 1.5-19 4z" fill="#86E3FF"/></svg>