<svg width="40" height="40" viewBox="0 0 40 40" fill="none" xmlns="http://www.w3.org/2000/svg"><rect width="40" height="40" rx="20" fill="#4680C2"/><mask id="a" style="mask-type:alpha" maskUnits="userSpaceOnUse" x="10" y="15" width="20" height="12"><path d="M27.2 22.6c1.55 1.44 1.87 2.13 1.92 2.22.64 1.06-.7 1.14-.7 1.14l-2.58.04s-.56.11-1.28-.39c-.97-.66-1.9-2.39-2.59-2.16-.71.23-.69 1.78-.69 1.78s0 .22-.16.39c-.18.19-.53.12-.53.12h-1.15s-2.55.26-4.78-2.07c-2.45-2.54-4.61-7.54-4.61-7.54s-.12-.3.01-.47c.15-.16.57-.16.57-.16h2.76s.27 0 .44.16c.15.11.24.34.24.34s.44 1.11 1.04 2.13c1.15 1.99 1.68 2.42 2.05 2.21.6-.31.43-2.81.43-2.81s.01-.91-.29-1.31c-.23-.31-.67-.41-.86-.43-.16-.02.1-.38.43-.55.5-.24 1.37-.24 2.41-.24.81 0 1.04.06 1.35.13.96.23.63 1.12.63 3.24 0 .69-.1 1.63.37 1.96.21.14.73.02 2.03-2.17.6-1.04 1.06-2.27 1.06-2.27s.1-.21.25-.31c.16-.08.38-.08.38-.08h2.9s.88-.1 1.02.29c.15.41-.33 1.38-1.52 2.95-1.94 2.6-2.16 2.36-.55 3.86z" fill="#fff"/></mask><g mask="url(#a)"><rect width="40" height="40" rx="20" fill="#fff"/></g></svg>