<svg width="19" height="19" viewBox="0 0 19 19" fill="none" xmlns="http://www.w3.org/2000/svg"><path fill-rule="evenodd" clip-rule="evenodd" d="M9.5 19a9.5 9.5 0 1 0 0-19 9.5 9.5 0 0 0 0 19zm5.047-13.062c.415 0 .475.178.415.475-.07.411-.66 1.373-1.107 2.101-.31.505-.55.898-.502.918-.119.238-.119.416 0 .594.06.09.208.238.379.409.17.17.363.364.512.542.43.463.793.985 1.075 1.55.06.357-.119.536-.475.536H13.53c-.37 0-.542-.198-.9-.61-.165-.188-.37-.423-.65-.704-.778-.713-1.135-.832-1.313-.832-.297 0-.356.12-.356.476v1.188c0 .297-.119.476-.95.476A5.101 5.101 0 0 1 5.37 10.68C3.701 8.416 3.285 6.687 3.285 6.33c0-.178.12-.356.476-.356h1.312c.357 0 .475.119.594.475.654 1.848 1.729 3.458 2.144 3.458.178 0 .238-.06.238-.475V7.525a1.503 1.503 0 0 0-.375-.94c-.09-.112-.16-.2-.16-.314a.386.386 0 0 1 .357-.297h2.031c.238 0 .356.119.356.475v2.585c0 .238.12.356.179.356.178 0 .297-.118.594-.416a10.925 10.925 0 0 0 1.61-2.68.63.63 0 0 1 .593-.356h1.313z" fill="#07F"/></svg>