<svg width="19" height="19" viewBox="0 0 19 19" fill="none" xmlns="http://www.w3.org/2000/svg"><path fill-rule="evenodd" clip-rule="evenodd" d="M9.5 19a9.5 9.5 0 1 0 0-19 9.5 9.5 0 0 0 0 19z" fill="#007BB6"/><path d="M5.137 6.99h1.726V13H5.137V6.99zM6 4c.551 0 1 .486 1 1.083 0 .598-.449 1.083-1 1.083-.554 0-1-.485-1-1.083C5 4.486 5.446 4 6 4zm2.003 3.145h1.845v.802h.026c.255-.462.882-.947 1.819-.947C13.64 7 14 8.212 14 9.789V13h-1.925v-2.85c0-.678-.012-1.552-1-1.552-1 0-1.154.739-1.154 1.504V13H8V7.145h.003z" fill="#fff"/></svg>