<svg width="19" height="19" viewBox="0 0 19 19" fill="none" xmlns="http://www.w3.org/2000/svg"><path fill-rule="evenodd" clip-rule="evenodd" d="M19 9.5a9.5 9.5 0 1 1-19 0 9.5 9.5 0 0 1 19 0zm-5.298-3.076A4.49 4.49 0 0 0 15 6.064c-.3.46-.684.857-1.13 1.177v.012c.004.095.008.187.008.283 0 3.003-2.27 6.464-6.422 6.464A6.332 6.332 0 0 1 4 12.983c.176.022.357.03.537.03a4.508 4.508 0 0 0 2.803-.973 2.262 2.262 0 0 1-2.11-1.58 2.295 2.295 0 0 0 1.018-.038 2.271 2.271 0 0 1-1.81-2.229v-.03c.306.173.654.273 1.024.286a2.275 2.275 0 0 1-1.006-1.891c0-.416.111-.805.305-1.143a6.394 6.394 0 0 0 4.655 2.376A2.264 2.264 0 0 1 11.613 5a2.248 2.248 0 0 1 1.646.713c.516-.1 1.002-.29 1.436-.55a2.28 2.28 0 0 1-.993 1.26z" fill="#40ABE2"/></svg>