<svg width="11" height="12" viewBox="0 0 11 12" fill="none" xmlns="http://www.w3.org/2000/svg"><path d="M4.659 1.31a1 1 0 0 1 1.682 0l1.164 1.812a1 1 0 0 0 .588.427l2.083.547a1 1 0 0 1 .52 1.6L9.332 7.363a1 1 0 0 0-.224.691l.123 2.15a1 1 0 0 1-1.361.99l-2.007-.783a1 1 0 0 0-.726 0l-2.007.782a1 1 0 0 1-1.361-.989l.123-2.15a1 1 0 0 0-.224-.69L.304 5.695a1 1 0 0 1 .52-1.6l2.083-.547a1 1 0 0 0 .588-.427L4.659 1.31z" fill="url(#a)"/><defs><linearGradient id="a" x1="2.5" x2="9" y2="12" gradientUnits="userSpaceOnUse"><stop stop-color="#FFD500"/><stop offset="1" stop-color="#FF9A4C"/></linearGradient></defs></svg>