<svg width="11" height="12" viewBox="0 0 11 12" fill="none" xmlns="http://www.w3.org/2000/svg"><path d="M5.92 1.58l1.165 1.812a1.5 1.5 0 0 0 .88.64l2.084.548a.5.5 0 0 1 .26.8L8.945 7.047a1.5 1.5 0 0 0-.336 1.036l.123 2.15a.5.5 0 0 1-.68.494l-2.007-.781a1.5 1.5 0 0 0-1.09 0l-2.006.781a.5.5 0 0 1-.681-.494l.123-2.15a1.5 1.5 0 0 0-.336-1.036L.69 5.38a.5.5 0 0 1 .26-.8l2.083-.547a1.5 1.5 0 0 0 .881-.64L5.08 1.58a.5.5 0 0 1 .842 0z" stroke="url(#a)"/><defs><linearGradient id="a" x1="10" y1="10.5" x2=".5" gradientUnits="userSpaceOnUse"><stop stop-color="#FF9A4C"/><stop offset="1" stop-color="#FFD500"/></linearGradient></defs></svg>