<svg width="24" height="25" viewBox="0 0 24 25" fill="none" xmlns="http://www.w3.org/2000/svg"><path d="M11.15 2.268a1 1 0 0 1 1.7 0l2.658 4.286a3 3 0 0 0 1.762 1.314l4.861 1.322a1 1 0 0 1 .523 1.585l-3.247 4.11a3 3 0 0 0-.641 2.025l.29 5.232a1 1 0 0 1-1.373.983l-4.56-1.84a3 3 0 0 0-2.246 0l-4.56 1.84a1 1 0 0 1-1.373-.983l.29-5.232a3 3 0 0 0-.641-2.025l-3.247-4.11a1 1 0 0 1 .522-1.585L6.73 7.868a3 3 0 0 0 1.762-1.314l2.658-4.286z" stroke="url(#a)" stroke-width="2"/><defs><linearGradient id="a" x1="21.692" y1="22.423" x2=".439" y2="-.258" gradientUnits="userSpaceOnUse"><stop stop-color="#FF9A4C"/><stop offset="1" stop-color="#FFD500"/></linearGradient></defs></svg>