<svg width="25" height="25" viewBox="0 0 25 25" fill="none" xmlns="http://www.w3.org/2000/svg"><path d="M10.817 1.62a2 2 0 0 1 3.366 0l2.84 4.42a2 2 0 0 0 1.174.854l5.082 1.334a2 2 0 0 1 1.04 3.201l-3.327 4.067a2 2 0 0 0-.449 1.38l.301 5.246a2 2 0 0 1-2.723 1.978l-4.895-1.907a2 2 0 0 0-1.452 0L6.878 24.1a2 2 0 0 1-2.722-1.978l.3-5.245a2 2 0 0 0-.448-1.381L.681 11.429a2 2 0 0 1 1.04-3.2l5.082-1.335a2 2 0 0 0 1.175-.853l2.84-4.421z" fill="url(#a)"/><defs><linearGradient id="a" x1="5.808" y1="-1" x2="20.308" y2="25.769" gradientUnits="userSpaceOnUse"><stop stop-color="#FFD500"/><stop offset="1" stop-color="#FF9A4C"/></linearGradient></defs></svg>