<svg width="40" height="40" viewBox="0 0 40 40" fill="none" xmlns="http://www.w3.org/2000/svg">
<rect width="40" height="40" rx="20" fill="#55ACEE"/>
<mask id="mask0" mask-type="alpha" maskUnits="userSpaceOnUse" x="10" y="11" width="21" height="17">
<path d="M30.92 13C30.15 13.35 29.32 13.58 28.46 13.69C29.34 13.16 30.02 12.32 30.34 11.31C29.51 11.81 28.59 12.16 27.62 12.36C26.83 11.5 25.72 11 24.46 11C22.11 11 20.19 12.92 20.19 15.29C20.19 15.63 20.23 15.96 20.3 16.27C16.74 16.09 13.57 14.38 11.46 11.79C11.09 12.42 10.88 13.16 10.88 13.94C10.88 15.43 11.63 16.75 12.79 17.5C12.08 17.5 11.42 17.3 10.84 17C10.84 17 10.84 17 10.84 17.03C10.84 19.11 12.32 20.85 14.28 21.24C13.92 21.34 13.54 21.39 13.15 21.39C12.88 21.39 12.61 21.36 12.35 21.31C12.89 23 14.46 24.26 16.35 24.29C14.89 25.45 13.04 26.13 11.02 26.13C10.68 26.13 10.34 26.11 10 26.07C11.9 27.29 14.16 28 16.58 28C24.46 28 28.79 21.46 28.79 15.79C28.79 15.6 28.79 15.42 28.78 15.23C29.62 14.63 30.34 13.87 30.92 13Z" fill="#979797"/>
</mask>
<g mask="url(#mask0)">
<path d="M0 20C0 8.95431 8.95431 0 20 0C31.0457 0 40 8.95431 40 20C40 31.0457 31.0457 40 20 40C8.95431 40 0 31.0457 0 20Z" fill="white"/>
</g>
</svg>
