<svg width="41" height="40" viewBox="0 0 41 40" fill="none" xmlns="http://www.w3.org/2000/svg"><path fill-rule="evenodd" clip-rule="evenodd" d="M20.688 39.552c10.921 0 19.775-8.854 19.775-19.776S31.61 0 20.687 0C9.767 0 .913 8.854.913 19.776s8.854 19.776 19.776 19.776zm10.505-27.19c.866 0 .99.37.866.989-.146.854-1.375 2.856-2.305 4.373-.645 1.052-1.147 1.87-1.046 1.91-.247.495-.247.866 0 1.237.124.186.433.495.788.85.356.356.758.758 1.067 1.13.896.963 1.65 2.05 2.238 3.228.123.742-.248 1.113-.99 1.113H29.08c-.77 0-1.13-.412-1.875-1.268-.343-.393-.768-.881-1.352-1.466-1.62-1.484-2.362-1.731-2.733-1.731-.618 0-.741.247-.741.99v2.473c0 .618-.248.99-1.979.99a10.618 10.618 0 0 1-8.308-4.948c-3.475-4.713-4.34-8.312-4.34-9.054 0-.372.247-.743.989-.743h2.732c.742 0 .99.248 1.237.99 1.36 3.847 3.598 7.199 4.463 7.199.371 0 .495-.124.495-.99v-3.97c-.076-1.074-.48-1.58-.78-1.956-.187-.234-.333-.417-.333-.654a.804.804 0 0 1 .742-.619h4.229c.494 0 .741.248.741.99v5.38c0 .495.248.743.371.743.371 0 .618-.248 1.237-.866a22.75 22.75 0 0 0 3.35-5.579 1.31 1.31 0 0 1 1.237-.742h2.732z" fill="#fff"/></svg>